<svg width="36" height="18" viewBox="0 0 36 18" fill="none" xmlns="http://www.w3.org/2000/svg">
  <g>
    <path
      d="M10.8112 15.6325C10.3823 15.1853 9.99689 14.6974 9.6604 14.1755C9.40909 14.2135 9.15537 14.233 8.90127 14.2339C5.88369 14.2425 3.49872 11.6494 3.72557 8.60654C3.95243 5.5637 6.6949 3.36152 9.6771 3.82753C10.4553 2.62415 11.489 1.61135 12.703 0.862837C6.80252 -1.95711 0.00677456 2.39097 5.05997e-06 8.99051C-0.00676436 15.5901 6.78005 19.9524 12.6863 17.1448C12.0007 16.7227 11.3707 16.2146 10.8112 15.6325Z"
      fill="#2563EB" />
    <path
      d="M22.1847 11.3306C20.7128 14.3234 16.8817 15.1732 14.3062 13.0781C11.7307 10.9831 11.7307 7.01685 14.3062 4.9218C16.8817 2.82675 20.7128 3.67654 22.1847 6.66936L23.0106 5.83415L24.3634 4.46465C24.6711 4.14284 24.7007 3.64218 24.4332 3.28553C21.1848 -0.713758 15.2782 -1.12535 11.5181 2.38555C7.75787 5.89645 7.69348 11.8832 11.3773 15.4759C15.061 19.0687 20.9751 18.7871 24.3087 14.8602C24.6647 14.4357 24.6376 13.8056 24.2465 13.414L22.1847 11.3306Z"
      fill="#2563EB" />
    <path
      d="M21.758 11.0538C19.6157 9.96224 15.6166 11.7278 14.2715 12.3865C16.5614 14.6469 20.369 13.9691 21.758 11.0538Z"
      fill="#2563EB" />
    <path
      d="M17.5418 4.26633C16.3192 4.26515 15.1449 4.74917 14.2715 5.61433C15.6166 6.27298 19.6173 8.03859 21.761 6.94545C20.9807 5.30658 19.3405 4.26509 17.5418 4.26633Z"
      fill="#2563EB" />
  </g>
</svg>
