<svg width="48" height="48" viewBox="0 0 48 48" fill="none" xmlns="http://www.w3.org/2000/svg">
<path d="M43.9799 43.4569L41.3128 27.9442H42.2136C42.9382 27.9442 43.522 27.3553 43.522 26.6244V16.8782C43.522 16.1472 42.9382 15.5584 42.2136 15.5584H29.8342V6.3198C29.8342 5.58883 29.2505 5 28.5258 5H20.4742C19.7496 5 19.1658 5.58883 19.1658 6.3198V15.5584H6.78645C6.06181 15.5584 5.47806 16.1472 5.47806 16.8782V26.6244C5.47806 27.3553 6.06181 27.9442 6.78645 27.9442H7.68723L5.02013 43.4569C5.00503 43.533 5 43.6091 5 43.6802C5 44.4112 5.58374 45 6.30839 45H42.6917C42.7671 45 42.8426 44.9949 42.9131 44.9797C43.6277 44.8579 44.1057 44.1726 43.9799 43.4569ZM9.00065 19.1117H22.6884V8.5533H26.3116V19.1117H39.9994V24.3909H9.00065V19.1117ZM32.5516 41.4467V33.5279C32.5516 33.3046 32.3705 33.1218 32.1491 33.1218H29.7336C29.5122 33.1218 29.331 33.3046 29.331 33.5279V41.4467H19.669V33.5279C19.669 33.3046 19.4879 33.1218 19.2665 33.1218H16.851C16.6296 33.1218 16.4484 33.3046 16.4484 33.5279V41.4467H8.94026L11.2098 28.2487H37.7852L40.0547 41.4467H32.5516Z" fill="#334155"/>
</svg>
