<svg width="48" height="48" viewBox="0 0 48 48" fill="none" xmlns="http://www.w3.org/2000/svg">
<path d="M36.8525 16C37.7113 16.0002 38.4643 16.573 38.6943 17.4004L39.2412 19.3691C39.2995 19.5791 39.5156 19.7036 39.7266 19.6494L41.7051 19.1387C42.5369 18.924 43.4103 19.2902 43.8398 20.0342L46.543 24.7158C46.9723 25.4597 46.8527 26.3988 46.251 27.0117L44.8193 28.4697C44.6668 28.6253 44.6667 28.8747 44.8193 29.0303L46.251 30.4883C46.8527 31.1013 46.9724 32.0403 46.543 32.7842L43.8398 37.4658C43.4103 38.2098 42.5369 38.576 41.7051 38.3613L39.7266 37.8506C39.5156 37.7963 39.2995 37.9209 39.2412 38.1309L38.6943 40.0996C38.4643 40.9269 37.7112 41.4998 36.8525 41.5H31.4463C30.5873 41.5 29.8336 40.9272 29.6035 40.0996L29.0566 38.1309C28.9983 37.9208 28.7824 37.7961 28.5713 37.8506L26.5938 38.3613C25.762 38.5761 24.8886 38.2098 24.459 37.4658L21.7559 32.7842C21.3264 32.0403 21.4461 31.1013 22.0479 30.4883L23.4795 29.0303C23.632 28.8747 23.632 28.6253 23.4795 28.4697L22.0479 27.0117C21.4461 26.3988 21.3265 25.4598 21.7559 24.7158L24.459 20.0342C24.8885 19.2902 25.7619 18.9239 26.5938 19.1387L28.5713 19.6494C28.7823 19.7038 28.9982 19.5791 29.0566 19.3691L29.6035 17.4004C29.8335 16.5728 30.5873 16 31.4463 16H36.8525ZM19 38H1.5V34H19V38ZM32.4287 20.3057C31.8597 22.3542 29.7549 23.5695 27.6963 23.0381L26.8867 22.8281L25.3896 25.4199L25.9766 26.0176C27.466 27.5346 27.466 29.9654 25.9766 31.4824L25.3896 32.0791L26.8867 34.6709L27.6963 34.4619L27.8896 34.417C29.543 34.0774 31.1932 34.8453 32.0244 36.2471L32.1562 36.2109L32.0254 36.248C32.1648 36.4833 32.2818 36.7361 32.3711 37.0049L32.4287 37.1943L32.6523 38H35.6455L35.8691 37.1943L35.9268 37.0039C36.5489 35.1332 38.478 34.0201 40.4092 34.417L40.6016 34.4619L41.4111 34.6709L42.9082 32.0791L42.3223 31.4824C40.8327 29.9654 40.8327 27.5347 42.3223 26.0176L42.9082 25.4199L41.4111 22.8281L40.6016 23.0381C38.5431 23.5694 36.4382 22.3541 35.8691 20.3057L35.6455 19.5H32.6523L32.4287 20.3057ZM34.25 23.25C37.2874 23.2502 39.75 25.7125 39.75 28.75C39.7498 31.7873 37.2873 34.2498 34.25 34.25C31.2126 34.25 28.7502 31.7874 28.75 28.75C28.75 25.7124 31.2124 23.25 34.25 23.25ZM34.25 26.75C33.1454 26.75 32.25 27.6454 32.25 28.75C32.2502 29.8544 33.1456 30.75 34.25 30.75C35.3543 30.7498 36.2498 29.8543 36.25 28.75C36.25 27.6455 35.3544 26.7502 34.25 26.75ZM19 24H1.5V20H19V24ZM39.5 10H1.5V6H39.5V10Z" fill="#334155"/>
</svg>
