<svg width="48" height="48" viewBox="0 0 48 48" fill="none" xmlns="http://www.w3.org/2000/svg">
<path d="M33.8994 5.15039C34.9211 5.15039 35.75 5.97828 35.75 7V11C35.75 12.0217 34.9211 12.8496 33.8994 12.8496C32.8779 12.8494 32.0498 12.0216 32.0498 11V8.84961H8.84961V37.5996H32.0498V37C32.0498 35.9784 32.8779 35.1506 33.8994 35.1504C34.9211 35.1504 35.75 35.9783 35.75 37V39.4502C35.7498 40.4718 34.921 41.2998 33.8994 41.2998H7C5.9784 41.2998 5.15058 40.4718 5.15039 39.4502V7C5.15039 5.97828 5.97828 5.15039 7 5.15039H33.8994ZM42.8242 19.6484L29.2656 33.207H23.6172V27.5586L37.1758 14L42.8242 19.6484ZM26.6143 28.7988V30.21H28.0244L33.8799 24.3535L32.4697 22.9434L26.6143 28.7988ZM21.4502 27.6992H13.8496V24H21.4502V27.6992ZM34.5889 20.8242L35.999 22.2344L38.5859 19.6484L37.1748 18.2373L34.5889 20.8242ZM25.9502 18.6992H13.8496V15H25.9502V18.6992Z" fill="#334155"/>
</svg>
