<svg width="24" height="24" viewBox="0 0 24 24" fill="none" xmlns="http://www.w3.org/2000/svg">
<path d="M15 1L21 7V21C21 22.1046 20.1046 23 19 23H5C3.89543 23 3 22.1046 3 21V3C3 1.89543 3.89543 1 5 1H15Z" fill="#54CC39"/>
<mask id="mask0_330571_621" style="mask-type:luminance" maskUnits="userSpaceOnUse" x="3" y="1" width="18" height="22">
<path d="M15 1L21 7V21C21 22.1046 20.1046 23 19 23H5C3.89543 23 3 22.1046 3 21V3C3 1.89543 3.89543 1 5 1H15Z" fill="white"/>
</mask>
<g mask="url(#mask0_330571_621)">
<path fill-rule="evenodd" clip-rule="evenodd" d="M15 1L21 7H17C15.8954 7 15 6.10457 15 5V1Z" fill="#A5E693"/>
</g>
<g filter="url(#filter0_d_330571_621)">
<path d="M11.5381 11C11.6485 11 11.7383 11.0897 11.7383 11.2002V17.7998C11.7383 17.9103 11.6485 18 11.5381 18H6.7002C6.58974 18 6.5 17.9103 6.5 17.7998V11.2002C6.5 11.0897 6.58974 11 6.7002 11H11.5381ZM17.2998 11C17.4103 11 17.5 11.0897 17.5 11.2002V17.7998C17.5 17.9103 17.4103 18 17.2998 18H12.4619C12.3515 18 12.2617 17.9103 12.2617 17.7998V11.2002C12.2617 11.0897 12.3515 11 12.4619 11H17.2998ZM7.79785 15.75C7.65978 15.75 7.54785 15.8619 7.54785 16C7.54785 16.1381 7.65978 16.25 7.79785 16.25H8.86914C9.0071 16.2499 9.11914 16.138 9.11914 16C9.11914 15.862 9.0071 15.7501 8.86914 15.75H7.79785ZM7.79785 14.25C7.65978 14.25 7.54785 14.3619 7.54785 14.5C7.54785 14.6381 7.65978 14.75 7.79785 14.75H10.7021C10.8401 14.7499 10.9521 14.638 10.9521 14.5C10.9521 14.362 10.8401 14.2501 10.7021 14.25H7.79785ZM13.2979 14.25C13.1598 14.25 13.0479 14.3619 13.0479 14.5C13.0479 14.6381 13.1598 14.75 13.2979 14.75H14.8936C15.0313 14.7496 15.1436 14.6378 15.1436 14.5C15.1436 14.3622 15.0313 14.2504 14.8936 14.25H13.2979ZM7.79785 12.75C7.65978 12.75 7.54785 12.8619 7.54785 13C7.54785 13.1381 7.65978 13.25 7.79785 13.25H10.7021C10.8401 13.2499 10.9521 13.138 10.9521 13C10.9521 12.862 10.8401 12.7501 10.7021 12.75H7.79785ZM13.2979 12.75C13.1598 12.75 13.0479 12.8619 13.0479 13C13.0479 13.1381 13.1598 13.25 13.2979 13.25H16.2021C16.3401 13.2499 16.4521 13.138 16.4521 13C16.4521 12.862 16.3401 12.7501 16.2021 12.75H13.2979Z" fill="white"/>
</g>
<defs>
<filter id="filter0_d_330571_621" x="6.5" y="11" width="13" height="9" filterUnits="userSpaceOnUse" color-interpolation-filters="sRGB">
<feFlood flood-opacity="0" result="BackgroundImageFix"/>
<feColorMatrix in="SourceAlpha" type="matrix" values="0 0 0 0 0 0 0 0 0 0 0 0 0 0 0 0 0 0 127 0" result="hardAlpha"/>
<feOffset dx="1" dy="1"/>
<feGaussianBlur stdDeviation="0.5"/>
<feColorMatrix type="matrix" values="0 0 0 0 0.207843 0 0 0 0 0.686275 0 0 0 0 0.117647 0 0 0 0.429713 0"/>
<feBlend mode="normal" in2="BackgroundImageFix" result="effect1_dropShadow_330571_621"/>
<feBlend mode="normal" in="SourceGraphic" in2="effect1_dropShadow_330571_621" result="shape"/>
</filter>
</defs>
</svg>
