<svg width="24" height="24" viewBox="0 0 24 24" fill="none" xmlns="http://www.w3.org/2000/svg">
<path d="M15 1L21 7V21C21 22.1046 20.1046 23 19 23H5C3.89543 23 3 22.1046 3 21V3C3 1.89543 3.89543 1 5 1H15Z" fill="#54CC39"/>
<mask id="mask0_331764_1784" style="mask-type:luminance" maskUnits="userSpaceOnUse" x="3" y="1" width="18" height="22">
<path d="M15 1L21 7V21C21 22.1046 20.1046 23 19 23H5C3.89543 23 3 22.1046 3 21V3C3 1.89543 3.89543 1 5 1H15Z" fill="white"/>
</mask>
<g mask="url(#mask0_331764_1784)">
<path fill-rule="evenodd" clip-rule="evenodd" d="M15 1L21 7H17C15.8954 7 15 6.10457 15 5V1Z" fill="#A5E693"/>
</g>
<g filter="url(#filter0_d_331764_1784)">
<path d="M11.415 17C11.5255 17 11.6152 17.0897 11.6152 17.2002V18.2998C11.6152 18.4103 11.5255 18.5 11.415 18.5H7.2002C7.08974 18.5 7 18.4103 7 18.2998V17.2002C7 17.0897 7.08974 17 7.2002 17H11.415ZM16.7998 17C16.9103 17 17 17.0897 17 17.2002V18.2998C17 18.4103 16.9103 18.5 16.7998 18.5H12.585C12.4745 18.5 12.3848 18.4103 12.3848 18.2998V17.2002C12.3848 17.0897 12.4745 17 12.585 17H16.7998ZM11.415 14.5C11.5255 14.5 11.6152 14.5897 11.6152 14.7002V15.7998C11.6152 15.9103 11.5255 16 11.415 16H7.2002C7.08974 16 7 15.9103 7 15.7998V14.7002C7 14.5897 7.08974 14.5 7.2002 14.5H11.415ZM16.7998 14.5C16.9103 14.5 17 14.5897 17 14.7002V15.7998C17 15.9103 16.9103 16 16.7998 16H12.585C12.4745 16 12.3848 15.9103 12.3848 15.7998V14.7002C12.3848 14.5897 12.4745 14.5 12.585 14.5H16.7998ZM11.415 12C11.5255 12 11.6152 12.0897 11.6152 12.2002V13.2998C11.6152 13.4103 11.5255 13.5 11.415 13.5H7.2002C7.08974 13.5 7 13.4103 7 13.2998V12.2002C7 12.0897 7.08974 12 7.2002 12H11.415ZM16.7998 12C16.9103 12 17 12.0897 17 12.2002V13.2998C17 13.4103 16.9103 13.5 16.7998 13.5H12.585C12.4745 13.5 12.3848 13.4103 12.3848 13.2998V12.2002C12.3848 12.0897 12.4745 12 12.585 12H16.7998Z" fill="white"/>
</g>
<defs>
<filter id="filter0_d_331764_1784" x="7" y="12" width="12" height="8.5" filterUnits="userSpaceOnUse" color-interpolation-filters="sRGB">
<feFlood flood-opacity="0" result="BackgroundImageFix"/>
<feColorMatrix in="SourceAlpha" type="matrix" values="0 0 0 0 0 0 0 0 0 0 0 0 0 0 0 0 0 0 127 0" result="hardAlpha"/>
<feOffset dx="1" dy="1"/>
<feGaussianBlur stdDeviation="0.5"/>
<feColorMatrix type="matrix" values="0 0 0 0 0.207843 0 0 0 0 0.686275 0 0 0 0 0.117647 0 0 0 0.429713 0"/>
<feBlend mode="normal" in2="BackgroundImageFix" result="effect1_dropShadow_331764_1784"/>
<feBlend mode="normal" in="SourceGraphic" in2="effect1_dropShadow_331764_1784" result="shape"/>
</filter>
</defs>
</svg>
