<svg width="24" height="24" viewBox="0 0 24 24" fill="none" xmlns="http://www.w3.org/2000/svg">
<path d="M15 1L21 7V21C21 22.1046 20.1046 23 19 23H5C3.89543 23 3 22.1046 3 21V3C3 1.89543 3.89543 1 5 1H15Z" fill="#F25788"/>
<mask id="mask0_330575_1173" style="mask-type:luminance" maskUnits="userSpaceOnUse" x="3" y="1" width="18" height="22">
<path d="M15 1L21 7V21C21 22.1046 20.1046 23 19 23H5C3.89543 23 3 22.1046 3 21V3C3 1.89543 3.89543 1 5 1H15Z" fill="white"/>
</mask>
<g mask="url(#mask0_330575_1173)">
<path fill-rule="evenodd" clip-rule="evenodd" d="M15 1L21 7H17C15.8954 7 15 6.10457 15 5V1Z" fill="#FFADC5"/>
</g>
<g filter="url(#filter0_d_330575_1173)">
<path d="M11.4648 9.00316C11.7395 9.00316 12.0208 9.13818 12.1895 9.35863C12.5516 9.84884 12.52 10.8847 12.0518 12.4104C12.4951 13.2254 13.0764 13.9611 13.7695 14.5862C14.3501 14.4759 14.937 14.3968 15.5176 14.3967C16.8287 14.4212 17.0229 15.021 16.998 15.3703C16.998 16.2957 16.0797 16.2961 15.6113 16.2961C14.8621 16.2409 14.1436 15.9709 13.5566 15.4807C12.4203 15.7258 11.3403 16.0818 10.2539 16.5168C9.39213 18.012 8.58574 18.7776 7.89258 18.7776C7.75527 18.7775 7.5869 18.7529 7.47461 18.6672C7.16867 18.5324 7 18.2321 7 17.9319C7.00003 17.6866 7.05711 17.0067 9.69141 15.8918C10.3034 14.8011 10.772 13.6853 11.1592 12.5149C10.8282 11.8592 10.1039 10.2537 10.6035 9.43871C10.7721 9.13856 11.1028 8.97263 11.4648 9.00316ZM8.83594 17.2024C8.42381 17.3617 8.0867 17.6321 7.83691 17.9875L7.91797 17.9631C8.3051 17.8283 8.61114 17.5516 8.83594 17.2024ZM11.6963 13.8205L11.6709 13.7961C11.4212 14.421 11.1467 15.0464 10.8408 15.6467L10.8965 15.6213V15.677C11.5085 15.4564 12.1712 15.2659 12.7832 15.1311L12.7578 15.1067H12.8389C12.4144 14.6901 12.0276 14.2305 11.7217 13.7649L11.6963 13.8205ZM15.499 15.2112C15.2495 15.2112 15.0249 15.2118 14.7754 15.2668C15.0499 15.4014 15.3309 15.4559 15.6055 15.4866C15.799 15.511 15.9926 15.487 16.1611 15.4319C16.1611 15.3461 16.0546 15.2112 15.499 15.2112ZM11.4463 9.81859C11.4213 9.81859 11.3652 9.81862 11.334 9.84301C11.2216 10.3087 11.3093 10.7995 11.5029 11.2346C11.6653 10.7689 11.6647 10.2782 11.5273 9.81859H11.4463Z" fill="white"/>
</g>
<defs>
<filter id="filter0_d_330575_1173" x="7" y="8.99957" width="10" height="10.778" filterUnits="userSpaceOnUse" color-interpolation-filters="sRGB">
<feFlood flood-opacity="0" result="BackgroundImageFix"/>
<feColorMatrix in="SourceAlpha" type="matrix" values="0 0 0 0 0 0 0 0 0 0 0 0 0 0 0 0 0 0 127 0" result="hardAlpha"/>
<feOffset dy="1"/>
<feColorMatrix type="matrix" values="0 0 0 0 0.6 0 0 0 0 0.0588235 0 0 0 0 0.27451 0 0 0 0.3 0"/>
<feBlend mode="normal" in2="BackgroundImageFix" result="effect1_dropShadow_330575_1173"/>
<feBlend mode="normal" in="SourceGraphic" in2="effect1_dropShadow_330575_1173" result="shape"/>
</filter>
</defs>
</svg>
