<svg width="24" height="24" viewBox="0 0 24 24" fill="none" xmlns="http://www.w3.org/2000/svg">
<path d="M15 1L21 7V21C21 22.1046 20.1046 23 19 23H5C3.89543 23 3 22.1046 3 21V3C3 1.89543 3.89543 1 5 1H15Z" fill="#528EFF"/>
<mask id="mask0_332185_497" style="mask-type:luminance" maskUnits="userSpaceOnUse" x="3" y="1" width="18" height="22">
<path d="M15 1L21 7V21C21 22.1046 20.1046 23 19 23H5C3.89543 23 3 22.1046 3 21V3C3 1.89543 3.89543 1 5 1H15Z" fill="white"/>
</mask>
<g mask="url(#mask0_332185_497)">
<path fill-rule="evenodd" clip-rule="evenodd" d="M15 1L21 7H17C15.8954 7 15 6.10457 15 5V1Z" fill="#A8CAFF"/>
</g>
<g filter="url(#filter0_d_332185_497)">
<path d="M14.642 9.36591C14.7967 9.36766 14.9445 9.43037 15.0533 9.54041C15.1621 9.65046 15.2231 9.79897 15.2231 9.95371C15.2231 10.1085 15.1621 10.257 15.0533 10.367C14.9445 10.4771 14.7967 10.5398 14.642 10.5415C14.1742 10.5415 13.7257 10.7273 13.395 11.058C13.0642 11.3888 12.8784 11.8373 12.8784 12.305V16.5376C12.8782 17.1652 12.6771 17.7763 12.3046 18.2814C11.932 18.7864 11.4076 19.159 10.808 19.3445C10.2085 19.5301 9.56524 19.5188 8.97254 19.3124C8.37984 19.1059 7.86877 18.7152 7.51415 18.1974C7.15953 17.6796 6.97998 17.0618 7.00177 16.4346C7.02357 15.8073 7.24558 15.2035 7.63529 14.7116C8.02501 14.2196 8.56196 13.8653 9.16757 13.7005C9.77317 13.5358 10.4156 13.5692 11.0009 13.7959C11.073 13.8236 11.139 13.8653 11.195 13.9186C11.251 13.9719 11.2959 14.0357 11.3273 14.1064C11.3586 14.177 11.3756 14.2532 11.3775 14.3305C11.3793 14.4078 11.3659 14.4846 11.338 14.5567C11.3101 14.6288 11.2682 14.6947 11.2148 14.7506C11.1614 14.8065 11.0975 14.8513 11.0268 14.8825C10.9561 14.9136 10.8799 14.9305 10.8026 14.9322C10.7253 14.9339 10.6485 14.9203 10.5764 14.8922C10.2294 14.7578 9.84878 14.7366 9.48899 14.8316C9.12919 14.9267 8.80868 15.1331 8.57333 15.4213C8.33797 15.7096 8.19984 16.0649 8.17869 16.4365C8.15754 16.808 8.25447 17.1767 8.45559 17.4898C8.65672 17.8029 8.95174 18.0443 9.29842 18.1796C9.64511 18.3148 10.0257 18.337 10.3857 18.2428C10.7457 18.1486 11.0667 17.9429 11.3028 17.6552C11.5388 17.3675 11.6778 17.0125 11.6998 16.641L11.7027 16.5376V12.1875C11.7029 12.1622 11.7049 12.1368 11.7086 12.1117C11.7577 11.3672 12.0881 10.6692 12.6329 10.1593C13.1776 9.64943 13.8958 9.36578 14.642 9.36591ZM16.4055 13.9511C16.4832 13.9502 16.5604 13.9647 16.6325 13.9939C16.7046 14.023 16.7702 14.0662 16.8255 14.1208C16.8807 14.1755 16.9247 14.2406 16.9546 14.3124C16.9846 14.3841 17 14.4611 17 14.5389C17 14.6166 16.9846 14.6936 16.9546 14.7654C16.9247 14.8371 16.8807 14.9022 16.8255 14.9569C16.7702 15.0116 16.7046 15.0547 16.6325 15.0839C16.5604 15.113 16.4832 15.1276 16.4055 15.1267H14.0541C13.8994 15.1249 13.7516 15.0622 13.6428 14.9522C13.534 14.8421 13.473 14.6936 13.473 14.5389C13.473 14.3841 13.534 14.2356 13.6428 14.1256C13.7516 14.0155 13.8994 13.9528 14.0541 13.9511H16.4055Z" fill="white"/>
</g>
<defs>
<filter id="filter0_d_332185_497" x="7" y="9.36591" width="11.6207" height="11.7307" filterUnits="userSpaceOnUse" color-interpolation-filters="sRGB">
<feFlood flood-opacity="0" result="BackgroundImageFix"/>
<feColorMatrix in="SourceAlpha" type="matrix" values="0 0 0 0 0 0 0 0 0 0 0 0 0 0 0 0 0 0 127 0" result="hardAlpha"/>
<feOffset dx="0.810334" dy="0.810334"/>
<feGaussianBlur stdDeviation="0.405167"/>
<feColorMatrix type="matrix" values="0 0 0 0 0.0784314 0 0 0 0 0.294118 0 0 0 0 0.8 0 0 0 0.3 0"/>
<feBlend mode="normal" in2="BackgroundImageFix" result="effect1_dropShadow_332185_497"/>
<feBlend mode="normal" in="SourceGraphic" in2="effect1_dropShadow_332185_497" result="shape"/>
</filter>
</defs>
</svg>
