<svg width="24" height="24" viewBox="0 0 24 24" fill="none" xmlns="http://www.w3.org/2000/svg">
  <path d="M15 1L21 7V21C21 22.1046 20.1046 23 19 23H5C3.89543 23 3 22.1046 3 21V3C3 1.89543 3.89543 1 5 1H15Z"
    fill="#528EFF" />
  <mask id="mask0_333885_733" style="mask-type:luminance" maskUnits="userSpaceOnUse" x="3" y="1" width="18" height="22">
    <path d="M15 1L21 7V21C21 22.1046 20.1046 23 19 23H5C3.89543 23 3 22.1046 3 21V3C3 1.89543 3.89543 1 5 1H15Z"
      fill="white" />
  </mask>
  <g mask="url(#mask0_333885_733)">
    <path fill-rule="evenodd" clip-rule="evenodd" d="M15 1L21 7H17C15.8954 7 15 6.10457 15 5V1Z" fill="#A8CAFF" />
  </g>
  <g filter="url(#filter0_d_333885_733)">
    <path
      d="M15.668 12.3508C15.668 12.4612 15.5785 12.5508 15.468 12.5508H12.9642V18.4784C12.9642 18.5888 12.8746 18.6784 12.7642 18.6784H11.2453C11.1349 18.6784 11.0453 18.5888 11.0453 18.4784V12.5508H8.53179C8.42133 12.5508 8.33179 12.4612 8.33179 12.3508V11.2002C8.33179 11.0897 8.42133 11.0002 8.53179 11.0002H15.468C15.5785 11.0002 15.668 11.0897 15.668 11.2002V12.3508Z"
      fill="white" />
  </g>
  <defs>
    <filter id="filter0_d_333885_733" x="8.33179" y="11.0002" width="9.33618" height="9.67819"
      filterUnits="userSpaceOnUse" color-interpolation-filters="sRGB">
      <feFlood flood-opacity="0" result="BackgroundImageFix" />
      <feColorMatrix in="SourceAlpha" type="matrix" values="0 0 0 0 0 0 0 0 0 0 0 0 0 0 0 0 0 0 127 0"
        result="hardAlpha" />
      <feOffset dx="1" dy="1" />
      <feGaussianBlur stdDeviation="0.5" />
      <feColorMatrix type="matrix" values="0 0 0 0 0.0784314 0 0 0 0 0.294118 0 0 0 0 0.8 0 0 0 0.3 0" />
      <feBlend mode="normal" in2="BackgroundImageFix" result="effect1_dropShadow_333885_733" />
      <feBlend mode="normal" in="SourceGraphic" in2="effect1_dropShadow_333885_733" result="shape" />
    </filter>
  </defs>
</svg>
