<svg width="24" height="24" viewBox="0 0 24 24" fill="none" xmlns="http://www.w3.org/2000/svg">
<path d="M15 1L21 7V21C21 22.1046 20.1046 23 19 23H5C3.89543 23 3 22.1046 3 21V3C3 1.89543 3.89543 1 5 1H15Z" fill="#60BB81"/>
<mask id="mask0_332200_479" style="mask-type:luminance" maskUnits="userSpaceOnUse" x="3" y="1" width="18" height="22">
<path d="M15 1L21 7V21C21 22.1046 20.1046 23 19 23H5C3.89543 23 3 22.1046 3 21V3C3 1.89543 3.89543 1 5 1H15Z" fill="white"/>
</mask>
<g mask="url(#mask0_332200_479)">
<path fill-rule="evenodd" clip-rule="evenodd" d="M15 1L21 7H17C15.8954 7 15 6.10457 15 5V1Z" fill="#A8E0BC"/>
</g>
<g filter="url(#filter0_d_332200_479)">
<path d="M10.4435 18.0422C10.5033 18.0422 10.5589 18.0114 10.5906 17.9606L11.8325 15.9736C11.9005 15.8648 12.0588 15.8648 12.1267 15.9736L13.3687 17.9606C13.4004 18.0114 13.456 18.0422 13.5158 18.0422H15.0266C15.1629 18.0422 15.246 17.8923 15.1737 17.7768L12.9971 14.2941C12.9619 14.2379 12.9619 14.1665 12.9971 14.1102L15.1737 10.6276C15.246 10.5121 15.1629 10.3622 15.0266 10.3622H13.5158C13.456 10.3622 13.4004 10.393 13.3687 10.4437L12.1267 12.4308C12.0588 12.5395 11.9005 12.5395 11.8325 12.4308L10.5906 10.4437C10.5589 10.393 10.5033 10.3622 10.4435 10.3622H8.93263C8.79637 10.3622 8.7133 10.5121 8.78552 10.6276L10.9622 14.1102C10.9973 14.1665 10.9973 14.2379 10.9622 14.2941L8.78552 17.7768C8.7133 17.8923 8.79637 18.0422 8.93263 18.0422H10.4435Z" fill="white"/>
</g>
<defs>
<filter id="filter0_d_332200_479" x="8.75879" y="10.3622" width="8.44165" height="9.67999" filterUnits="userSpaceOnUse" color-interpolation-filters="sRGB">
<feFlood flood-opacity="0" result="BackgroundImageFix"/>
<feColorMatrix in="SourceAlpha" type="matrix" values="0 0 0 0 0 0 0 0 0 0 0 0 0 0 0 0 0 0 127 0" result="hardAlpha"/>
<feOffset dx="1" dy="1"/>
<feGaussianBlur stdDeviation="0.5"/>
<feColorMatrix type="matrix" values="0 0 0 0 0.2 0 0 0 0 0.439216 0 0 0 0 0.254902 0 0 0 0.3 0"/>
<feBlend mode="normal" in2="BackgroundImageFix" result="effect1_dropShadow_332200_479"/>
<feBlend mode="normal" in="SourceGraphic" in2="effect1_dropShadow_332200_479" result="shape"/>
</filter>
</defs>
</svg>
