<svg width="48" height="48" viewBox="0 0 48 48" fill="none" xmlns="http://www.w3.org/2000/svg">
<path d="M24 2.15039C29.1138 2.15039 33.8204 2.838 37.3125 4.00195C39.0489 4.58076 40.5879 5.31148 41.7305 6.21191C42.8521 7.09591 43.8496 8.36184 43.8496 10V40H43.7188C43.4146 41.162 42.612 42.0933 41.7305 42.7881C40.5879 43.6885 39.0489 44.4192 37.3125 44.998C33.8204 46.162 29.1138 46.8496 24 46.8496C18.8862 46.8496 14.1796 46.162 10.6875 44.998C8.95109 44.4192 7.41209 43.6885 6.26953 42.7881C5.38795 42.0933 4.58541 41.162 4.28125 40H4.15039V10C4.15039 8.36184 5.14789 7.09591 6.26953 6.21191C7.41209 5.31148 8.95109 4.58076 10.6875 4.00195C14.1796 2.838 18.8862 2.15039 24 2.15039ZM40.1504 28.8018C39.301 29.2555 38.3422 29.6548 37.3125 29.998C33.8204 31.162 29.1138 31.8496 24 31.8496C18.8862 31.8496 14.1796 31.162 10.6875 29.998C9.65781 29.6548 8.69895 29.2555 7.84961 28.8018V39C7.84961 39.0186 7.85957 39.3312 8.55957 39.8828C9.23872 40.418 10.3366 40.9804 11.8574 41.4873C14.88 42.4948 19.1731 43.1504 24 43.1504C28.8269 43.1504 33.12 42.4948 36.1426 41.4873C37.6634 40.9804 38.7613 40.418 39.4404 39.8828C40.1404 39.3312 40.1504 39.0186 40.1504 39V28.8018ZM14.0098 35C15.1198 35 16.0194 35.8998 16.0195 37.0098C16.0195 38.1199 15.1199 39.0205 14.0098 39.0205C12.8998 39.0204 12 38.1198 12 37.0098C12.0001 35.8999 12.8999 35.0001 14.0098 35ZM40.1504 15.8018C39.301 16.2555 38.3422 16.6548 37.3125 16.998C33.8204 18.162 29.1138 18.8496 24 18.8496C18.8862 18.8496 14.1796 18.162 10.6875 16.998C9.65781 16.6548 8.69895 16.2555 7.84961 15.8018V24C7.84961 24.0186 7.85957 24.3312 8.55957 24.8828C9.23872 25.418 10.3366 25.9804 11.8574 26.4873C14.88 27.4948 19.1731 28.1504 24 28.1504C28.8269 28.1504 33.12 27.4948 36.1426 26.4873C37.6634 25.9804 38.7613 25.418 39.4404 24.8828C40.1404 24.3312 40.1504 24.0186 40.1504 24V15.8018ZM14.0098 20C15.1198 20 16.0194 20.8998 16.0195 22.0098C16.0195 23.1199 15.1199 24.0195 14.0098 24.0195C12.8998 24.0194 12 23.1198 12 22.0098C12.0001 20.8999 12.8999 20.0001 14.0098 20ZM24 5.84961C19.1731 5.84961 14.88 6.50522 11.8574 7.5127C10.3366 8.01964 9.23872 8.58199 8.55957 9.11719C7.85957 9.66885 7.84961 9.98137 7.84961 10V11C7.84961 11.0186 7.85957 11.3312 8.55957 11.8828C9.23872 12.418 10.3366 12.9804 11.8574 13.4873C14.88 14.4948 19.1731 15.1504 24 15.1504C28.8269 15.1504 33.12 14.4948 36.1426 13.4873C37.6634 12.9804 38.7613 12.418 39.4404 11.8828C40.1404 11.3312 40.1504 11.0186 40.1504 11V10C40.1504 9.98137 40.1404 9.66885 39.4404 9.11719C38.7613 8.58199 37.6634 8.01964 36.1426 7.5127C33.12 6.50522 28.8269 5.84961 24 5.84961Z" fill="#334155"/>
</svg>
