<svg width="124" height="124" viewBox="0 0 124 124" fill="none" xmlns="http://www.w3.org/2000/svg">
<g clip-path="url(#clip0_329797_2477)">
<mask id="mask0_329797_2477" style="mask-type:luminance" maskUnits="userSpaceOnUse" x="0" y="0" width="124" height="124">
<path d="M124 0H0V124H124V0Z" fill="white"/>
</mask>
<g mask="url(#mask0_329797_2477)">
<path d="M99.8352 59.9934C99.8352 70.3301 95.6693 79.6484 88.9881 86.3493C88.978 86.3595 88.9683 86.3692 88.9582 86.3794C82.4134 92.9995 73.3559 97 63.3611 97C53.4421 97 44.3849 92.927 37.7683 86.3798C37.7577 86.3694 37.7476 86.3592 37.737 86.3487C31.0563 79.6478 26.8906 70.3298 26.8906 59.9934C26.8906 39.5232 43.2196 22.9868 63.3611 22.9868C83.5062 22.9868 99.8352 39.5961 99.8352 59.9934Z" fill="url(#paint0_linear_329797_2477)"/>
<path d="M58.3042 26.7828L55.5988 36.4461L62.0743 40.991L61.6189 52.0945L69.7928 36.9028L65.9961 33.8309L70.338 26.7828H75.2123L89.9587 43.0278L90.5342 89.9417C90.5342 91.5445 89.2394 92.7828 87.6569 92.7828H42.4824C40.8998 92.7828 39.605 91.4715 39.605 89.9417V29.6239C39.605 28.0213 40.8998 26.7828 42.4824 26.7828H58.3042Z" fill="white"/>
<path fill-rule="evenodd" clip-rule="evenodd" d="M90.0385 92.3208C90.7023 91.6718 91.0342 90.8787 91.0342 89.9417V89.9356L90.4587 43.0217L90.329 42.6918L75.5825 26.4468L75.2123 26.2828H70.338L69.9123 26.5206L65.5704 33.5686L65.6816 34.2196L69.1561 37.0308L62.2075 49.9453L62.5739 41.0115L62.3615 40.5818L56.1757 36.2401L58.7857 26.9177L58.3042 26.2828H42.4824C41.5505 26.2828 40.7566 26.6035 40.1007 27.2449C39.4369 27.8939 39.105 28.6869 39.105 29.6239V89.9417C39.105 90.8489 39.4358 91.6318 40.0975 92.2904C40.7623 92.952 41.5573 93.2828 42.4824 93.2828H87.6569C88.5887 93.2828 89.3826 92.9622 90.0385 92.3208ZM90.0342 89.9417L89.4611 43.2235L74.9909 27.2828H70.6173L66.6524 33.7188L70.1073 36.5141L70.2331 37.1397L62.0592 52.3314L61.1194 52.074L61.5635 41.2435L55.3115 36.8553L55.1173 36.3113L57.645 27.2828H42.4824C41.8223 27.2828 41.2614 27.5085 40.7998 27.9599C40.3366 28.4128 40.105 28.9675 40.105 29.6239V89.9417C40.105 90.5719 40.3376 91.1185 40.8029 91.5816C41.2727 92.0491 41.8325 92.2828 42.4824 92.2828H87.6569C88.317 92.2828 88.8778 92.0572 89.3394 91.6058C89.8019 91.1536 90.0335 90.6 90.0342 89.9449V89.9417Z" fill="#1E293B"/>
<path d="M44.1176 33.9469V35.7301H52.1471V33.9469H44.1176Z" fill="white"/>
<path fill-rule="evenodd" clip-rule="evenodd" d="M43.6176 33.4469H52.6471V36.2301H43.6176V33.4469ZM44.1176 35.7301V33.9469H52.1471V35.7301H44.1176Z" fill="#1E293B"/>
<path d="M44.1176 40.188V41.9712H49.4706V40.188H44.1176Z" fill="white"/>
<path fill-rule="evenodd" clip-rule="evenodd" d="M43.6176 39.688H49.9706V42.4712H43.6176V39.688ZM44.1176 41.9712V40.188H49.4706V41.9712H44.1176Z" fill="#1E293B"/>
<path d="M96.67 35.7351C98.2957 35.7351 99.6193 34.3976 99.6193 32.7483C99.6193 31.0983 98.2957 29.7616 96.67 29.7616C95.0371 29.7616 93.7207 31.0983 93.7207 32.7483C93.7207 34.3976 95.0371 35.7351 96.67 35.7351Z" fill="#438DFB"/>
<path d="M30.0557 33.6227C30.0557 33.6895 30.0524 33.7561 30.046 33.8226C30.0395 33.8891 30.0298 33.9551 30.017 34.0206C30.0041 34.0861 29.9881 34.1509 29.9689 34.2148C29.9498 34.2787 29.9276 34.3415 29.9023 34.4033C29.8771 34.465 29.8489 34.5253 29.8178 34.5842C29.7867 34.6431 29.7529 34.7004 29.7162 34.7559C29.6796 34.8114 29.6403 34.865 29.5985 34.9167C29.5566 34.9683 29.5124 35.0178 29.4657 35.065C29.4191 35.1122 29.3703 35.157 29.3193 35.1994C29.2683 35.2418 29.2154 35.2815 29.1605 35.3187C29.1057 35.3558 29.0491 35.3901 28.991 35.4216C28.9328 35.4531 28.8732 35.4816 28.8123 35.5071C28.7513 35.5327 28.6893 35.5552 28.6262 35.5746C28.5631 35.594 28.4991 35.6102 28.4344 35.6232C28.3697 35.6363 28.3046 35.646 28.2389 35.6526C28.1733 35.6591 28.1075 35.6624 28.0415 35.6624C27.9755 35.6624 27.9097 35.6591 27.8441 35.6526C27.7784 35.646 27.7133 35.6363 27.6486 35.6232C27.5839 35.6102 27.52 35.594 27.4568 35.5746C27.3937 35.5552 27.3317 35.5327 27.2707 35.5071C27.2098 35.4816 27.1502 35.4531 27.092 35.4216C27.0339 35.3901 26.9774 35.3558 26.9225 35.3187C26.8677 35.2815 26.8147 35.2418 26.7637 35.1994C26.7128 35.157 26.6639 35.1122 26.6173 35.065C26.5706 35.0178 26.5264 34.9683 26.4846 34.9167C26.4427 34.865 26.4035 34.8114 26.3668 34.7559C26.3302 34.7004 26.2963 34.6431 26.2652 34.5842C26.2341 34.5253 26.2059 34.465 26.1807 34.4033C26.1554 34.3415 26.1332 34.2787 26.1141 34.2148C26.0949 34.1509 26.0789 34.0861 26.0661 34.0206C26.0532 33.9551 26.0435 33.8891 26.0371 33.8226C26.0306 33.7561 26.0274 33.6895 26.0274 33.6227C26.0274 33.5559 26.0306 33.4892 26.0371 33.4228C26.0435 33.3563 26.0532 33.2903 26.0661 33.2247C26.0789 33.1592 26.0949 33.0945 26.1141 33.0306C26.1332 32.9667 26.1554 32.9038 26.1807 32.8421C26.2059 32.7804 26.2341 32.7201 26.2652 32.6612C26.2963 32.6022 26.3302 32.545 26.3668 32.4895C26.4035 32.4339 26.4427 32.3803 26.4846 32.3287C26.5264 32.277 26.5706 32.2276 26.6173 32.1804C26.6639 32.1331 26.7128 32.0883 26.7637 32.0459C26.8147 32.0036 26.8677 31.9638 26.9225 31.9267C26.9774 31.8896 27.0339 31.8553 27.092 31.8238C27.1502 31.7923 27.2098 31.7638 27.2707 31.7382C27.3317 31.7126 27.3937 31.6902 27.4568 31.6708C27.52 31.6514 27.5839 31.6352 27.6486 31.6221C27.7133 31.6091 27.7784 31.5993 27.8441 31.5928C27.9097 31.5862 27.9755 31.5829 28.0415 31.5829C28.1075 31.5829 28.1733 31.5862 28.2389 31.5928C28.3046 31.5993 28.3697 31.6091 28.4344 31.6221C28.4991 31.6352 28.5631 31.6514 28.6262 31.6708C28.6893 31.6902 28.7513 31.7126 28.8123 31.7382C28.8732 31.7638 28.9328 31.7923 28.991 31.8238C29.0491 31.8553 29.1057 31.8896 29.1605 31.9267C29.2154 31.9638 29.2683 32.0036 29.3193 32.0459C29.3703 32.0883 29.4191 32.1331 29.4657 32.1804C29.5124 32.2276 29.5566 32.277 29.5985 32.3287C29.6403 32.3803 29.6796 32.4339 29.7162 32.4895C29.7529 32.545 29.7867 32.6022 29.8178 32.6612C29.8489 32.7201 29.8771 32.7804 29.9023 32.8421C29.9276 32.9038 29.9498 32.9667 29.9689 33.0306C29.9881 33.0945 30.0041 33.1592 30.017 33.2247C30.0298 33.2903 30.0395 33.3563 30.046 33.4228C30.0524 33.4892 30.0557 33.5559 30.0557 33.6227Z" fill="#438DFB"/>
<path d="M74.6006 26.7828V39.7497C74.6006 41.5709 76.1831 43.0278 77.9815 43.0278H89.3471" fill="#438DFB"/>
<path d="M54.1431 76.6825C53.8409 76.6825 53.5992 76.5601 53.3568 76.3766C52.9338 75.9482 52.9338 75.2139 53.3568 74.7856C56.1371 72.0312 59.8237 70.5014 63.752 70.5014C67.6796 70.5014 71.3662 72.0312 74.1429 74.7856C74.5673 75.2139 74.5673 75.9482 74.1429 76.3766C73.7256 76.8049 72.9991 76.8049 72.5747 76.3766C70.2181 73.9894 67.0753 72.7043 63.752 72.7043C60.4279 72.7043 57.2851 73.9894 54.9286 76.3766C54.6869 76.5601 54.4452 76.6825 54.1431 76.6825Z" fill="white"/>
<path fill-rule="evenodd" clip-rule="evenodd" d="M52.7531 77.1738C53.201 77.5129 53.6643 77.6825 54.1431 77.6825C54.6226 77.6825 55.0861 77.5127 55.5334 77.1729L55.5902 77.1298L55.6402 77.0791C56.7191 75.9862 57.9591 75.1495 59.3602 74.5691C60.7518 73.9926 62.2158 73.7043 63.752 73.7043C65.2878 73.7043 66.7515 73.9926 68.1431 74.5691C69.5442 75.1496 70.7846 75.9867 71.8643 77.0804C72.2721 77.492 72.7712 77.6978 73.3615 77.6978C73.9551 77.6978 74.4523 77.492 74.8532 77.0804C75.2585 76.6714 75.4612 76.1716 75.4612 75.5811C75.4612 74.9906 75.2565 74.4888 74.8471 74.0756C73.3633 72.6037 71.6678 71.474 69.7608 70.6863C67.848 69.8964 65.8451 69.5014 63.752 69.5014C61.6587 69.5014 59.6555 69.8964 57.7422 70.6863C55.8351 71.4737 54.1361 72.6059 52.6453 74.0829C52.2415 74.4919 52.0396 74.9912 52.0396 75.5811C52.0396 76.1709 52.2415 76.6703 52.6453 77.0792L52.6958 77.1304L52.7531 77.1738ZM53.3568 76.3766C53.5992 76.5601 53.8409 76.6825 54.1431 76.6825C54.4452 76.6825 54.6869 76.5601 54.9286 76.3766C57.2851 73.9894 60.4279 72.7043 63.752 72.7043C67.0753 72.7043 70.2181 73.9894 72.5747 76.3766C72.9991 76.8049 73.7256 76.8049 74.1429 76.3766C74.5673 75.9482 74.5673 75.2139 74.1429 74.7856C71.3662 72.0312 67.6796 70.5014 63.752 70.5014C59.8237 70.5014 56.137 72.0312 53.3568 74.7856C52.9338 75.2139 52.9338 75.9482 53.3568 76.3766Z" fill="#1E293B"/>
<path d="M57.3453 63.0497L59.1447 61.2514C59.6693 60.7271 59.6693 59.8284 59.1447 59.3042C58.6202 58.7799 57.7209 58.7799 57.1954 59.3042L55.3968 61.1016L53.5982 59.3042C53.0736 58.7799 52.1743 58.7799 51.6488 59.3042C51.1243 59.8284 51.1243 60.7271 51.6488 61.2514L53.4483 63.0497L51.6488 64.8471C51.1243 65.3714 51.1243 66.2701 51.6488 66.7943C51.9495 67.0939 52.2493 67.1688 52.624 67.1688C52.9987 67.1688 53.2984 67.019 53.5982 66.7943L55.3968 64.9969L57.1954 66.7943C57.4951 67.0939 57.7958 67.1688 58.1705 67.1688C58.5452 67.1688 58.845 67.019 59.1447 66.7943C59.6693 66.2701 59.6693 65.3714 59.1447 64.8471L57.3453 63.0497Z" fill="white"/>
<path fill-rule="evenodd" clip-rule="evenodd" d="M59.8516 64.1398C60.3093 64.5972 60.5382 65.1575 60.5382 65.8207C60.5382 66.484 60.3093 67.0443 59.8516 67.5017L59.8014 67.5519L59.7445 67.5945C59.2337 67.9774 58.709 68.1688 58.1705 68.1688C57.4942 68.1688 56.9335 67.9464 56.4885 67.5017L55.3968 66.4107L54.2548 67.5519L54.198 67.5945C53.6872 67.9774 53.1625 68.1688 52.624 68.1688C51.949 68.1688 51.3883 67.9464 50.942 67.5017C50.4843 67.0443 50.2554 66.484 50.2554 65.8207C50.2554 65.1575 50.4843 64.5972 50.9421 64.1396L52.0335 63.0495L50.942 61.9587C50.4843 61.5013 50.2554 60.941 50.2554 60.2778C50.2554 59.6146 50.4845 59.054 50.9426 58.5962C51.4005 58.1394 51.9609 57.911 52.6239 57.911C53.2871 57.911 53.8476 58.1396 54.3051 58.5968L55.3968 59.6878L56.4891 58.5962C56.947 58.1394 57.5074 57.911 58.1704 57.911C58.8337 57.911 59.3941 58.1396 59.8516 58.5968C60.3093 59.0542 60.5382 59.6146 60.5382 60.2778C60.5382 60.941 60.3093 61.5013 59.8516 61.9587L58.7601 63.0495L59.8516 64.1398ZM57.1954 66.7943L55.3968 64.9969L53.5982 66.7943C53.2984 67.019 52.9987 67.1688 52.624 67.1688C52.2493 67.1688 51.9495 67.0939 51.6488 66.7943C51.1243 66.2701 51.1243 65.3714 51.6488 64.8471L52.7408 63.7564L53.4482 63.0498L52.741 62.3428L51.6488 61.2514C51.1243 60.7271 51.1243 59.8284 51.6488 59.3042C52.1743 58.7799 53.0736 58.7799 53.5982 59.3042L55.3968 61.1016L57.1954 59.3042C57.7209 58.7799 58.6202 58.7799 59.1447 59.3042C59.6693 59.8284 59.6693 60.7271 59.1447 61.2514L58.0526 62.3428L57.3453 63.0497L58.0528 63.7564L59.1447 64.8471C59.6693 65.3714 59.6693 66.2701 59.1447 66.7943C58.845 67.019 58.5452 67.1688 58.1705 67.1688C57.7958 67.1688 57.4951 67.0939 57.1954 66.7943Z" fill="#1E293B"/>
<path d="M74.7611 63.3795L76.7024 61.4379C77.2694 60.8718 77.2694 59.9015 76.7024 59.3355C76.1354 58.7695 75.1648 58.7695 74.6074 59.3355L72.6661 61.2761L70.7287 59.3355C70.1636 58.7695 69.1949 58.7695 68.6299 59.3355C68.0648 59.9015 68.0648 60.8718 68.6299 61.4379L70.5673 63.3795L68.6299 65.3201C68.0648 65.8862 68.0648 66.8565 68.6299 67.4225C68.9528 67.7459 69.2757 67.8268 69.6793 67.8268C70.0829 67.8268 70.4058 67.6651 70.7287 67.4225L72.6661 65.4818L74.6074 67.4225C74.9245 67.7459 75.2512 67.8268 75.6549 67.8268C76.0585 67.8268 76.3756 67.6651 76.7024 67.4225C77.2694 66.8565 77.2694 65.8862 76.7024 65.3201L74.7611 63.3795Z" fill="white"/>
<path fill-rule="evenodd" clip-rule="evenodd" d="M76.1754 63.3793L77.4095 62.1449C77.8883 61.667 78.1276 61.0809 78.1276 60.3867C78.1276 59.6924 77.888 59.1061 77.4089 58.6278C76.9302 58.1499 76.3443 57.911 75.6513 57.911C74.9549 57.911 74.3694 58.1519 73.8948 58.6338L72.6668 59.8615L71.4364 58.629C70.9585 58.1503 70.3728 57.911 69.6793 57.911C68.9857 57.911 68.4 58.1503 67.9222 58.629C67.4448 59.1072 67.2061 59.6931 67.2061 60.3867C67.2061 61.0803 67.4448 61.6662 67.9222 62.1444L69.1544 63.3793L67.9222 64.6136C67.4448 65.0918 67.2061 65.6777 67.2061 66.3713C67.2061 67.0649 67.4448 67.6508 67.9222 68.129C68.3866 68.5942 68.9723 68.8268 69.6793 68.8268C70.2426 68.8268 70.7927 68.6252 71.3294 68.222L71.3862 68.1793L72.6668 66.8965L73.9004 68.1297C74.356 68.5944 74.9408 68.8268 75.6549 68.8268C76.2106 68.8268 76.7584 68.6263 77.2985 68.2254L77.3572 68.1818L77.4089 68.1302C77.888 67.6519 78.1276 67.0656 78.1276 66.3713C78.1276 65.6771 77.888 65.0908 77.4089 64.6124L76.1754 63.3793ZM72.6661 61.2761L73.3733 60.5691L74.6074 59.3355C75.1648 58.7695 76.1354 58.7695 76.7024 59.3355C77.2694 59.9015 77.2694 60.8718 76.7024 61.4379L75.4682 62.6723L74.7611 63.3795L75.4683 64.0865L76.7024 65.3201C77.2694 65.8862 77.2694 66.8565 76.7024 67.4225C76.3756 67.6651 76.0585 67.8268 75.6549 67.8268C75.2512 67.8268 74.9245 67.7459 74.6074 67.4225L73.3733 66.1888L72.6661 65.4818L71.9596 66.1895L70.7287 67.4225C70.4058 67.6651 70.0829 67.8268 69.6793 67.8268C69.2757 67.8268 68.9528 67.7459 68.6299 67.4225C68.0648 66.8565 68.0648 65.8862 68.6299 65.3201L70.5673 63.3795L68.6299 61.4379C68.0648 60.8718 68.0648 59.9015 68.6299 59.3355C69.1949 58.7695 70.1636 58.7695 70.7287 59.3355L71.9596 60.5684L72.6661 61.2761Z" fill="#1E293B"/>
<path d="M75.75 78C70.9175 82.9706 70.9175 91.0294 75.75 96C80.5825 100.971 88.4175 100.971 93.25 96C98.0825 91.0294 98.0825 82.9706 93.25 78C88.4175 73.0294 80.5825 73.0294 75.75 78Z" fill="url(#paint1_radial_329797_2477)"/>
<path d="M75.75 96C75.6068 95.8527 75.4672 95.7019 75.3312 95.5476C75.1952 95.3932 75.063 95.2355 74.9346 95.0745C74.8061 94.9135 74.6815 94.7493 74.5609 94.582C74.4402 94.4147 74.3236 94.2445 74.2111 94.0713C74.0986 93.8981 73.9903 93.7221 73.8862 93.5434C73.7821 93.3648 73.6823 93.1836 73.5868 92.9999C73.4914 92.8162 73.4003 92.6302 73.3137 92.4418C73.2271 92.2536 73.1451 92.0632 73.0676 91.8708C72.9901 91.6783 72.9172 91.484 72.8491 91.2879C72.7808 91.0918 72.7173 90.8941 72.6585 90.6947C72.5998 90.4954 72.5457 90.2947 72.4965 90.0926C72.4473 89.8906 72.403 89.6874 72.3635 89.4831C72.324 89.2788 72.2893 89.0736 72.2596 88.8676C72.2299 88.6616 72.2051 88.4549 72.1853 88.2476C72.1654 88.0403 72.1505 87.8326 72.1405 87.6245C72.1306 87.4165 72.1256 87.2083 72.1256 87C72.1256 86.7917 72.1306 86.5835 72.1405 86.3755C72.1505 86.1674 72.1654 85.9597 72.1853 85.7524C72.2051 85.5451 72.2299 85.3384 72.2596 85.1324C72.2893 84.9263 72.324 84.7212 72.3635 84.5169C72.403 84.3126 72.4473 84.1094 72.4965 83.9074C72.5457 83.7053 72.5997 83.5046 72.6585 83.3052C72.7173 83.1059 72.7808 82.9082 72.8491 82.7121C72.9172 82.516 72.9901 82.3217 73.0676 82.1292C73.1451 81.9368 73.2272 81.7464 73.3137 81.5581C73.4003 81.3698 73.4914 81.1838 73.5868 81.0001C73.6823 80.8164 73.7821 80.6352 73.8862 80.4566C73.9903 80.2779 74.0986 80.1019 74.2111 79.9287C74.3237 79.7555 74.4402 79.5853 74.5609 79.418C74.6815 79.2507 74.8061 79.0865 74.9346 78.9255C75.063 78.7645 75.1952 78.6068 75.3312 78.4524C75.4672 78.2981 75.6068 78.1473 75.75 78C75.8932 77.8527 76.0399 77.7091 76.1899 77.5692C76.34 77.4294 76.4933 77.2933 76.6499 77.1612C76.8064 77.0291 76.966 76.901 77.1286 76.7769C77.2913 76.6528 77.4568 76.5329 77.6252 76.4171C77.7936 76.3014 77.9646 76.19 78.1383 76.0829C78.312 75.9758 78.4882 75.8732 78.6668 75.775C78.8454 75.6768 79.0263 75.5832 79.2093 75.4941C79.3924 75.405 79.5775 75.3206 79.7646 75.2409C79.9516 75.1612 80.1405 75.0863 80.3312 75.0161C80.5219 74.9459 80.7141 74.8806 80.908 74.8201C81.1018 74.7597 81.2969 74.7042 81.4933 74.6535C81.6898 74.6029 81.8873 74.5573 82.0859 74.5167C82.2846 74.476 82.484 74.4404 82.6843 74.4098C82.8846 74.3793 83.0856 74.3538 83.2871 74.3334C83.4887 74.313 83.6906 74.2976 83.8929 74.2874C84.0951 74.2772 84.2975 74.272 84.5 74.2721C84.7025 74.2721 84.9049 74.2772 85.1072 74.2874C85.3095 74.2976 85.5114 74.313 85.713 74.3334C85.9145 74.3538 86.1154 74.3793 86.3158 74.4099C86.5161 74.4404 86.7156 74.476 86.9142 74.5167C87.1128 74.5573 87.3103 74.6029 87.5068 74.6535C87.7032 74.7041 87.8983 74.7597 88.0922 74.8202C88.2859 74.8806 88.4782 74.9459 88.6689 75.0161C88.8595 75.0863 89.0484 75.1612 89.2355 75.2409C89.4226 75.3206 89.6077 75.405 89.7907 75.4941C89.9738 75.5832 90.1547 75.6768 90.3332 75.7749C90.5119 75.8731 90.688 75.9758 90.8617 76.0829C91.0354 76.19 91.2065 76.3014 91.3749 76.4171C91.5433 76.5329 91.7088 76.6528 91.8714 76.7768C92.0341 76.9009 92.1937 77.029 92.3503 77.1612C92.5068 77.2933 92.6601 77.4293 92.8102 77.5692C92.9602 77.7091 93.1068 77.8527 93.25 78C93.3933 78.1473 93.5329 78.2981 93.6688 78.4524C93.8048 78.6068 93.9371 78.7645 94.0656 78.9255C94.194 79.0865 94.3186 79.2507 94.4392 79.418C94.5598 79.5853 94.6764 79.7555 94.789 79.9288C94.9015 80.1019 95.0098 80.2779 95.1139 80.4565C95.218 80.6352 95.3178 80.8164 95.4133 81.0001C95.5087 81.1838 95.5997 81.3698 95.6863 81.5581C95.7729 81.7464 95.855 81.9368 95.9325 82.1292C96.01 82.3217 96.0828 82.516 96.151 82.7121C96.2193 82.9082 96.2828 83.1059 96.3416 83.3053C96.4004 83.5046 96.4543 83.7053 96.5036 83.9074C96.5528 84.1094 96.5971 84.3126 96.6366 84.5169C96.6761 84.7212 96.7108 84.9264 96.7405 85.1324C96.7702 85.3385 96.795 85.5451 96.8148 85.7524C96.8347 85.9597 96.8496 86.1674 96.8595 86.3755C96.8694 86.5835 96.8744 86.7917 96.8744 87C96.8744 87.2083 96.8694 87.4165 96.8595 87.6245C96.8496 87.8326 96.8347 88.0402 96.8148 88.2476C96.795 88.4548 96.7702 88.6615 96.7405 88.8676C96.7108 89.0736 96.6761 89.2788 96.6366 89.4831C96.5971 89.6874 96.5528 89.8906 96.5036 90.0926C96.4544 90.2947 96.4004 90.4954 96.3416 90.6947C96.2828 90.8941 96.2193 91.0918 96.1511 91.2879C96.0828 91.484 96.01 91.6783 95.9325 91.8708C95.855 92.0632 95.7729 92.2536 95.6863 92.4419C95.5997 92.6302 95.5087 92.8162 95.4133 92.9999C95.3178 93.1836 95.218 93.3648 95.1139 93.5435C95.0098 93.7221 94.9015 93.898 94.789 94.0712C94.6764 94.2445 94.5598 94.4147 94.4392 94.582C94.3186 94.7493 94.194 94.9135 94.0656 95.0745C93.9371 95.2355 93.8048 95.3932 93.6688 95.5476C93.5329 95.7019 93.3933 95.8527 93.25 96C93.1068 96.1473 92.9602 96.2909 92.8102 96.4308C92.6601 96.5707 92.5068 96.7067 92.3503 96.8388C92.1937 96.9709 92.0341 97.0991 91.8714 97.2232C91.7088 97.3472 91.5433 97.4671 91.3749 97.5828C91.2065 97.6986 91.0354 97.81 90.8617 97.9171C90.688 98.0242 90.5119 98.1268 90.3332 98.2251C90.1547 98.3232 89.9738 98.4168 89.7907 98.5059C89.6077 98.595 89.4226 98.6794 89.2355 98.7591C89.0484 98.8388 88.8595 98.9137 88.6689 98.9839C88.4782 99.0541 88.2859 99.1194 88.0922 99.1798C87.8983 99.2403 87.7032 99.2959 87.5068 99.3465C87.3103 99.3971 87.1128 99.4427 86.9142 99.4833C86.7156 99.524 86.5161 99.5596 86.3158 99.5901C86.1154 99.6207 85.9145 99.6462 85.713 99.6666C85.5114 99.687 85.3095 99.7024 85.1072 99.7126C84.9049 99.7228 84.7025 99.7279 84.5 99.7279C84.2975 99.7279 84.0951 99.7228 83.8928 99.7126C83.6906 99.7024 83.4887 99.687 83.2871 99.6666C83.0856 99.6462 82.8847 99.6207 82.6843 99.5902C82.484 99.5596 82.2846 99.524 82.0859 99.4833C81.8873 99.4427 81.6898 99.3971 81.4933 99.3465C81.2968 99.2959 81.1017 99.2403 80.908 99.1799C80.7141 99.1194 80.5219 99.0541 80.3312 98.9839C80.1405 98.9137 79.9516 98.8388 79.7646 98.7591C79.5775 98.6793 79.3924 98.595 79.2093 98.5059C79.0263 98.4168 78.8454 98.3232 78.6668 98.225C78.4882 98.1268 78.3121 98.0242 78.1383 97.9171C77.9646 97.81 77.7936 97.6986 77.6252 97.5829C77.4568 97.4671 77.2913 97.3472 77.1286 97.2231C76.966 97.099 76.8064 96.9709 76.6499 96.8388C76.4933 96.7066 76.34 96.5706 76.1899 96.4308C76.0399 96.2909 75.8932 96.1473 75.75 96ZM76.4471 95.283C76.5789 95.4186 76.7138 95.5507 76.852 95.6795C76.9901 95.8082 77.1311 95.9333 77.2751 96.055C77.4193 96.1766 77.5662 96.2945 77.7159 96.4087C77.8656 96.5229 78.0179 96.6332 78.1729 96.7398C78.3279 96.8463 78.4853 96.9488 78.6451 97.0474C78.805 97.146 78.9671 97.2404 79.1315 97.3307C79.2959 97.4211 79.4623 97.5073 79.6308 97.5893C79.7993 97.6712 79.9696 97.7489 80.1418 97.8223C80.314 97.8956 80.4879 97.9646 80.6634 98.0292C80.8388 98.0938 81.0157 98.1539 81.1941 98.2095C81.3725 98.2652 81.5521 98.3163 81.7329 98.3629C81.9136 98.4095 82.0955 98.4514 82.2783 98.4888C82.4611 98.5262 82.6446 98.559 82.829 98.5872C83.0134 98.6153 83.1983 98.6387 83.3838 98.6575C83.5692 98.6763 83.7551 98.6904 83.9413 98.6998C84.1274 98.7092 84.3136 98.7139 84.5 98.714C84.6864 98.7139 84.8727 98.7092 85.0588 98.6998C85.245 98.6904 85.4308 98.6763 85.6163 98.6575C85.8018 98.6387 85.9867 98.6153 86.1711 98.5871C86.3554 98.559 86.539 98.5263 86.7218 98.4889C86.9046 98.4514 87.0865 98.4094 87.2672 98.3629C87.448 98.3163 87.6276 98.2652 87.806 98.2095C87.9843 98.1539 88.1612 98.0938 88.3367 98.0292C88.5122 97.9646 88.6861 97.8956 88.8582 97.8223C89.0304 97.7489 89.2008 97.6712 89.3692 97.5893C89.5377 97.5073 89.7042 97.4212 89.8685 97.3308C90.0329 97.2404 90.195 97.1459 90.3549 97.0474C90.5148 96.9488 90.6722 96.8463 90.8272 96.7397C90.9822 96.6333 91.1345 96.5229 91.2842 96.4087C91.4339 96.2945 91.5808 96.1766 91.7249 96.055C91.8689 95.9334 92.01 95.8082 92.1481 95.6794C92.2862 95.5507 92.4212 95.4186 92.5529 95.283C92.6847 95.1474 92.8132 95.0086 92.9384 94.8666C93.0636 94.7245 93.1852 94.5794 93.3035 94.4313C93.4217 94.283 93.5364 94.1319 93.6474 93.978C93.7584 93.824 93.8657 93.6673 93.9693 93.5079C94.0728 93.3485 94.1725 93.1866 94.2683 93.0222C94.3641 92.8577 94.456 92.691 94.5438 92.5219C94.6317 92.3528 94.7155 92.1816 94.7952 92.0083C94.8748 91.835 94.9504 91.6598 95.0217 91.4827C95.093 91.3056 95.1601 91.1268 95.2229 90.9463C95.2856 90.7658 95.3441 90.5838 95.3982 90.4004C95.4523 90.2169 95.502 90.0322 95.5473 89.8462C95.5926 89.6603 95.6334 89.4733 95.6697 89.2853C95.7061 89.0972 95.738 88.9084 95.7653 88.7188C95.7927 88.5292 95.8155 88.3389 95.8337 88.1482C95.852 87.9574 95.8657 87.7663 95.8749 87.5748C95.884 87.3833 95.8886 87.1917 95.8886 87C95.8886 86.8083 95.884 86.6167 95.8749 86.4252C95.8657 86.2337 95.852 86.0426 95.8337 85.8518C95.8155 85.661 95.7927 85.4708 95.7653 85.2812C95.738 85.0916 95.7061 84.9027 95.6698 84.7147C95.6334 84.5267 95.5926 84.3397 95.5473 84.1537C95.502 83.9678 95.4523 83.7831 95.3982 83.5996C95.3441 83.4162 95.2856 83.2342 95.2229 83.0537C95.1601 82.8732 95.093 82.6944 95.0217 82.5173C94.9504 82.3402 94.8748 82.1649 94.7952 81.9916C94.7155 81.8183 94.6317 81.6472 94.5438 81.4781C94.456 81.309 94.3641 81.1423 94.2683 80.9778C94.1725 80.8134 94.0728 80.6515 93.9693 80.4921C93.8657 80.3327 93.7584 80.176 93.6474 80.022C93.5364 79.868 93.4217 79.7169 93.3035 79.5687C93.1852 79.4205 93.0636 79.2754 92.9384 79.1334C92.8132 78.9914 92.6847 78.8525 92.5529 78.717C92.4212 78.5814 92.2862 78.4493 92.1481 78.3206C92.01 78.1918 91.8689 78.0666 91.7249 77.945C91.5808 77.8234 91.4339 77.7054 91.2842 77.5913C91.1345 77.4771 90.9822 77.3667 90.8272 77.2602C90.6722 77.1537 90.5148 77.0512 90.3549 76.9526C90.195 76.854 90.0329 76.7596 89.8685 76.6692C89.7042 76.5788 89.5377 76.4927 89.3692 76.4107C89.2008 76.3287 89.0304 76.2511 88.8582 76.1777C88.686 76.1044 88.5122 76.0354 88.3367 75.9708C88.1612 75.9062 87.9843 75.8461 87.806 75.7905C87.6276 75.7348 87.448 75.6837 87.2672 75.6371C87.0865 75.5906 86.9046 75.5486 86.7218 75.5111C86.539 75.4737 86.3554 75.441 86.1711 75.4129C85.9867 75.3847 85.8018 75.3613 85.6163 75.3425C85.4308 75.3237 85.245 75.3096 85.0588 75.3002C84.8727 75.2908 84.6864 75.2861 84.5 75.286C84.3136 75.286 84.1274 75.2908 83.9413 75.3002C83.7551 75.3096 83.5692 75.3237 83.3838 75.3425C83.1983 75.3613 83.0134 75.3847 82.829 75.4128C82.6446 75.441 82.461 75.4737 82.2783 75.5112C82.0954 75.5486 81.9136 75.5905 81.7328 75.6371C81.552 75.6837 81.3725 75.7348 81.1941 75.7904C81.0157 75.8461 80.8388 75.9062 80.6634 75.9708C80.4879 76.0354 80.314 76.1044 80.1418 76.1777C79.9696 76.2511 79.7993 76.3288 79.6308 76.4107C79.4623 76.4927 79.2959 76.5789 79.1315 76.6693C78.9671 76.7596 78.805 76.854 78.6451 76.9526C78.4853 77.0512 78.3279 77.1537 78.1729 77.2602C78.0179 77.3667 77.8656 77.4771 77.7159 77.5913C77.5662 77.7054 77.4193 77.8233 77.2752 77.945C77.1311 78.0666 76.9901 78.1918 76.852 78.3205C76.7138 78.4493 76.5789 78.5814 76.4471 78.717C76.3153 78.8525 76.1868 78.9913 76.0617 79.1333C75.9365 79.2755 75.8148 79.4206 75.6965 79.5687C75.5783 79.7169 75.4637 79.868 75.3527 80.0221C75.2417 80.176 75.1344 80.3327 75.0308 80.492C74.9273 80.6515 74.8275 80.8134 74.7317 80.9778C74.6359 81.1422 74.5441 81.309 74.4562 81.4781C74.3684 81.6472 74.2846 81.8184 74.2049 81.9916C74.1252 82.165 74.0497 82.3402 73.9784 82.5173C73.9071 82.6944 73.84 82.8732 73.7772 83.0537C73.7144 83.2342 73.656 83.4161 73.6019 83.5996C73.5478 83.7831 73.4981 83.9678 73.4528 84.1537C73.4075 84.3397 73.3667 84.5267 73.3303 84.7148C73.2939 84.9028 73.2621 85.0916 73.2347 85.2811C73.2074 85.4708 73.1846 85.661 73.1664 85.8518C73.148 86.0426 73.1343 86.2338 73.1252 86.4253C73.1161 86.6167 73.1115 86.8083 73.1114 87C73.1115 87.1917 73.1161 87.3833 73.1252 87.5747C73.1343 87.7662 73.1481 87.9574 73.1664 88.1482C73.1846 88.339 73.2074 88.5292 73.2347 88.7188C73.2621 88.9084 73.2939 89.0972 73.3303 89.2852C73.3667 89.4733 73.4075 89.6603 73.4528 89.8462C73.4981 90.0322 73.5478 90.2169 73.6019 90.4004C73.656 90.5839 73.7144 90.7658 73.7772 90.9463C73.84 91.1268 73.9071 91.3056 73.9784 91.4827C74.0497 91.6598 74.1252 91.835 74.2049 92.0083C74.2846 92.1816 74.3684 92.3528 74.4562 92.5219C74.5441 92.691 74.6359 92.8577 74.7317 93.0222C74.8275 93.1866 74.9273 93.3485 75.0308 93.5079C75.1344 93.6673 75.2417 93.824 75.3527 93.9779C75.4637 94.1319 75.5783 94.2831 75.6965 94.4313C75.8148 94.5794 75.9365 94.7245 76.0617 94.8666C76.1868 95.0087 76.3153 95.1474 76.4471 95.283Z" fill="#1E293B"/>
<path d="M86.6548 88.0122L86.6665 88.0208L86.679 88.0378C87.3863 88.7445 88.5374 88.7956 89.2415 88.0037C89.9144 87.2459 89.9144 85.9688 89.2415 85.211L86.0609 81.6349C85.8491 81.3114 85.5419 81.1581 85.3458 81.0815C85.1051 80.9878 84.8503 80.9453 84.6432 80.9453C84.3416 80.9453 84.0673 81.0645 83.8922 81.1666C83.707 81.2688 83.5132 81.4136 83.3686 81.5753L80.191 85.1514C79.9433 85.3557 79.7995 85.6282 79.719 85.8496C79.626 86.105 79.5869 86.3775 79.5869 86.6074C79.5869 87.1267 79.7823 87.595 80.1395 88.0037L80.1551 88.0208L80.1723 88.0378C80.878 88.7445 82.0252 88.7956 82.7301 88.0037L82.8638 87.859V91.6905C82.8638 92.7718 83.6648 93.7169 84.6901 93.7169C85.7162 93.7169 86.5165 92.7718 86.5165 91.6905V87.859L86.6548 88.0122Z" fill="white"/>
<path fill-rule="evenodd" clip-rule="evenodd" d="M87.9592 89.0827C88.6178 89.0857 89.1698 88.8368 89.6151 88.336C90.0357 87.8624 90.2462 87.286 90.2462 86.6074C90.2462 85.9287 90.036 85.3526 89.6154 84.879L86.4571 81.328C86.239 81.01 85.9292 80.7726 85.5277 80.6158C85.2356 80.5021 84.9408 80.4453 84.6432 80.4453C84.307 80.4453 83.9744 80.5408 83.6454 80.7317C83.3898 80.8735 83.1732 81.0436 82.9958 81.2421L79.841 84.7925C79.5791 85.0185 79.3818 85.3139 79.2491 85.6787C79.141 85.9757 79.0869 86.2852 79.0869 86.6074C79.0869 87.2419 79.3123 87.817 79.763 88.3327L79.767 88.3373L79.7948 88.3676L79.8204 88.393C80.2767 88.8499 80.8196 89.0798 81.4492 89.0827C81.781 89.0842 82.0859 89.0215 82.3638 88.8947V91.6905C82.3638 92.3639 82.5818 92.9472 83.0179 93.4404C83.4756 93.958 84.033 94.2169 84.6901 94.2169C85.3476 94.2169 85.9051 93.958 86.3627 93.4404C86.7985 92.9472 87.0165 92.3639 87.0165 91.6905V88.8807C87.3058 89.0138 87.62 89.0811 87.9592 89.0827ZM87.058 87.709C87.3167 87.9566 87.6186 88.0811 87.9637 88.0827C88.3212 88.0843 88.6225 87.9474 88.8677 87.6717C89.1199 87.3876 89.2462 87.0326 89.2462 86.6074C89.2462 86.182 89.12 85.8272 88.8677 85.543L85.6627 81.9397L85.6425 81.9088C85.5402 81.7524 85.3806 81.6319 85.1638 81.5472C84.9892 81.4792 84.8156 81.4453 84.6432 81.4453C84.4856 81.4453 84.3192 81.4963 84.1442 81.5985L84.139 81.6015L84.1337 81.6044C83.9752 81.6919 83.8444 81.7932 83.7414 81.9085L80.5391 85.5125L80.5092 85.5371C80.3716 85.6506 80.2648 85.8117 80.1889 86.0204C80.1209 86.2072 80.0869 86.4028 80.0869 86.6074C80.0869 86.9899 80.2287 87.3443 80.5122 87.6703L80.5154 87.6739L80.5241 87.6825C80.7889 87.9477 81.0988 88.0811 81.4538 88.0827C81.8101 88.0843 82.111 87.9472 82.3567 87.6713L83.3638 86.5803V91.6905C83.3638 92.1114 83.4982 92.4739 83.767 92.778C84.0257 93.0706 84.3334 93.2169 84.6901 93.2169C85.0471 93.2169 85.3548 93.0706 85.6135 92.7781C85.8821 92.4741 86.0165 92.1115 86.0165 91.6905V86.5587L86.9909 87.6384L87.0234 87.662L87.058 87.709Z" fill="#1E293B"/>
<path fill-rule="evenodd" clip-rule="evenodd" d="M38.0207 58.3332L38.9643 57.9418L38.7733 57.4798L37.8297 57.8712L38.0207 58.3332ZM33.4171 60.3696L35.2551 59.53L35.0477 59.0751L33.2098 59.9147L33.4171 60.3696ZM28.9061 62.6042C29.492 62.2959 30.0892 61.9894 30.6979 61.6845L30.4746 61.2373C29.8629 61.5437 29.2626 61.8518 28.6738 62.1616L28.9061 62.6042ZM91.1381 46.5085L92.1684 46.4447L92.1379 45.9455L91.1076 46.0094L91.1381 46.5085ZM24.5366 65.0639C25.0952 64.7263 25.669 64.3896 26.2581 64.0538L26.0109 63.6193C25.4182 63.9572 24.8407 64.2961 24.2784 64.6358L24.5366 65.0639ZM95.181 46.3181C95.8744 46.3006 96.5441 46.2925 97.1901 46.2939L97.1917 45.7937C96.541 45.7924 95.8667 45.8005 95.1689 45.8181L95.181 46.3181ZM20.3361 67.8263C20.8638 67.4458 21.4131 67.0649 21.9841 66.6835L21.7069 66.2676C21.1308 66.6523 20.5765 67.0367 20.0441 67.4207L20.3361 67.8263ZM100.186 46.3765C100.882 46.4157 101.547 46.469 102.179 46.5363L102.232 46.039C101.592 45.9708 100.919 45.9168 100.215 45.8771L100.186 46.3765ZM16.4481 70.9882C16.9149 70.5515 17.4149 70.1118 17.9481 69.6691L17.6291 69.2843C17.0883 69.7333 16.5809 70.1796 16.1068 70.6231L16.4481 70.9882ZM105.147 47.0044C105.833 47.1548 106.471 47.3297 107.06 47.5291L107.221 47.0553C106.614 46.85 105.958 46.6702 105.254 46.5158L105.147 47.0044ZM13.2051 74.7633C13.5363 74.2408 13.9264 73.7089 14.3754 73.1675L13.9908 72.8483C13.5283 73.4061 13.1257 73.9553 12.783 74.4957L13.2051 74.7633ZM109.719 48.8053C110.281 49.1844 110.768 49.6106 111.181 50.0841L111.558 49.7554C111.117 49.2488 110.597 48.7939 109.999 48.3905L109.719 48.8053ZM11.8766 79.3495C11.8036 78.7397 11.8479 78.1026 12.0095 77.4379L11.5239 77.3201C11.348 78.0434 11.3001 78.7399 11.3803 79.4094L11.8766 79.3495ZM112.678 52.9624C112.811 53.4623 112.86 53.9825 112.825 54.523L113.324 54.5552C113.363 53.9598 113.308 53.3857 113.16 52.8327C113.128 52.71 113.093 52.5892 113.055 52.4702L112.578 52.6203C112.613 52.7324 112.647 52.8465 112.678 52.9624ZM14.4713 83.2135C13.9029 82.8174 13.4258 82.3917 13.04 81.9363L12.6586 82.2599C13.0724 82.7485 13.5813 83.2031 14.1855 83.6239L14.4713 83.2135ZM111.999 57.2797C111.72 57.8257 111.372 58.3837 110.957 58.9539L111.361 59.2484C111.792 58.6569 112.153 58.0765 112.443 57.5071L111.999 57.2797ZM18.9843 85.2179C18.3164 85.0259 17.6928 84.8158 17.1134 84.5876L16.9299 85.053C17.5241 85.287 18.1627 85.5023 18.8458 85.6987L18.9843 85.2179ZM108.998 61.2257C108.552 61.6762 108.07 62.1306 107.55 62.5887L107.881 62.9637C108.408 62.498 108.899 62.0359 109.353 61.5774L108.998 61.2257ZM23.8867 86.1984C23.2026 86.109 22.5441 86.0069 21.9113 85.8921L21.8217 86.3843C22.4626 86.5005 23.1292 86.6038 23.8215 86.6943L23.8867 86.1984ZM105.216 64.4879C104.691 64.8848 104.142 65.2825 103.568 65.6811L103.853 66.0919C104.432 65.6895 104.987 65.2879 105.517 64.8869L105.216 64.4879ZM28.9052 86.6075C28.216 86.5806 27.5438 86.5439 26.8885 86.4972L26.8525 86.9961C27.5133 87.0432 28.1909 87.0802 28.8853 87.1072L28.9052 86.6075ZM101.046 67.3401C100.496 67.6834 99.9306 68.0261 99.3491 68.368L99.602 68.7992C100.188 68.4549 100.757 68.1099 101.31 67.7642L101.046 67.3401ZM33.9319 86.6341C33.245 86.6515 32.5698 86.6607 31.9063 86.6617L31.9066 87.1619C32.5741 87.1608 33.2533 87.1516 33.9441 87.1342L33.9319 86.6341ZM96.7102 69.8549C96.1296 70.1689 95.5368 70.4814 94.932 70.7922L95.16 71.237C95.768 70.9245 96.3638 70.6105 96.9475 70.2949L96.7102 69.8549ZM38.9437 86.3776C38.2715 86.4283 37.6072 86.4722 36.951 86.5094L36.9788 87.0088C37.6382 86.9714 38.3055 86.9273 38.9808 86.8763L38.9437 86.3776ZM92.2323 72.1307L90.3883 72.9933L90.5996 73.4463L92.4436 72.5837L92.2323 72.1307ZM43.9537 85.8914L41.9724 86.1088L42.0264 86.6059L44.0077 86.3885L43.9537 85.8914ZM87.6447 74.2078L85.7602 74.9986L85.9532 75.4598L87.8377 74.669L87.6447 74.2078ZM48.9428 85.2099L46.9614 85.5026L47.034 85.9974L49.0154 85.7046L48.9428 85.2099ZM82.9781 76.1071L81.071 76.8289L81.2475 77.2966L83.1546 76.5748L82.9781 76.1071ZM53.9064 84.3554L51.932 84.7154L52.0213 85.2074L53.9956 84.8474L53.9064 84.3554ZM78.2491 77.8441L76.3221 78.5029L76.4833 78.9762L78.4102 78.3173L78.2491 77.8441ZM58.8408 83.3429L56.8777 83.7647L56.9822 84.2536L58.9453 83.8319L58.8408 83.3429ZM73.4676 79.4301L71.5221 80.03L71.6688 80.5079L73.6144 79.9081L73.4676 79.4301ZM63.743 82.1826L61.7939 82.6621L61.9128 83.1478L63.862 82.6682L63.743 82.1826ZM68.6409 80.8723L66.6841 81.4138L66.817 81.8959L68.7737 81.3543L68.6409 80.8723Z" fill="#1E293B"/>
<path d="M34.8067 101.521C34.4432 102.187 34.9255 103 35.6845 103H95.3155C96.0745 103 96.5568 102.187 96.1934 101.521L91.2843 92.5211C91.109 92.1999 90.7723 92 90.4064 92H40.5936C40.2277 92 39.891 92.1999 39.7157 92.5211L34.8067 101.521Z" fill="url(#paint2_linear_329797_2477)"/>
<path d="M99.8347 59.9934C99.8347 70.3378 95.6625 79.6623 88.9727 86.3643C82.4267 92.9934 73.363 97 63.3606 97C53.4337 97 44.37 92.9206 37.7521 86.3643C31.0623 79.6623 26.8901 70.3378 26.8901 59.9934C26.8901 39.5232 43.2191 22.9868 63.3606 22.9868C83.5057 22.9868 99.8347 39.5961 99.8347 59.9934Z" fill="url(#paint3_linear_329797_2477)"/>
<path d="M58.3037 26.7827L55.5983 36.446L62.0738 40.9909L61.6184 52.0944L69.7923 36.9027L65.9956 33.8307L70.3375 26.7827H75.2118L89.9582 43.0277L90.5337 89.9416C90.5337 91.5443 89.2389 92.7827 87.6564 92.7827H42.4819C40.8993 92.7827 39.6045 91.4714 39.6045 89.9416V29.6238C39.6045 28.0211 40.8993 26.7827 42.4819 26.7827H58.3037Z" fill="white"/>
<path fill-rule="evenodd" clip-rule="evenodd" d="M90.038 92.3207C90.7018 91.6717 91.0337 90.8786 91.0337 89.9416V89.9355L90.4582 43.0216L90.3285 42.6917L75.582 26.4466L75.2118 26.2827H70.3375L69.9118 26.5205L65.5699 33.5685L65.6811 34.2194L69.1556 37.0307L62.207 49.9452L62.5734 41.0114L62.361 40.5817L56.1752 36.24L58.7852 26.9175L58.3037 26.2827H42.4819C41.55 26.2827 40.7561 26.6034 40.1002 27.2447C39.4364 27.8938 39.1045 28.6868 39.1045 29.6238V89.9416C39.1045 90.8488 39.4353 91.6317 40.097 92.2902C40.7618 92.9519 41.5568 93.2827 42.4819 93.2827H87.6564C88.5882 93.2827 89.3821 92.9621 90.038 92.3207ZM90.0337 89.9416L89.4606 43.2234L74.9904 27.2827H70.6168L66.6519 33.7186L70.1068 36.514L70.2326 37.1396L62.0587 52.3313L61.1189 52.0739L61.563 41.2433L55.311 36.8552L55.1168 36.3112L57.6445 27.2827H42.4819C41.8218 27.2827 41.2609 27.5084 40.7993 27.9598C40.3361 28.4127 40.1045 28.9673 40.1045 29.6238V89.9416C40.1045 90.5717 40.3371 91.1183 40.8024 91.5814C41.2722 92.049 41.832 92.2827 42.4819 92.2827H87.6564C88.3165 92.2827 88.8773 92.057 89.3389 91.6057C89.8014 91.1535 90.033 90.5999 90.0337 89.9448V89.9416Z" fill="#1E293B"/>
<path d="M54.9061 29.4887L52.4417 38.2348L59.2325 42.3487L60.6227 57.5736L73.4006 35.9736L69.9422 33.1935L73.0051 29.4887H73.8765L87.8335 44.192V87.5452C87.8335 88.9957 86.654 90.1163 85.2125 90.1163H44.9545C43.513 90.1163 42.3335 88.9298 42.3335 87.5452V32.9515C42.3335 31.5009 43.513 29.4887 44.9545 29.4887H54.9061Z" fill="url(#paint4_linear_329797_2477)"/>
<path d="M44.1176 33.9468V35.7299H52.1471V33.9468H44.1176Z" fill="white"/>
<path fill-rule="evenodd" clip-rule="evenodd" d="M43.6176 33.4468H52.6471V36.2299H43.6176V33.4468ZM44.1176 35.7299V33.9468H52.1471V35.7299H44.1176Z" fill="#1E293B"/>
<path d="M44.1176 40.188V41.9712H49.4706V40.188H44.1176Z" fill="white"/>
<path fill-rule="evenodd" clip-rule="evenodd" d="M43.6176 39.688H49.9706V42.4712H43.6176V39.688ZM44.1176 41.9712V40.188H49.4706V41.9712H44.1176Z" fill="#1E293B"/>
<path d="M96.67 35.7352C98.2957 35.7352 99.6193 34.3977 99.6193 32.7485C99.6193 31.0985 98.2957 29.7617 96.67 29.7617C95.0371 29.7617 93.7207 31.0985 93.7207 32.7485C93.7207 34.3977 95.0371 35.7352 96.67 35.7352Z" fill="#438DFB"/>
<g opacity="0.5" filter="url(#filter0_d_329797_2477)">
<path d="M100.986 24.0795C102.094 24.0795 103 23.166 103 22.0397C103 20.9128 102.094 20 100.986 20C99.8709 20 98.9717 20.9128 98.9717 22.0397C98.9717 23.166 99.8709 24.0795 100.986 24.0795Z" fill="#8FBCFF"/>
</g>
<path d="M30.0556 33.6225C30.0556 33.6893 30.0524 33.756 30.0459 33.8224C30.0395 33.8889 30.0298 33.9549 30.0169 34.0205C30.0041 34.086 29.9881 34.1507 29.9689 34.2146C29.9498 34.2785 29.9276 34.3414 29.9023 34.4031C29.8771 34.4648 29.8489 34.5251 29.8178 34.584C29.7867 34.643 29.7528 34.7002 29.7162 34.7557C29.6795 34.8113 29.6403 34.8649 29.5985 34.9165C29.5566 34.9682 29.5124 35.0176 29.4657 35.0648C29.4191 35.1121 29.3702 35.1569 29.3193 35.1993C29.2683 35.2416 29.2153 35.2814 29.1605 35.3185C29.1056 35.3556 29.0491 35.3899 28.991 35.4214C28.9328 35.4529 28.8732 35.4814 28.8123 35.507C28.7513 35.5325 28.6893 35.555 28.6262 35.5744C28.563 35.5938 28.4991 35.61 28.4344 35.6231C28.3697 35.6361 28.3046 35.6459 28.2389 35.6524C28.1733 35.659 28.1075 35.6623 28.0415 35.6623C27.9755 35.6623 27.9097 35.659 27.8441 35.6524C27.7784 35.6459 27.7133 35.6361 27.6486 35.6231C27.5839 35.61 27.5199 35.5938 27.4568 35.5744C27.3937 35.555 27.3317 35.5325 27.2707 35.507C27.2098 35.4814 27.1502 35.4529 27.092 35.4214C27.0339 35.3899 26.9773 35.3556 26.9225 35.3185C26.8676 35.2814 26.8147 35.2416 26.7637 35.1993C26.7127 35.1569 26.6639 35.1121 26.6173 35.0648C26.5706 35.0176 26.5264 34.9682 26.4845 34.9165C26.4427 34.8649 26.4034 34.8113 26.3668 34.7557C26.3301 34.7002 26.2963 34.643 26.2652 34.584C26.2341 34.5251 26.2059 34.4648 26.1807 34.4031C26.1554 34.3414 26.1332 34.2785 26.1141 34.2146C26.0949 34.1507 26.0789 34.086 26.066 34.0205C26.0532 33.9549 26.0435 33.8889 26.037 33.8224C26.0306 33.756 26.0273 33.6893 26.0273 33.6225C26.0273 33.5557 26.0306 33.4891 26.037 33.4226C26.0435 33.3561 26.0532 33.2901 26.066 33.2246C26.0789 33.1591 26.0949 33.0943 26.1141 33.0304C26.1332 32.9665 26.1554 32.9037 26.1807 32.8419C26.2059 32.7802 26.2341 32.7199 26.2652 32.661C26.2963 32.6021 26.3301 32.5448 26.3668 32.4893C26.4034 32.4338 26.4427 32.3802 26.4845 32.3285C26.5264 32.2769 26.5706 32.2274 26.6173 32.1802C26.6639 32.133 26.7127 32.0882 26.7637 32.0458C26.8147 32.0034 26.8676 31.9637 26.9225 31.9265C26.9773 31.8894 27.0339 31.8551 27.092 31.8236C27.1502 31.7921 27.2098 31.7636 27.2707 31.738C27.3317 31.7125 27.3937 31.69 27.4568 31.6706C27.5199 31.6512 27.5839 31.635 27.6486 31.622C27.7133 31.6089 27.7784 31.5992 27.8441 31.5926C27.9097 31.5861 27.9755 31.5828 28.0415 31.5828C28.1075 31.5828 28.1733 31.5861 28.2389 31.5926C28.3046 31.5992 28.3697 31.6089 28.4344 31.622C28.4991 31.635 28.563 31.6512 28.6262 31.6706C28.6893 31.69 28.7513 31.7125 28.8123 31.738C28.8732 31.7636 28.9328 31.7921 28.991 31.8236C29.0491 31.8551 29.1056 31.8894 29.1605 31.9265C29.2153 31.9637 29.2683 32.0034 29.3193 32.0458C29.3702 32.0882 29.4191 32.133 29.4657 32.1802C29.5124 32.2274 29.5566 32.2769 29.5985 32.3285C29.6403 32.3802 29.6795 32.4338 29.7162 32.4893C29.7528 32.5448 29.7867 32.6021 29.8178 32.661C29.8489 32.7199 29.8771 32.7802 29.9023 32.8419C29.9276 32.9037 29.9498 32.9665 29.9689 33.0304C29.9881 33.0943 30.0041 33.1591 30.0169 33.2246C30.0298 33.2901 30.0395 33.3561 30.0459 33.4226C30.0524 33.4891 30.0556 33.5557 30.0556 33.6225Z" fill="#438DFB"/>
<g filter="url(#filter1_d_329797_2477)">
<path d="M19.4811 71.2119C19.4811 71.336 19.4751 71.4598 19.4631 71.5832C19.4511 71.7067 19.4332 71.8293 19.4093 71.9509C19.3854 72.0726 19.3556 72.1928 19.3201 72.3115C19.2845 72.4303 19.2433 72.5469 19.1964 72.6616C19.1495 72.7762 19.0972 72.8882 19.0394 72.9976C18.9817 73.107 18.9188 73.2133 18.8507 73.3165C18.7827 73.4196 18.7098 73.5192 18.6321 73.6151C18.5543 73.711 18.4722 73.8028 18.3855 73.8905C18.2989 73.9782 18.2083 74.0614 18.1136 74.1401C18.0189 74.2189 17.9206 74.2927 17.8187 74.3616C17.7169 74.4305 17.6119 74.4942 17.5039 74.5527C17.3958 74.6112 17.2852 74.6642 17.172 74.7117C17.0588 74.7591 16.9436 74.8009 16.8264 74.8369C16.7092 74.8729 16.5905 74.903 16.4703 74.9272C16.3502 74.9514 16.2291 74.9696 16.1072 74.9818C15.9853 74.9939 15.8631 75 15.7406 75C15.6181 75 15.4958 74.9939 15.3739 74.9818C15.252 74.9696 15.131 74.9514 15.0108 74.9272C14.8907 74.903 14.772 74.8729 14.6547 74.8369C14.5375 74.8009 14.4223 74.7591 14.3091 74.7117C14.1959 74.6642 14.0853 74.6112 13.9773 74.5527C13.8692 74.4942 13.7643 74.4305 13.6624 74.3616C13.5606 74.2927 13.4623 74.2189 13.3676 74.1401C13.2729 74.0614 13.1822 73.9782 13.0956 73.8905C13.009 73.8028 12.9268 73.711 12.8491 73.6151C12.7713 73.5192 12.6985 73.4196 12.6304 73.3165C12.5623 73.2133 12.4994 73.107 12.4417 72.9976C12.3839 72.8882 12.3316 72.7762 12.2847 72.6616C12.2379 72.5469 12.1966 72.4303 12.1611 72.3115C12.1255 72.1928 12.0958 72.0726 12.0719 71.9509C12.048 71.8293 12.03 71.7067 12.018 71.5832C12.006 71.4598 12 71.336 12 71.2119C12 71.0879 12.006 70.9641 12.018 70.8406C12.03 70.7172 12.048 70.5946 12.0719 70.4729C12.0958 70.3512 12.1255 70.231 12.1611 70.1123C12.1966 69.9936 12.2379 69.8769 12.2847 69.7623C12.3316 69.6477 12.3839 69.5356 12.4417 69.4262C12.4994 69.3168 12.5623 69.2105 12.6304 69.1074C12.6985 69.0042 12.7713 68.9047 12.8491 68.8088C12.9268 68.7129 13.009 68.6211 13.0956 68.5333C13.1822 68.4456 13.2729 68.3624 13.3676 68.2837C13.4623 68.205 13.5606 68.1312 13.6624 68.0622C13.7643 67.9933 13.8692 67.9296 13.9773 67.8711C14.0853 67.8126 14.1959 67.7597 14.3091 67.7122C14.4223 67.6647 14.5375 67.623 14.6547 67.587C14.772 67.5509 14.8907 67.5208 15.0108 67.4966C15.131 67.4724 15.252 67.4542 15.3739 67.4421C15.4958 67.4299 15.6181 67.4238 15.7406 67.4238C15.8631 67.4238 15.9853 67.4299 16.1072 67.4421C16.2291 67.4542 16.3502 67.4724 16.4703 67.4966C16.5905 67.5208 16.7092 67.5509 16.8264 67.587C16.9436 67.623 17.0588 67.6647 17.172 67.7122C17.2852 67.7597 17.3958 67.8126 17.5039 67.8711C17.6119 67.9296 17.7169 67.9933 17.8187 68.0622C17.9206 68.1312 18.0189 68.205 18.1136 68.2837C18.2083 68.3624 18.2989 68.4456 18.3855 68.5333C18.4722 68.6211 18.5543 68.7129 18.6321 68.8088C18.7098 68.9047 18.7827 69.0042 18.8507 69.1074C18.9188 69.2105 18.9817 69.3168 19.0394 69.4262C19.0972 69.5356 19.1495 69.6477 19.1964 69.7623C19.2433 69.8769 19.2845 69.9936 19.3201 70.1123C19.3556 70.231 19.3854 70.3512 19.4093 70.4729C19.4332 70.5946 19.4511 70.7172 19.4631 70.8406C19.4751 70.9641 19.4811 71.0879 19.4811 71.2119Z" fill="#8FBCFF"/>
</g>
<path d="M74.6005 26.7827V39.7496C74.6005 41.5708 76.183 43.0277 77.9814 43.0277H89.347" fill="url(#paint5_linear_329797_2477)"/>
<path d="M54.1425 76.6827C53.8404 76.6827 53.5987 76.5603 53.3563 76.3767C52.9333 75.9484 52.9333 75.2141 53.3563 74.7857C56.1365 72.0314 59.8232 70.5015 63.7515 70.5015C67.6791 70.5015 71.3657 72.0314 74.1424 74.7857C74.5668 75.2141 74.5668 75.9484 74.1424 76.3767C73.7251 76.8051 72.9986 76.8051 72.5742 76.3767C70.2176 73.9895 67.0748 72.7045 63.7515 72.7045C60.4274 72.7045 57.2846 73.9895 54.928 76.3767C54.6864 76.5603 54.4447 76.6827 54.1425 76.6827Z" fill="white"/>
<path fill-rule="evenodd" clip-rule="evenodd" d="M52.7526 77.1739C53.2005 77.5131 53.6638 77.6827 54.1425 77.6827C54.6221 77.6827 55.0856 77.5128 55.5329 77.1731L55.5896 77.13L55.6397 77.0792C56.7186 75.9864 57.9585 75.1497 59.3597 74.5692C60.7513 73.9927 62.2152 73.7045 63.7515 73.7045C65.2873 73.7045 66.751 73.9927 68.1426 74.5692C69.5437 75.1497 70.7841 75.9868 71.8638 77.0806C72.2716 77.4922 72.7707 77.698 73.361 77.698C73.9546 77.698 74.4518 77.4922 74.8527 77.0806C75.258 76.6715 75.4607 76.1717 75.4607 75.5812C75.4607 74.9907 75.256 74.4889 74.8466 74.0758C73.3628 72.6039 71.6673 71.4741 69.7603 70.6865C67.8475 69.8965 65.8446 69.5015 63.7515 69.5015C61.6582 69.5015 59.655 69.8965 57.7417 70.6864C55.8346 71.4738 54.1356 72.6061 52.6447 74.0831C52.241 74.492 52.0391 74.9914 52.0391 75.5812C52.0391 76.1711 52.241 76.6704 52.6447 77.0793L52.6953 77.1305L52.7526 77.1739ZM53.3563 76.3767C53.5987 76.5603 53.8404 76.6827 54.1425 76.6827C54.4447 76.6827 54.6864 76.5603 54.928 76.3767C57.2846 73.9895 60.4274 72.7045 63.7515 72.7045C67.0748 72.7045 70.2176 73.9895 72.5742 76.3767C72.9986 76.8051 73.7251 76.8051 74.1424 76.3767C74.5668 75.9484 74.5668 75.2141 74.1424 74.7857C71.3657 72.0314 67.6791 70.5015 63.7515 70.5015C59.8232 70.5015 56.1365 72.0314 53.3563 74.7857C52.9333 75.2141 52.9333 75.9484 53.3563 76.3767Z" fill="#1E293B"/>
<path d="M57.3448 63.0499L59.1443 61.2515C59.6688 60.7273 59.6688 59.8286 59.1443 59.3043C58.6197 58.7801 57.7204 58.7801 57.1949 59.3043L55.3963 61.1018L53.5977 59.3043C53.0731 58.7801 52.1738 58.7801 51.6484 59.3043C51.1238 59.8286 51.1238 60.7273 51.6484 61.2515L53.4478 63.0499L51.6484 64.8473C51.1238 65.3715 51.1238 66.2702 51.6484 66.7945C51.949 67.0941 52.2488 67.169 52.6235 67.169C52.9982 67.169 53.298 67.0192 53.5977 66.7945L55.3963 64.9971L57.1949 66.7945C57.4947 67.0941 57.7953 67.169 58.17 67.169C58.5447 67.169 58.8445 67.0192 59.1443 66.7945C59.6688 66.2702 59.6688 65.3715 59.1443 64.8473L57.3448 63.0499Z" fill="white"/>
<path fill-rule="evenodd" clip-rule="evenodd" d="M59.8511 64.14C60.3088 64.5974 60.5377 65.1577 60.5377 65.8209C60.5377 66.4841 60.3088 67.0444 59.8511 67.5018L59.8009 67.5521L59.744 67.5947C59.2332 67.9775 58.7086 68.169 58.17 68.169C57.4937 68.169 56.9331 67.9466 56.488 67.5018L55.3963 66.4108L54.2543 67.5521L54.1975 67.5947C53.6867 67.9775 53.162 68.169 52.6235 68.169C51.9485 68.169 51.3878 67.9466 50.9415 67.5018C50.4838 67.0444 50.2549 66.4841 50.2549 65.8209C50.2549 65.1577 50.4838 64.5973 50.9417 64.1398L52.033 63.0497L50.9415 61.9589C50.4838 61.5015 50.2549 60.9411 50.2549 60.2779C50.2549 59.6147 50.484 59.0542 50.9421 58.5964C51.4 58.1395 51.9604 57.9111 52.6234 57.9111C53.2867 57.9111 53.8471 58.1398 54.3046 58.597L55.3963 59.688L56.4886 58.5964C56.9465 58.1396 57.507 57.9111 58.1699 57.9111C58.8332 57.9111 59.3936 58.1398 59.8511 58.597C60.3088 59.0544 60.5377 59.6147 60.5377 60.2779C60.5377 60.9411 60.3088 61.5015 59.8511 61.9589L58.7596 63.0497L59.8511 64.14ZM57.1949 66.7945L55.3963 64.9971L53.5977 66.7945C53.298 67.0192 52.9982 67.169 52.6235 67.169C52.2488 67.169 51.949 67.0941 51.6484 66.7945C51.1238 66.2703 51.1238 65.3715 51.6484 64.8473L52.7403 63.7566L53.4477 63.05L52.7405 62.343L51.6484 61.2515C51.1238 60.7273 51.1238 59.8286 51.6484 59.3043C52.1738 58.7801 53.0731 58.7801 53.5977 59.3043L55.3963 61.1018L57.1949 59.3043C57.7204 58.7801 58.6197 58.7801 59.1443 59.3043C59.6688 59.8286 59.6688 60.7273 59.1443 61.2515L58.0521 62.343L57.3448 63.0499L58.0523 63.7566L59.1443 64.8473C59.6688 65.3715 59.6688 66.2703 59.1443 66.7945C58.8445 67.0192 58.5447 67.169 58.17 67.169C57.7953 67.169 57.4947 67.0941 57.1949 66.7945Z" fill="#1E293B"/>
<path d="M74.7611 63.3796L76.7024 61.438C77.2694 60.872 77.2694 59.9017 76.7024 59.3357C76.1354 58.7696 75.1648 58.7696 74.6074 59.3357L72.6661 61.2763L70.7287 59.3357C70.1636 58.7696 69.1949 58.7696 68.6299 59.3357C68.0648 59.9017 68.0648 60.872 68.6299 61.438L70.5673 63.3796L68.6299 65.3203C68.0648 65.8863 68.0648 66.8566 68.6299 67.4227C68.9528 67.7461 69.2757 67.827 69.6793 67.827C70.0829 67.827 70.4058 67.6652 70.7287 67.4227L72.6661 65.482L74.6074 67.4227C74.9245 67.7461 75.2512 67.827 75.6549 67.827C76.0585 67.827 76.3756 67.6652 76.7024 67.4227C77.2694 66.8566 77.2694 65.8863 76.7024 65.3203L74.7611 63.3796Z" fill="white"/>
<path fill-rule="evenodd" clip-rule="evenodd" d="M76.1754 63.3795L77.4095 62.1451C77.8883 61.6672 78.1276 61.0811 78.1276 60.3868C78.1276 59.6926 77.888 59.1063 77.4089 58.6279C76.9302 58.1501 76.3443 57.9111 75.6513 57.9111C74.9549 57.9111 74.3694 58.1521 73.8948 58.634L72.6668 59.8616L71.4364 58.6291C70.9585 58.1505 70.3728 57.9111 69.6793 57.9111C68.9857 57.9111 68.4 58.1505 67.9222 58.6291C67.4448 59.1073 67.2061 59.6932 67.2061 60.3868C67.2061 61.0804 67.4448 61.6663 67.9222 62.1445L69.1544 63.3795L67.9222 64.6138C67.4448 65.092 67.2061 65.6779 67.2061 66.3715C67.2061 67.0651 67.4448 67.651 67.9222 68.1292C68.3866 68.5944 68.9723 68.827 69.6793 68.827C70.2426 68.827 70.7927 68.6254 71.3294 68.2222L71.3862 68.1795L72.6668 66.8967L73.9004 68.1299C74.356 68.5946 74.9408 68.827 75.6549 68.827C76.2106 68.827 76.7584 68.6265 77.2985 68.2256L77.3572 68.182L77.4089 68.1304C77.888 67.652 78.1276 67.0657 78.1276 66.3715C78.1276 65.6772 77.888 65.0909 77.4089 64.6126L76.1754 63.3795ZM72.6661 61.2763L73.3733 60.5693L74.6074 59.3357C75.1648 58.7696 76.1354 58.7696 76.7024 59.3357C77.2694 59.9017 77.2694 60.872 76.7024 61.438L75.4682 62.6725L74.7611 63.3796L75.4683 64.0866L76.7024 65.3203C77.2694 65.8863 77.2694 66.8566 76.7024 67.4227C76.3756 67.6652 76.0585 67.827 75.6549 67.827C75.2512 67.827 74.9245 67.7461 74.6074 67.4227L73.3733 66.189L72.6661 65.482L71.9596 66.1897L70.7287 67.4227C70.4058 67.6652 70.0829 67.827 69.6793 67.827C69.2757 67.827 68.9528 67.7461 68.6299 67.4227C68.0648 66.8566 68.0648 65.8863 68.6299 65.3203L70.5673 63.3796L68.6299 61.438C68.0648 60.872 68.0648 59.9017 68.6299 59.3357C69.1949 58.7696 70.1636 58.7696 70.7287 59.3357L71.9596 60.5686L72.6661 61.2763Z" fill="#1E293B"/>
<path d="M75.75 78C70.9175 82.9706 70.9175 91.0294 75.75 96C80.5825 100.971 88.4175 100.971 93.25 96C98.0825 91.0294 98.0825 82.9706 93.25 78C88.4175 73.0294 80.5825 73.0294 75.75 78Z" fill="url(#paint6_radial_329797_2477)"/>
<path d="M75.75 96C75.6068 95.8527 75.4672 95.7019 75.3312 95.5476C75.1952 95.3932 75.063 95.2355 74.9346 95.0745C74.8061 94.9135 74.6815 94.7493 74.5609 94.582C74.4402 94.4147 74.3236 94.2445 74.2111 94.0713C74.0986 93.8981 73.9903 93.7221 73.8862 93.5434C73.7821 93.3648 73.6823 93.1836 73.5868 92.9999C73.4914 92.8162 73.4003 92.6302 73.3137 92.4418C73.2271 92.2536 73.1451 92.0632 73.0676 91.8708C72.9901 91.6783 72.9172 91.484 72.8491 91.2879C72.7808 91.0918 72.7173 90.8941 72.6585 90.6947C72.5998 90.4954 72.5457 90.2947 72.4965 90.0926C72.4473 89.8906 72.403 89.6874 72.3635 89.4831C72.324 89.2788 72.2893 89.0736 72.2596 88.8676C72.2299 88.6616 72.2051 88.4549 72.1853 88.2476C72.1654 88.0403 72.1505 87.8326 72.1405 87.6245C72.1306 87.4165 72.1256 87.2083 72.1256 87C72.1256 86.7917 72.1306 86.5835 72.1405 86.3755C72.1505 86.1674 72.1654 85.9597 72.1853 85.7524C72.2051 85.5451 72.2299 85.3384 72.2596 85.1324C72.2893 84.9263 72.324 84.7212 72.3635 84.5169C72.403 84.3126 72.4473 84.1094 72.4965 83.9074C72.5457 83.7053 72.5997 83.5046 72.6585 83.3052C72.7173 83.1059 72.7808 82.9082 72.8491 82.7121C72.9172 82.516 72.9901 82.3217 73.0676 82.1292C73.1451 81.9368 73.2272 81.7464 73.3137 81.5581C73.4003 81.3698 73.4914 81.1838 73.5868 81.0001C73.6823 80.8164 73.7821 80.6352 73.8862 80.4566C73.9903 80.2779 74.0986 80.1019 74.2111 79.9287C74.3237 79.7555 74.4402 79.5853 74.5609 79.418C74.6815 79.2507 74.8061 79.0865 74.9346 78.9255C75.063 78.7645 75.1952 78.6068 75.3312 78.4524C75.4672 78.2981 75.6068 78.1473 75.75 78C75.8932 77.8527 76.0399 77.7091 76.1899 77.5692C76.34 77.4294 76.4933 77.2933 76.6499 77.1612C76.8064 77.0291 76.966 76.901 77.1286 76.7769C77.2913 76.6528 77.4568 76.5329 77.6252 76.4171C77.7936 76.3014 77.9646 76.19 78.1383 76.0829C78.312 75.9758 78.4882 75.8732 78.6668 75.775C78.8454 75.6768 79.0263 75.5832 79.2093 75.4941C79.3924 75.405 79.5775 75.3206 79.7646 75.2409C79.9516 75.1612 80.1405 75.0863 80.3312 75.0161C80.5219 74.9459 80.7141 74.8806 80.908 74.8201C81.1018 74.7597 81.2969 74.7042 81.4933 74.6535C81.6898 74.6029 81.8873 74.5573 82.0859 74.5167C82.2846 74.476 82.484 74.4404 82.6843 74.4098C82.8846 74.3793 83.0856 74.3538 83.2871 74.3334C83.4887 74.313 83.6906 74.2976 83.8929 74.2874C84.0951 74.2772 84.2975 74.272 84.5 74.2721C84.7025 74.2721 84.9049 74.2772 85.1072 74.2874C85.3095 74.2976 85.5114 74.313 85.713 74.3334C85.9145 74.3538 86.1154 74.3793 86.3158 74.4099C86.5161 74.4404 86.7156 74.476 86.9142 74.5167C87.1128 74.5573 87.3103 74.6029 87.5068 74.6535C87.7032 74.7041 87.8983 74.7597 88.0922 74.8202C88.2859 74.8806 88.4782 74.9459 88.6689 75.0161C88.8595 75.0863 89.0484 75.1612 89.2355 75.2409C89.4226 75.3206 89.6077 75.405 89.7907 75.4941C89.9738 75.5832 90.1547 75.6768 90.3332 75.7749C90.5119 75.8731 90.688 75.9758 90.8617 76.0829C91.0354 76.19 91.2065 76.3014 91.3749 76.4171C91.5433 76.5329 91.7088 76.6528 91.8714 76.7768C92.0341 76.9009 92.1937 77.029 92.3503 77.1612C92.5068 77.2933 92.6601 77.4293 92.8102 77.5692C92.9602 77.7091 93.1068 77.8527 93.25 78C93.3933 78.1473 93.5329 78.2981 93.6688 78.4524C93.8048 78.6068 93.9371 78.7645 94.0656 78.9255C94.194 79.0865 94.3186 79.2507 94.4392 79.418C94.5598 79.5853 94.6764 79.7555 94.789 79.9288C94.9015 80.1019 95.0098 80.2779 95.1139 80.4565C95.218 80.6352 95.3178 80.8164 95.4133 81.0001C95.5087 81.1838 95.5997 81.3698 95.6863 81.5581C95.7729 81.7464 95.855 81.9368 95.9325 82.1292C96.01 82.3217 96.0828 82.516 96.151 82.7121C96.2193 82.9082 96.2828 83.1059 96.3416 83.3053C96.4004 83.5046 96.4543 83.7053 96.5036 83.9074C96.5528 84.1094 96.5971 84.3126 96.6366 84.5169C96.6761 84.7212 96.7108 84.9264 96.7405 85.1324C96.7702 85.3385 96.795 85.5451 96.8148 85.7524C96.8347 85.9597 96.8496 86.1674 96.8595 86.3755C96.8694 86.5835 96.8744 86.7917 96.8744 87C96.8744 87.2083 96.8694 87.4165 96.8595 87.6245C96.8496 87.8326 96.8347 88.0402 96.8148 88.2476C96.795 88.4548 96.7702 88.6615 96.7405 88.8676C96.7108 89.0736 96.6761 89.2788 96.6366 89.4831C96.5971 89.6874 96.5528 89.8906 96.5036 90.0926C96.4544 90.2947 96.4004 90.4954 96.3416 90.6947C96.2828 90.8941 96.2193 91.0918 96.1511 91.2879C96.0828 91.484 96.01 91.6783 95.9325 91.8708C95.855 92.0632 95.7729 92.2536 95.6863 92.4419C95.5997 92.6302 95.5087 92.8162 95.4133 92.9999C95.3178 93.1836 95.218 93.3648 95.1139 93.5435C95.0098 93.7221 94.9015 93.898 94.789 94.0712C94.6764 94.2445 94.5598 94.4147 94.4392 94.582C94.3186 94.7493 94.194 94.9135 94.0656 95.0745C93.9371 95.2355 93.8048 95.3932 93.6688 95.5476C93.5329 95.7019 93.3933 95.8527 93.25 96C93.1068 96.1473 92.9602 96.2909 92.8102 96.4308C92.6601 96.5707 92.5068 96.7067 92.3503 96.8388C92.1937 96.9709 92.0341 97.0991 91.8714 97.2232C91.7088 97.3472 91.5433 97.4671 91.3749 97.5828C91.2065 97.6986 91.0354 97.81 90.8617 97.9171C90.688 98.0242 90.5119 98.1268 90.3332 98.2251C90.1547 98.3232 89.9738 98.4168 89.7907 98.5059C89.6077 98.595 89.4226 98.6794 89.2355 98.7591C89.0484 98.8388 88.8595 98.9137 88.6689 98.9839C88.4782 99.0541 88.2859 99.1194 88.0922 99.1798C87.8983 99.2403 87.7032 99.2959 87.5068 99.3465C87.3103 99.3971 87.1128 99.4427 86.9142 99.4833C86.7156 99.524 86.5161 99.5596 86.3158 99.5901C86.1154 99.6207 85.9145 99.6462 85.713 99.6666C85.5114 99.687 85.3095 99.7024 85.1072 99.7126C84.9049 99.7228 84.7025 99.7279 84.5 99.7279C84.2975 99.7279 84.0951 99.7228 83.8928 99.7126C83.6906 99.7024 83.4887 99.687 83.2871 99.6666C83.0856 99.6462 82.8847 99.6207 82.6843 99.5902C82.484 99.5596 82.2846 99.524 82.0859 99.4833C81.8873 99.4427 81.6898 99.3971 81.4933 99.3465C81.2968 99.2959 81.1017 99.2403 80.908 99.1799C80.7141 99.1194 80.5219 99.0541 80.3312 98.9839C80.1405 98.9137 79.9516 98.8388 79.7646 98.7591C79.5775 98.6793 79.3924 98.595 79.2093 98.5059C79.0263 98.4168 78.8454 98.3232 78.6668 98.225C78.4882 98.1268 78.3121 98.0242 78.1383 97.9171C77.9646 97.81 77.7936 97.6986 77.6252 97.5829C77.4568 97.4671 77.2913 97.3472 77.1286 97.2231C76.966 97.099 76.8064 96.9709 76.6499 96.8388C76.4933 96.7066 76.34 96.5706 76.1899 96.4308C76.0399 96.2909 75.8932 96.1473 75.75 96ZM76.4471 95.283C76.5789 95.4186 76.7138 95.5507 76.852 95.6795C76.9901 95.8082 77.1311 95.9333 77.2751 96.055C77.4193 96.1766 77.5662 96.2945 77.7159 96.4087C77.8656 96.5229 78.0179 96.6332 78.1729 96.7398C78.3279 96.8463 78.4853 96.9488 78.6451 97.0474C78.805 97.146 78.9671 97.2404 79.1315 97.3307C79.2959 97.4211 79.4623 97.5073 79.6308 97.5893C79.7993 97.6712 79.9696 97.7489 80.1418 97.8223C80.314 97.8956 80.4879 97.9646 80.6634 98.0292C80.8388 98.0938 81.0157 98.1539 81.1941 98.2095C81.3725 98.2652 81.5521 98.3163 81.7329 98.3629C81.9136 98.4095 82.0955 98.4514 82.2783 98.4888C82.4611 98.5262 82.6446 98.559 82.829 98.5872C83.0134 98.6153 83.1983 98.6387 83.3838 98.6575C83.5692 98.6763 83.7551 98.6904 83.9413 98.6998C84.1274 98.7092 84.3136 98.7139 84.5 98.714C84.6864 98.7139 84.8727 98.7092 85.0588 98.6998C85.245 98.6904 85.4308 98.6763 85.6163 98.6575C85.8018 98.6387 85.9867 98.6153 86.1711 98.5871C86.3554 98.559 86.539 98.5263 86.7218 98.4889C86.9046 98.4514 87.0865 98.4094 87.2672 98.3629C87.448 98.3163 87.6276 98.2652 87.806 98.2095C87.9843 98.1539 88.1612 98.0938 88.3367 98.0292C88.5122 97.9646 88.6861 97.8956 88.8582 97.8223C89.0304 97.7489 89.2008 97.6712 89.3692 97.5893C89.5377 97.5073 89.7042 97.4212 89.8685 97.3308C90.0329 97.2404 90.195 97.1459 90.3549 97.0474C90.5148 96.9488 90.6722 96.8463 90.8272 96.7397C90.9822 96.6333 91.1345 96.5229 91.2842 96.4087C91.4339 96.2945 91.5808 96.1766 91.7249 96.055C91.8689 95.9334 92.01 95.8082 92.1481 95.6794C92.2862 95.5507 92.4212 95.4186 92.5529 95.283C92.6847 95.1474 92.8132 95.0086 92.9384 94.8666C93.0636 94.7245 93.1852 94.5794 93.3035 94.4313C93.4217 94.283 93.5364 94.1319 93.6474 93.978C93.7584 93.824 93.8657 93.6673 93.9693 93.5079C94.0728 93.3485 94.1725 93.1866 94.2683 93.0222C94.3641 92.8577 94.456 92.691 94.5438 92.5219C94.6317 92.3528 94.7155 92.1816 94.7952 92.0083C94.8748 91.835 94.9504 91.6598 95.0217 91.4827C95.093 91.3056 95.1601 91.1268 95.2229 90.9463C95.2856 90.7658 95.3441 90.5838 95.3982 90.4004C95.4523 90.2169 95.502 90.0322 95.5473 89.8462C95.5926 89.6603 95.6334 89.4733 95.6697 89.2853C95.7061 89.0972 95.738 88.9084 95.7653 88.7188C95.7927 88.5292 95.8155 88.3389 95.8337 88.1482C95.852 87.9574 95.8657 87.7663 95.8749 87.5748C95.884 87.3833 95.8886 87.1917 95.8886 87C95.8886 86.8083 95.884 86.6167 95.8749 86.4252C95.8657 86.2337 95.852 86.0426 95.8337 85.8518C95.8155 85.661 95.7927 85.4708 95.7653 85.2812C95.738 85.0916 95.7061 84.9027 95.6698 84.7147C95.6334 84.5267 95.5926 84.3397 95.5473 84.1537C95.502 83.9678 95.4523 83.7831 95.3982 83.5996C95.3441 83.4162 95.2856 83.2342 95.2229 83.0537C95.1601 82.8732 95.093 82.6944 95.0217 82.5173C94.9504 82.3402 94.8748 82.1649 94.7952 81.9916C94.7155 81.8183 94.6317 81.6472 94.5438 81.4781C94.456 81.309 94.3641 81.1423 94.2683 80.9778C94.1725 80.8134 94.0728 80.6515 93.9693 80.4921C93.8657 80.3327 93.7584 80.176 93.6474 80.022C93.5364 79.868 93.4217 79.7169 93.3035 79.5687C93.1852 79.4205 93.0636 79.2754 92.9384 79.1334C92.8132 78.9914 92.6847 78.8525 92.5529 78.717C92.4212 78.5814 92.2862 78.4493 92.1481 78.3206C92.01 78.1918 91.8689 78.0666 91.7249 77.945C91.5808 77.8234 91.4339 77.7054 91.2842 77.5913C91.1345 77.4771 90.9822 77.3667 90.8272 77.2602C90.6722 77.1537 90.5148 77.0512 90.3549 76.9526C90.195 76.854 90.0329 76.7596 89.8685 76.6692C89.7042 76.5788 89.5377 76.4927 89.3692 76.4107C89.2008 76.3287 89.0304 76.2511 88.8582 76.1777C88.686 76.1044 88.5122 76.0354 88.3367 75.9708C88.1612 75.9062 87.9843 75.8461 87.806 75.7905C87.6276 75.7348 87.448 75.6837 87.2672 75.6371C87.0865 75.5906 86.9046 75.5486 86.7218 75.5111C86.539 75.4737 86.3554 75.441 86.1711 75.4129C85.9867 75.3847 85.8018 75.3613 85.6163 75.3425C85.4308 75.3237 85.245 75.3096 85.0588 75.3002C84.8727 75.2908 84.6864 75.2861 84.5 75.286C84.3136 75.286 84.1274 75.2908 83.9413 75.3002C83.7551 75.3096 83.5692 75.3237 83.3838 75.3425C83.1983 75.3613 83.0134 75.3847 82.829 75.4128C82.6446 75.441 82.461 75.4737 82.2783 75.5112C82.0954 75.5486 81.9136 75.5905 81.7328 75.6371C81.552 75.6837 81.3725 75.7348 81.1941 75.7904C81.0157 75.8461 80.8388 75.9062 80.6634 75.9708C80.4879 76.0354 80.314 76.1044 80.1418 76.1777C79.9696 76.2511 79.7993 76.3288 79.6308 76.4107C79.4623 76.4927 79.2959 76.5789 79.1315 76.6693C78.9671 76.7596 78.805 76.854 78.6451 76.9526C78.4853 77.0512 78.3279 77.1537 78.1729 77.2602C78.0179 77.3667 77.8656 77.4771 77.7159 77.5913C77.5662 77.7054 77.4193 77.8233 77.2752 77.945C77.1311 78.0666 76.9901 78.1918 76.852 78.3205C76.7138 78.4493 76.5789 78.5814 76.4471 78.717C76.3153 78.8525 76.1868 78.9913 76.0617 79.1333C75.9365 79.2755 75.8148 79.4206 75.6965 79.5687C75.5783 79.7169 75.4637 79.868 75.3527 80.0221C75.2417 80.176 75.1344 80.3327 75.0308 80.492C74.9273 80.6515 74.8275 80.8134 74.7317 80.9778C74.6359 81.1422 74.5441 81.309 74.4562 81.4781C74.3684 81.6472 74.2846 81.8184 74.2049 81.9916C74.1252 82.165 74.0497 82.3402 73.9784 82.5173C73.9071 82.6944 73.84 82.8732 73.7772 83.0537C73.7144 83.2342 73.656 83.4161 73.6019 83.5996C73.5478 83.7831 73.4981 83.9678 73.4528 84.1537C73.4075 84.3397 73.3667 84.5267 73.3303 84.7148C73.2939 84.9028 73.2621 85.0916 73.2347 85.2811C73.2074 85.4708 73.1846 85.661 73.1664 85.8518C73.148 86.0426 73.1343 86.2338 73.1252 86.4253C73.1161 86.6167 73.1115 86.8083 73.1114 87C73.1115 87.1917 73.1161 87.3833 73.1252 87.5747C73.1343 87.7662 73.1481 87.9574 73.1664 88.1482C73.1846 88.339 73.2074 88.5292 73.2347 88.7188C73.2621 88.9084 73.2939 89.0972 73.3303 89.2852C73.3667 89.4733 73.4075 89.6603 73.4528 89.8462C73.4981 90.0322 73.5478 90.2169 73.6019 90.4004C73.656 90.5839 73.7144 90.7658 73.7772 90.9463C73.84 91.1268 73.9071 91.3056 73.9784 91.4827C74.0497 91.6598 74.1252 91.835 74.2049 92.0083C74.2846 92.1816 74.3684 92.3528 74.4562 92.5219C74.5441 92.691 74.6359 92.8577 74.7317 93.0222C74.8275 93.1866 74.9273 93.3485 75.0308 93.5079C75.1344 93.6673 75.2417 93.824 75.3527 93.9779C75.4637 94.1319 75.5783 94.2831 75.6965 94.4313C75.8148 94.5794 75.9365 94.7245 76.0617 94.8666C76.1868 95.0087 76.3153 95.1474 76.4471 95.283Z" fill="#1E293B"/>
<path d="M86.6548 88.0122L86.6665 88.0208L86.679 88.0378C87.3863 88.7445 88.5374 88.7956 89.2415 88.0037C89.9144 87.2459 89.9144 85.9688 89.2415 85.211L86.0609 81.6349C85.8491 81.3114 85.5419 81.1581 85.3458 81.0815C85.1051 80.9878 84.8503 80.9453 84.6432 80.9453C84.3416 80.9453 84.0673 81.0645 83.8922 81.1666C83.707 81.2688 83.5132 81.4136 83.3686 81.5753L80.191 85.1514C79.9433 85.3557 79.7995 85.6282 79.719 85.8496C79.626 86.105 79.5869 86.3775 79.5869 86.6074C79.5869 87.1267 79.7823 87.595 80.1395 88.0037L80.1551 88.0208L80.1723 88.0378C80.878 88.7445 82.0252 88.7956 82.7301 88.0037L82.8638 87.859V91.6905C82.8638 92.7718 83.6648 93.7169 84.6901 93.7169C85.7162 93.7169 86.5165 92.7718 86.5165 91.6905V87.859L86.6548 88.0122Z" fill="white"/>
<path fill-rule="evenodd" clip-rule="evenodd" d="M87.9592 89.0827C88.6178 89.0857 89.1698 88.8368 89.6151 88.336C90.0357 87.8624 90.2462 87.286 90.2462 86.6074C90.2462 85.9287 90.036 85.3526 89.6154 84.879L86.4571 81.328C86.239 81.01 85.9292 80.7726 85.5277 80.6158C85.2356 80.5021 84.9408 80.4453 84.6432 80.4453C84.307 80.4453 83.9744 80.5408 83.6454 80.7317C83.3898 80.8735 83.1732 81.0436 82.9958 81.2421L79.841 84.7925C79.5791 85.0185 79.3818 85.3139 79.2491 85.6787C79.141 85.9757 79.0869 86.2852 79.0869 86.6074C79.0869 87.2419 79.3123 87.817 79.763 88.3327L79.767 88.3373L79.7948 88.3676L79.8204 88.393C80.2767 88.8499 80.8196 89.0798 81.4492 89.0827C81.781 89.0842 82.0859 89.0215 82.3638 88.8947V91.6905C82.3638 92.3639 82.5818 92.9472 83.0179 93.4404C83.4756 93.958 84.033 94.2169 84.6901 94.2169C85.3476 94.2169 85.9051 93.958 86.3627 93.4404C86.7985 92.9472 87.0165 92.3639 87.0165 91.6905V88.8807C87.3058 89.0138 87.62 89.0811 87.9592 89.0827ZM87.058 87.709C87.3167 87.9566 87.6186 88.0811 87.9637 88.0827C88.3212 88.0843 88.6225 87.9474 88.8677 87.6717C89.1199 87.3876 89.2462 87.0326 89.2462 86.6074C89.2462 86.182 89.12 85.8272 88.8677 85.543L85.6627 81.9397L85.6425 81.9088C85.5402 81.7524 85.3806 81.6319 85.1638 81.5472C84.9892 81.4792 84.8156 81.4453 84.6432 81.4453C84.4856 81.4453 84.3192 81.4963 84.1442 81.5985L84.139 81.6015L84.1337 81.6044C83.9752 81.6919 83.8444 81.7932 83.7414 81.9085L80.5391 85.5125L80.5092 85.5371C80.3716 85.6506 80.2648 85.8117 80.1889 86.0204C80.1209 86.2072 80.0869 86.4028 80.0869 86.6074C80.0869 86.9899 80.2287 87.3443 80.5122 87.6703L80.5154 87.6739L80.5241 87.6825C80.7889 87.9477 81.0988 88.0811 81.4538 88.0827C81.8101 88.0843 82.111 87.9472 82.3567 87.6713L83.3638 86.5803V91.6905C83.3638 92.1114 83.4982 92.4739 83.767 92.778C84.0257 93.0706 84.3334 93.2169 84.6901 93.2169C85.0471 93.2169 85.3548 93.0706 85.6135 92.7781C85.8821 92.4741 86.0165 92.1115 86.0165 91.6905V86.5587L86.9909 87.6384L87.0234 87.662L87.058 87.709Z" fill="#1E293B"/>
<path fill-rule="evenodd" clip-rule="evenodd" d="M38.0207 58.3332L38.9643 57.9418L38.7733 57.4798L37.8297 57.8712L38.0207 58.3332ZM33.4171 60.3696L35.2551 59.53L35.0477 59.0751L33.2098 59.9147L33.4171 60.3696ZM28.9061 62.6042C29.492 62.2959 30.0892 61.9894 30.6979 61.6845L30.4746 61.2373C29.8629 61.5437 29.2626 61.8518 28.6738 62.1616L28.9061 62.6042ZM91.1381 46.5085L92.1684 46.4447L92.1379 45.9455L91.1076 46.0094L91.1381 46.5085ZM24.5366 65.0639C25.0952 64.7263 25.669 64.3896 26.2581 64.0538L26.0109 63.6193C25.4182 63.9572 24.8407 64.2961 24.2784 64.6358L24.5366 65.0639ZM95.181 46.3181C95.8744 46.3006 96.5441 46.2925 97.1901 46.2939L97.1917 45.7937C96.541 45.7924 95.8667 45.8005 95.1689 45.8181L95.181 46.3181ZM20.3361 67.8263C20.8638 67.4458 21.4131 67.0649 21.9841 66.6835L21.7069 66.2676C21.1308 66.6523 20.5765 67.0367 20.0441 67.4207L20.3361 67.8263ZM100.186 46.3765C100.882 46.4157 101.547 46.469 102.179 46.5363L102.232 46.039C101.592 45.9708 100.919 45.9168 100.215 45.8771L100.186 46.3765ZM16.4481 70.9882C16.9149 70.5515 17.4149 70.1118 17.9481 69.6691L17.6291 69.2843C17.0883 69.7333 16.5809 70.1796 16.1068 70.6231L16.4481 70.9882ZM105.147 47.0044C105.833 47.1548 106.471 47.3297 107.06 47.5291L107.221 47.0553C106.614 46.85 105.958 46.6702 105.254 46.5158L105.147 47.0044ZM13.2051 74.7633C13.5363 74.2408 13.9264 73.7089 14.3754 73.1675L13.9908 72.8483C13.5283 73.4061 13.1257 73.9553 12.783 74.4957L13.2051 74.7633ZM109.719 48.8053C110.281 49.1844 110.768 49.6106 111.181 50.0841L111.558 49.7554C111.117 49.2488 110.597 48.7939 109.999 48.3905L109.719 48.8053ZM11.8766 79.3495C11.8036 78.7397 11.8479 78.1026 12.0095 77.4379L11.5239 77.3201C11.348 78.0434 11.3001 78.7399 11.3803 79.4094L11.8766 79.3495ZM112.678 52.9624C112.811 53.4623 112.86 53.9825 112.825 54.523L113.324 54.5552C113.363 53.9598 113.308 53.3857 113.16 52.8327C113.128 52.71 113.093 52.5892 113.055 52.4702L112.578 52.6203C112.613 52.7324 112.647 52.8465 112.678 52.9624ZM14.4713 83.2135C13.9029 82.8174 13.4258 82.3917 13.04 81.9363L12.6586 82.2599C13.0724 82.7485 13.5813 83.2031 14.1855 83.6239L14.4713 83.2135ZM111.999 57.2797C111.72 57.8257 111.372 58.3837 110.957 58.9539L111.361 59.2484C111.792 58.6569 112.153 58.0765 112.443 57.5071L111.999 57.2797ZM18.9843 85.2179C18.3164 85.0259 17.6928 84.8158 17.1134 84.5876L16.9299 85.053C17.5241 85.287 18.1627 85.5023 18.8458 85.6987L18.9843 85.2179ZM108.998 61.2257C108.552 61.6762 108.07 62.1306 107.55 62.5887L107.881 62.9637C108.408 62.498 108.899 62.0359 109.353 61.5774L108.998 61.2257ZM23.8867 86.1984C23.2026 86.109 22.5441 86.0069 21.9113 85.8921L21.8217 86.3843C22.4626 86.5005 23.1292 86.6038 23.8215 86.6943L23.8867 86.1984ZM105.216 64.4879C104.691 64.8848 104.142 65.2825 103.568 65.6811L103.853 66.0919C104.432 65.6895 104.987 65.2879 105.517 64.8869L105.216 64.4879ZM28.9052 86.6075C28.216 86.5806 27.5438 86.5439 26.8885 86.4972L26.8525 86.9961C27.5133 87.0432 28.1909 87.0802 28.8853 87.1072L28.9052 86.6075ZM101.046 67.3401C100.496 67.6834 99.9306 68.0261 99.3491 68.368L99.602 68.7992C100.188 68.4549 100.757 68.1099 101.31 67.7642L101.046 67.3401ZM33.9319 86.6341C33.245 86.6515 32.5698 86.6607 31.9063 86.6617L31.9066 87.1619C32.5741 87.1608 33.2533 87.1516 33.9441 87.1342L33.9319 86.6341ZM96.7102 69.8549C96.1296 70.1689 95.5368 70.4814 94.932 70.7922L95.16 71.237C95.768 70.9245 96.3638 70.6105 96.9475 70.2949L96.7102 69.8549ZM38.9437 86.3776C38.2715 86.4283 37.6072 86.4722 36.951 86.5094L36.9788 87.0088C37.6382 86.9714 38.3055 86.9273 38.9808 86.8763L38.9437 86.3776ZM92.2323 72.1307L90.3883 72.9933L90.5996 73.4463L92.4436 72.5837L92.2323 72.1307ZM43.9537 85.8914L41.9724 86.1088L42.0264 86.6059L44.0077 86.3885L43.9537 85.8914ZM87.6447 74.2078L85.7602 74.9986L85.9532 75.4598L87.8377 74.669L87.6447 74.2078ZM48.9428 85.2099L46.9614 85.5026L47.034 85.9974L49.0154 85.7046L48.9428 85.2099ZM82.9781 76.1071L81.071 76.8289L81.2475 77.2966L83.1546 76.5748L82.9781 76.1071ZM53.9064 84.3554L51.932 84.7154L52.0213 85.2074L53.9956 84.8474L53.9064 84.3554ZM78.2491 77.8441L76.3221 78.5029L76.4833 78.9762L78.4102 78.3173L78.2491 77.8441ZM58.8408 83.3429L56.8777 83.7647L56.9822 84.2536L58.9453 83.8319L58.8408 83.3429ZM73.4676 79.4301L71.5221 80.03L71.6688 80.5079L73.6144 79.9081L73.4676 79.4301ZM63.743 82.1826L61.7939 82.6621L61.9128 83.1478L63.862 82.6682L63.743 82.1826ZM68.6409 80.8723L66.6841 81.4138L66.817 81.8959L68.7737 81.3543L68.6409 80.8723Z" fill="#1E293B"/>
</g>
</g>
<defs>
<filter id="filter0_d_329797_2477" x="74.9717" y="-4" width="52.0283" height="52.0795" filterUnits="userSpaceOnUse" color-interpolation-filters="sRGB">
<feFlood flood-opacity="0" result="BackgroundImageFix"/>
<feColorMatrix in="SourceAlpha" type="matrix" values="0 0 0 0 0 0 0 0 0 0 0 0 0 0 0 0 0 0 127 0" result="hardAlpha"/>
<feOffset/>
<feGaussianBlur stdDeviation="12"/>
<feColorMatrix type="matrix" values="0 0 0 0 0.850089 0 0 0 0 0.910047 0 0 0 0 0.9702 0 0 0 0.704805 0"/>
<feBlend mode="normal" in2="BackgroundImageFix" result="effect1_dropShadow_329797_2477"/>
<feBlend mode="normal" in="SourceGraphic" in2="effect1_dropShadow_329797_2477" result="shape"/>
</filter>
<filter id="filter1_d_329797_2477" x="-12" y="43.4238" width="55.4811" height="55.5762" filterUnits="userSpaceOnUse" color-interpolation-filters="sRGB">
<feFlood flood-opacity="0" result="BackgroundImageFix"/>
<feColorMatrix in="SourceAlpha" type="matrix" values="0 0 0 0 0 0 0 0 0 0 0 0 0 0 0 0 0 0 127 0" result="hardAlpha"/>
<feOffset/>
<feGaussianBlur stdDeviation="12"/>
<feColorMatrix type="matrix" values="0 0 0 0 0.850089 0 0 0 0 0.910047 0 0 0 0 0.9702 0 0 0 0.704805 0"/>
<feBlend mode="normal" in2="BackgroundImageFix" result="effect1_dropShadow_329797_2477"/>
<feBlend mode="normal" in="SourceGraphic" in2="effect1_dropShadow_329797_2477" result="shape"/>
</filter>
<linearGradient id="paint0_linear_329797_2477" x1="63.3629" y1="22.9868" x2="63.3629" y2="97" gradientUnits="userSpaceOnUse">
<stop offset="0.0571429" stop-color="#EBF5FF"/>
<stop offset="0.942857" stop-color="#F6FAFF"/>
</linearGradient>
<radialGradient id="paint1_radial_329797_2477" cx="0" cy="0" r="1" gradientTransform="matrix(-8.75 -9 8.75 -9 84.5 87)" gradientUnits="userSpaceOnUse">
<stop stop-color="white"/>
<stop offset="0.942857" stop-color="#B0E0FF"/>
</radialGradient>
<linearGradient id="paint2_linear_329797_2477" x1="65.5" y1="103" x2="65.5" y2="87.542" gradientUnits="userSpaceOnUse">
<stop offset="0.0285715" stop-color="#BFDCFF"/>
<stop offset="1" stop-color="#EDF8FF"/>
</linearGradient>
<linearGradient id="paint3_linear_329797_2477" x1="88.2447" y1="30.389" x2="45.6937" y2="92.0666" gradientUnits="userSpaceOnUse">
<stop offset="0.0571429" stop-color="#D8ECFF"/>
<stop offset="1" stop-color="#E2F7FF" stop-opacity="0.31"/>
</linearGradient>
<linearGradient id="paint4_linear_329797_2477" x1="77.2018" y1="29.4887" x2="50.5936" y2="90.1163" gradientUnits="userSpaceOnUse">
<stop stop-color="#C8DCFF"/>
<stop offset="0.992857" stop-color="#EBF6FF"/>
</linearGradient>
<linearGradient id="paint5_linear_329797_2477" x1="81.9737" y1="26.7827" x2="81.9737" y2="43.0277" gradientUnits="userSpaceOnUse">
<stop stop-color="#3284FF"/>
<stop offset="1" stop-color="#34A4FF"/>
</linearGradient>
<radialGradient id="paint6_radial_329797_2477" cx="0" cy="0" r="1" gradientTransform="matrix(-8.75 -9 8.75 -9 84.5 87)" gradientUnits="userSpaceOnUse">
<stop stop-color="white"/>
<stop offset="0.942857" stop-color="#B0E0FF"/>
</radialGradient>
<clipPath id="clip0_329797_2477">
<rect width="124" height="124" fill="white"/>
</clipPath>
</defs>
</svg>
