<svg width="124" height="124" viewBox="0 0 124 124" fill="none" xmlns="http://www.w3.org/2000/svg">
<g clip-path="url(#clip0_329797_2476)">
<mask id="mask0_329797_2476" style="mask-type:luminance" maskUnits="userSpaceOnUse" x="0" y="0" width="124" height="124">
<path d="M124 0H0V124H124V0Z" fill="white"/>
</mask>
<g mask="url(#mask0_329797_2476)">
<g filter="url(#filter0_d_329797_2476)">
<path d="M114.8 53.0004C114.8 53.1347 114.794 53.2686 114.78 53.4023C114.767 53.5359 114.748 53.6686 114.721 53.8003C114.695 53.932 114.663 54.0621 114.624 54.1906C114.585 54.3191 114.539 54.4453 114.488 54.5694C114.437 54.6934 114.379 54.8147 114.316 54.9331C114.253 55.0515 114.184 55.1666 114.109 55.2782C114.035 55.3899 113.955 55.4976 113.869 55.6014C113.784 55.7052 113.694 55.8046 113.599 55.8995C113.504 55.9945 113.405 56.0845 113.301 56.1697C113.197 56.2549 113.09 56.3348 112.978 56.4094C112.866 56.484 112.751 56.553 112.633 56.6163C112.514 56.6796 112.393 56.7369 112.269 56.7883C112.145 56.8397 112.019 56.8849 111.89 56.9238C111.762 56.9628 111.632 56.9954 111.5 57.0216C111.368 57.0478 111.236 57.0675 111.102 57.0807C110.968 57.0938 110.834 57.1004 110.7 57.1004C110.566 57.1004 110.432 57.0938 110.298 57.0807C110.165 57.0675 110.032 57.0478 109.9 57.0216C109.769 56.9954 109.638 56.9628 109.51 56.9238C109.381 56.8849 109.255 56.8397 109.131 56.7883C109.007 56.7369 108.886 56.6796 108.767 56.6163C108.649 56.553 108.534 56.484 108.422 56.4094C108.311 56.3348 108.203 56.2549 108.099 56.1697C107.995 56.0845 107.896 55.9945 107.801 55.8995C107.706 55.8046 107.616 55.7052 107.531 55.6014C107.446 55.4976 107.366 55.3899 107.291 55.2782C107.216 55.1666 107.148 55.0515 107.084 54.9331C107.021 54.8147 106.964 54.6934 106.912 54.5694C106.861 54.4453 106.816 54.3191 106.777 54.1906C106.738 54.0621 106.705 53.932 106.679 53.8003C106.653 53.6686 106.633 53.5359 106.62 53.4023C106.607 53.2686 106.6 53.1347 106.6 53.0004C106.6 52.8661 106.607 52.7322 106.62 52.5985C106.633 52.4649 106.653 52.3322 106.679 52.2005C106.705 52.0688 106.738 51.9387 106.777 51.8102C106.816 51.6817 106.861 51.5554 106.912 51.4314C106.964 51.3073 107.021 51.1861 107.084 51.0677C107.148 50.9492 107.216 50.8342 107.291 50.7225C107.366 50.6109 107.446 50.5032 107.531 50.3994C107.616 50.2956 107.706 50.1962 107.801 50.1012C107.896 50.0063 107.995 49.9162 108.099 49.831C108.203 49.7459 108.311 49.666 108.422 49.5914C108.534 49.5168 108.649 49.4478 108.767 49.3845C108.886 49.3212 109.007 49.2639 109.131 49.2125C109.255 49.1611 109.381 49.1159 109.51 49.0769C109.638 49.038 109.769 49.0054 109.9 48.9792C110.032 48.953 110.165 48.9333 110.298 48.9201C110.432 48.907 110.566 48.9004 110.7 48.9004C110.834 48.9004 110.968 48.907 111.102 48.9201C111.236 48.9333 111.368 48.953 111.5 48.9792C111.632 49.0054 111.762 49.038 111.89 49.0769C112.019 49.1159 112.145 49.1611 112.269 49.2125C112.393 49.2639 112.514 49.3212 112.633 49.3845C112.751 49.4478 112.866 49.5168 112.978 49.5914C113.09 49.666 113.197 49.7459 113.301 49.831C113.405 49.9162 113.504 50.0063 113.599 50.1012C113.694 50.1962 113.784 50.2956 113.869 50.3994C113.955 50.5032 114.035 50.6109 114.109 50.7225C114.184 50.8342 114.253 50.9492 114.316 51.0677C114.379 51.1861 114.437 51.3073 114.488 51.4314C114.539 51.5554 114.585 51.6817 114.624 51.8102C114.663 51.9387 114.695 52.0688 114.721 52.2005C114.748 52.3322 114.767 52.4649 114.78 52.5985C114.794 52.7322 114.8 52.8661 114.8 53.0004Z" fill="#8FBCFF"/>
</g>
<g opacity="0.5" filter="url(#filter1_d_329797_2476)">
<path d="M119.5 38.3C119.5 38.3917 119.495 38.4832 119.486 38.5745C119.477 38.6657 119.464 38.7563 119.446 38.8462C119.428 38.9362 119.406 39.025 119.379 39.1128C119.353 39.2006 119.322 39.2868 119.287 39.3715C119.252 39.4562 119.213 39.539 119.169 39.6199C119.126 39.7008 119.079 39.7793 119.028 39.8556C118.977 39.9318 118.923 40.0054 118.864 40.0763C118.806 40.1472 118.745 40.2151 118.68 40.2799C118.615 40.3447 118.547 40.4063 118.476 40.4644C118.405 40.5226 118.332 40.5772 118.256 40.6281C118.179 40.6791 118.101 40.7262 118.02 40.7694C117.939 40.8126 117.856 40.8518 117.771 40.8869C117.687 40.922 117.6 40.9528 117.513 40.9794C117.425 41.0061 117.336 41.0283 117.246 41.0462C117.156 41.0641 117.066 41.0775 116.974 41.0865C116.883 41.0955 116.792 41.1 116.7 41.1C116.608 41.1 116.517 41.0955 116.425 41.0865C116.334 41.0775 116.244 41.0641 116.154 41.0462C116.064 41.0283 115.975 41.0061 115.887 40.9794C115.799 40.9528 115.713 40.922 115.628 40.8869C115.544 40.8518 115.461 40.8126 115.38 40.7694C115.299 40.7262 115.221 40.6791 115.144 40.6281C115.068 40.5772 114.994 40.5226 114.924 40.4644C114.853 40.4063 114.785 40.3447 114.72 40.2799C114.655 40.2151 114.594 40.1472 114.535 40.0763C114.477 40.0054 114.423 39.9318 114.372 39.8556C114.321 39.7793 114.274 39.7008 114.231 39.6199C114.187 39.539 114.148 39.4562 114.113 39.3715C114.078 39.2868 114.047 39.2006 114.02 39.1128C113.994 39.025 113.972 38.9362 113.954 38.8462C113.936 38.7563 113.922 38.6657 113.913 38.5745C113.904 38.4832 113.9 38.3917 113.9 38.3C113.9 38.2083 113.904 38.1168 113.913 38.0256C113.922 37.9343 113.936 37.8437 113.954 37.7537C113.972 37.6638 113.994 37.575 114.02 37.4872C114.047 37.3994 114.078 37.3132 114.113 37.2285C114.148 37.1438 114.187 37.061 114.231 36.9801C114.274 36.8992 114.321 36.8207 114.372 36.7444C114.423 36.6682 114.477 36.5946 114.535 36.5237C114.594 36.4528 114.655 36.3849 114.72 36.3201C114.785 36.2553 114.853 36.1937 114.924 36.1356C114.994 36.0774 115.068 36.0228 115.144 35.9719C115.221 35.9209 115.299 35.8738 115.38 35.8306C115.461 35.7874 115.544 35.7482 115.628 35.7131C115.713 35.678 115.799 35.6472 115.887 35.6206C115.975 35.5939 116.064 35.5717 116.154 35.5538C116.244 35.5359 116.334 35.5225 116.425 35.5135C116.517 35.5045 116.608 35.5 116.7 35.5C116.792 35.5 116.883 35.5045 116.974 35.5135C117.066 35.5225 117.156 35.5359 117.246 35.5538C117.336 35.5717 117.425 35.5939 117.513 35.6206C117.6 35.6472 117.687 35.678 117.771 35.7131C117.856 35.7482 117.939 35.7874 118.02 35.8306C118.101 35.8738 118.179 35.9209 118.256 35.9719C118.332 36.0228 118.405 36.0774 118.476 36.1356C118.547 36.1937 118.615 36.2553 118.68 36.3201C118.745 36.3849 118.806 36.4528 118.864 36.5237C118.923 36.5946 118.977 36.6682 119.028 36.7444C119.079 36.8207 119.126 36.8992 119.169 36.9801C119.213 37.061 119.252 37.1438 119.287 37.2285C119.322 37.3132 119.353 37.3994 119.379 37.4872C119.406 37.575 119.428 37.6638 119.446 37.7537C119.464 37.8437 119.477 37.9343 119.486 38.0256C119.495 38.1168 119.5 38.2083 119.5 38.3Z" fill="#8FBCFF"/>
</g>
<path d="M19.6 48.3C19.6 48.3917 19.5955 48.4832 19.5865 48.5745C19.5775 48.6657 19.5641 48.7563 19.5462 48.8462C19.5283 48.9362 19.506 49.025 19.4794 49.1128C19.4528 49.2006 19.422 49.2868 19.3869 49.3715C19.3518 49.4562 19.3126 49.539 19.2694 49.6199C19.2262 49.7008 19.1791 49.7793 19.1281 49.8556C19.0772 49.9318 19.0226 50.0054 18.9644 50.0763C18.9062 50.1472 18.8447 50.2151 18.7799 50.2799C18.7151 50.3447 18.6472 50.4063 18.5763 50.4644C18.5054 50.5226 18.4318 50.5772 18.3556 50.6281C18.2793 50.6791 18.2008 50.7262 18.1199 50.7694C18.039 50.8126 17.9562 50.8518 17.8715 50.8869C17.7868 50.922 17.7006 50.9528 17.6128 50.9794C17.525 51.0061 17.4362 51.0283 17.3463 51.0462C17.2563 51.0641 17.1657 51.0775 17.0744 51.0865C16.9832 51.0955 16.8917 51.1 16.8 51.1C16.7083 51.1 16.6168 51.0955 16.5256 51.0865C16.4343 51.0775 16.3437 51.0641 16.2537 51.0462C16.1638 51.0283 16.075 51.0061 15.9872 50.9794C15.8994 50.9528 15.8132 50.922 15.7285 50.8869C15.6438 50.8518 15.561 50.8126 15.4801 50.7694C15.3992 50.7262 15.3207 50.6791 15.2444 50.6281C15.1682 50.5772 15.0946 50.5226 15.0237 50.4644C14.9528 50.4063 14.8849 50.3447 14.8201 50.2799C14.7553 50.2151 14.6937 50.1472 14.6356 50.0763C14.5774 50.0054 14.5228 49.9318 14.4719 49.8556C14.4209 49.7793 14.3738 49.7008 14.3306 49.6199C14.2874 49.539 14.2482 49.4562 14.2131 49.3715C14.178 49.2868 14.1472 49.2006 14.1206 49.1128C14.0939 49.025 14.0717 48.9362 14.0538 48.8462C14.0359 48.7563 14.0225 48.6657 14.0135 48.5745C14.0045 48.4832 14 48.3917 14 48.3C14 48.2083 14.0045 48.1168 14.0135 48.0256C14.0225 47.9343 14.0359 47.8437 14.0538 47.7537C14.0717 47.6638 14.0939 47.575 14.1206 47.4872C14.1472 47.3994 14.178 47.3132 14.2131 47.2285C14.2482 47.1438 14.2874 47.061 14.3306 46.9801C14.3738 46.8992 14.4209 46.8207 14.4719 46.7444C14.5228 46.6682 14.5774 46.5946 14.6356 46.5237C14.6937 46.4528 14.7553 46.3849 14.8201 46.3201C14.8849 46.2553 14.9528 46.1937 15.0237 46.1356C15.0946 46.0774 15.1682 46.0228 15.2444 45.9719C15.3207 45.9209 15.3992 45.8738 15.4801 45.8306C15.561 45.7874 15.6438 45.7482 15.7285 45.7131C15.8132 45.678 15.8994 45.6472 15.9872 45.6206C16.075 45.5939 16.1638 45.5717 16.2537 45.5538C16.3437 45.5359 16.4343 45.5225 16.5256 45.5135C16.6168 45.5045 16.7083 45.5 16.8 45.5C16.8917 45.5 16.9832 45.5045 17.0744 45.5135C17.1657 45.5225 17.2563 45.5359 17.3463 45.5538C17.4362 45.5717 17.525 45.5939 17.6128 45.6206C17.7006 45.6472 17.7868 45.678 17.8715 45.7131C17.9562 45.7482 18.039 45.7874 18.1199 45.8306C18.2008 45.8738 18.2793 45.9209 18.3556 45.9719C18.4318 46.0228 18.5054 46.0774 18.5763 46.1356C18.6472 46.1937 18.7151 46.2553 18.7799 46.3201C18.8447 46.3849 18.9062 46.4528 18.9644 46.5237C19.0226 46.5946 19.0772 46.6682 19.1281 46.7444C19.1791 46.8207 19.2262 46.8992 19.2694 46.9801C19.3126 47.061 19.3518 47.1438 19.3869 47.2285C19.422 47.3132 19.4528 47.3994 19.4794 47.4872C19.506 47.575 19.5283 47.6638 19.5462 47.7537C19.5641 47.8437 19.5775 47.9343 19.5865 48.0256C19.5955 48.1168 19.6 48.2083 19.6 48.3Z" fill="#438DFB"/>
<g opacity="0.5" filter="url(#filter2_d_329797_2476)">
<path d="M14.4 90.7C14.4 90.7851 14.3979 90.8701 14.3937 90.9551C14.3896 91.0401 14.3833 91.125 14.375 91.2097C14.3666 91.2944 14.3562 91.3788 14.3437 91.463C14.3312 91.5472 14.3167 91.631 14.3001 91.7145C14.2835 91.7979 14.2649 91.8809 14.2442 91.9635C14.2235 92.046 14.2008 92.128 14.1761 92.2095C14.1514 92.2909 14.1247 92.3717 14.096 92.4518C14.0673 92.532 14.0367 92.6113 14.0042 92.6899C13.9716 92.7686 13.9371 92.8464 13.9007 92.9233C13.8644 93.0002 13.8261 93.0762 13.786 93.1513C13.7459 93.2263 13.7039 93.3003 13.6602 93.3733C13.6164 93.4463 13.5709 93.5182 13.5236 93.589C13.4764 93.6597 13.4274 93.7293 13.3767 93.7976C13.326 93.866 13.2736 93.9331 13.2197 93.9988C13.1657 94.0646 13.1101 94.129 13.0529 94.1921C12.9958 94.2552 12.9371 94.3168 12.877 94.377C12.8168 94.4371 12.7552 94.4958 12.6921 94.5529C12.6291 94.6101 12.5646 94.6657 12.4988 94.7197C12.4331 94.7736 12.366 94.826 12.2976 94.8767C12.2293 94.9274 12.1597 94.9764 12.089 95.0236C12.0182 95.0709 11.9463 95.1164 11.8733 95.1602C11.8003 95.2039 11.7263 95.2459 11.6513 95.286C11.5762 95.3261 11.5002 95.3644 11.4233 95.4007C11.3464 95.4371 11.2686 95.4716 11.1899 95.5042C11.1113 95.5367 11.032 95.5673 10.9518 95.596C10.8717 95.6247 10.7909 95.6514 10.7095 95.6761C10.628 95.7008 10.546 95.7235 10.4635 95.7442C10.3809 95.7649 10.2979 95.7835 10.2145 95.8001C10.131 95.8167 10.0472 95.8312 9.963 95.8437C9.87882 95.8562 9.79438 95.8666 9.70969 95.875C9.625 95.8833 9.54015 95.8896 9.45515 95.8937C9.37015 95.8979 9.2851 95.9 9.2 95.9C9.1149 95.9 9.02985 95.8979 8.94485 95.8937C8.85985 95.8896 8.775 95.8833 8.69031 95.875C8.60562 95.8666 8.52118 95.8562 8.437 95.8437C8.35282 95.8312 8.269 95.8167 8.18553 95.8001C8.10206 95.7835 8.01905 95.7649 7.9365 95.7442C7.85395 95.7235 7.77196 95.7008 7.69052 95.6761C7.60908 95.6514 7.5283 95.6247 7.44817 95.596C7.36804 95.5673 7.28867 95.5367 7.21005 95.5042C7.13142 95.4716 7.05364 95.4371 6.97671 95.4007C6.89978 95.3644 6.82379 95.3261 6.74874 95.286C6.67369 95.2459 6.59966 95.2039 6.52667 95.1602C6.45367 95.1164 6.38179 95.0709 6.31103 95.0236C6.24028 94.9764 6.17072 94.9274 6.10236 94.8767C6.03401 94.826 5.96694 94.7736 5.90115 94.7197C5.83537 94.6657 5.77095 94.6101 5.70789 94.5529C5.64484 94.4958 5.58322 94.4371 5.52304 94.377C5.46287 94.3168 5.4042 94.2552 5.34705 94.1921C5.2899 94.129 5.23434 94.0646 5.18035 93.9988C5.12636 93.9331 5.07401 93.866 5.02332 93.7976C4.97263 93.7293 4.92364 93.6597 4.87636 93.589C4.82908 93.5182 4.78356 93.4463 4.73981 93.3733C4.69606 93.3003 4.65413 93.2263 4.61401 93.1513C4.57389 93.0762 4.53564 93.0002 4.49926 92.9233C4.46287 92.8464 4.42839 92.7686 4.39583 92.6899C4.36326 92.6113 4.33264 92.532 4.30397 92.4518C4.2753 92.3717 4.24861 92.2909 4.22391 92.2095C4.19921 92.128 4.17652 92.046 4.15584 91.9635C4.13516 91.8809 4.11652 91.7979 4.09992 91.7145C4.08331 91.631 4.06877 91.5472 4.05628 91.463C4.0438 91.3788 4.03338 91.2944 4.02504 91.2097C4.0167 91.125 4.01044 91.0401 4.00626 90.9551C4.00209 90.8701 4 90.7851 4 90.7C4 90.6149 4.00209 90.5298 4.00626 90.4448C4.01044 90.3598 4.0167 90.275 4.02504 90.1903C4.03338 90.1056 4.0438 90.0212 4.05628 89.937C4.06877 89.8528 4.08331 89.769 4.09992 89.6855C4.11652 89.6021 4.13516 89.5191 4.15584 89.4365C4.17652 89.354 4.19921 89.272 4.22391 89.1905C4.24861 89.1091 4.2753 89.0283 4.30397 88.9482C4.33264 88.868 4.36326 88.7887 4.39583 88.7101C4.42839 88.6314 4.46287 88.5536 4.49926 88.4767C4.53564 88.3998 4.57389 88.3238 4.61401 88.2487C4.65413 88.1737 4.69606 88.0997 4.73981 88.0267C4.78356 87.9537 4.82908 87.8818 4.87636 87.811C4.92364 87.7403 4.97263 87.6707 5.02332 87.6024C5.07401 87.534 5.12636 87.4669 5.18035 87.4012C5.23434 87.3354 5.2899 87.271 5.34705 87.2079C5.4042 87.1448 5.46287 87.0832 5.52304 87.023C5.58322 86.9629 5.64484 86.9042 5.70789 86.8471C5.77095 86.7899 5.83537 86.7343 5.90115 86.6804C5.96694 86.6264 6.03401 86.574 6.10236 86.5233C6.17072 86.4726 6.24028 86.4236 6.31103 86.3764C6.38179 86.3291 6.45367 86.2836 6.52667 86.2398C6.59966 86.1961 6.67369 86.1541 6.74874 86.114C6.82379 86.0739 6.89978 86.0356 6.97671 85.9993C7.05364 85.9629 7.13142 85.9284 7.21005 85.8958C7.28867 85.8633 7.36804 85.8326 7.44817 85.804C7.5283 85.7753 7.60908 85.7486 7.69052 85.7239C7.77196 85.6992 7.85395 85.6765 7.9365 85.6558C8.01905 85.6352 8.10206 85.6165 8.18553 85.5999C8.269 85.5833 8.35282 85.5688 8.437 85.5563C8.52118 85.5438 8.60562 85.5334 8.69031 85.525C8.775 85.5167 8.85985 85.5104 8.94485 85.5063C9.02985 85.5021 9.1149 85.5 9.2 85.5C9.2851 85.5 9.37015 85.5021 9.45515 85.5063C9.54015 85.5104 9.625 85.5167 9.70969 85.525C9.79438 85.5334 9.87882 85.5438 9.963 85.5563C10.0472 85.5688 10.131 85.5833 10.2145 85.5999C10.2979 85.6165 10.3809 85.6352 10.4635 85.6558C10.546 85.6765 10.628 85.6992 10.7095 85.7239C10.7909 85.7486 10.8717 85.7753 10.9518 85.804C11.032 85.8326 11.1113 85.8633 11.1899 85.8958C11.2686 85.9284 11.3464 85.9629 11.4233 85.9993C11.5002 86.0356 11.5762 86.0739 11.6513 86.114C11.7263 86.1541 11.8003 86.1961 11.8733 86.2398C11.9463 86.2836 12.0182 86.3291 12.089 86.3764C12.1597 86.4236 12.2293 86.4726 12.2976 86.5233C12.366 86.574 12.4331 86.6264 12.4988 86.6804C12.5646 86.7343 12.6291 86.7899 12.6921 86.8471C12.7552 86.9042 12.8168 86.9629 12.877 87.023C12.9371 87.0832 12.9958 87.1448 13.0529 87.2079C13.1101 87.271 13.1657 87.3354 13.2197 87.4012C13.2736 87.4669 13.326 87.534 13.3767 87.6024C13.4274 87.6707 13.4764 87.7403 13.5236 87.811C13.5709 87.8818 13.6164 87.9537 13.6602 88.0267C13.7039 88.0997 13.7459 88.1737 13.786 88.2487C13.8261 88.3238 13.8644 88.3998 13.9007 88.4767C13.9371 88.5536 13.9716 88.6314 14.0042 88.7101C14.0367 88.7887 14.0673 88.868 14.096 88.9482C14.1247 89.0283 14.1514 89.1091 14.1761 89.1905C14.2008 89.272 14.2235 89.354 14.2442 89.4365C14.2649 89.5191 14.2835 89.6021 14.3001 89.6855C14.3167 89.769 14.3312 89.8528 14.3437 89.937C14.3562 90.0212 14.3666 90.1056 14.375 90.1903C14.3833 90.275 14.3896 90.3598 14.3937 90.4448C14.3979 90.5298 14.4 90.6149 14.4 90.7Z" fill="#8FBCFF"/>
</g>
<path d="M62.4433 117.5C87.9398 117.5 108.61 96.6902 108.61 70.9298C108.61 45.1694 87.9398 24.3594 62.4433 24.3594C36.9468 24.3594 16.2764 45.1694 16.2764 70.9298C16.2764 96.6902 36.9468 117.5 62.4433 117.5Z" fill="#EEF6FF"/>
<path d="M61.5 105.5C77.7924 105.5 91 103.933 91 102C91 100.067 77.7924 98.5 61.5 98.5C45.2076 98.5 32 100.067 32 102C32 103.933 45.2076 105.5 61.5 105.5Z" fill="#BFDCFF"/>
<path d="M67.7062 30.4189H54.9948C53.4759 30.4189 52.2446 31.6503 52.2446 33.1692C52.2446 34.6881 53.4759 35.9194 54.9948 35.9194H67.7062C69.2251 35.9194 70.4564 34.6881 70.4564 33.1692C70.4564 31.6503 69.2251 30.4189 67.7062 30.4189Z" fill="#438DFB"/>
<path d="M28 70.5V61.5C28 59.8431 26.6569 58.5 25 58.5C23.3431 58.5 22 59.8431 22 61.5V70.5C22 72.1569 23.3431 73.5 25 73.5C26.6569 73.5 28 72.1569 28 70.5Z" fill="#438DFB"/>
<path d="M101 70.5V61.5C101 59.8431 99.6569 58.5 98 58.5C96.3431 58.5 95 59.8431 95 61.5V70.5C95 72.1569 96.3431 73.5 98 73.5C99.6569 73.5 101 72.1569 101 70.5Z" fill="#438DFB"/>
<path d="M64.0894 40.0582V36.3544C64.0894 34.8457 62.8664 33.6226 61.3577 33.6226C59.8489 33.6226 58.6259 34.8457 58.6259 36.3544V40.0582C58.6259 41.5669 59.8489 42.79 61.3577 42.79C62.8664 42.79 64.0894 41.5669 64.0894 40.0582Z" fill="#438DFB"/>
<path d="M83 41.5H39C32.3726 41.5 27 46.8726 27 53.5V78.5C27 85.1274 32.3726 90.5 39 90.5H83C89.6274 90.5 95 85.1274 95 78.5V53.5C95 46.8726 89.6274 41.5 83 41.5Z" fill="white"/>
<path d="M83 42H39C32.6487 42 27.5 47.1487 27.5 53.5V78.5C27.5 84.8513 32.6487 90 39 90H83C89.3513 90 94.5 84.8513 94.5 78.5V53.5C94.5 47.1487 89.3513 42 83 42Z" stroke="#1E293B"/>
<path d="M81.5791 46.9199H40.2119C35.7936 46.9199 32.2119 50.5016 32.2119 54.9199V77.423C32.2119 81.8413 35.7936 85.423 40.2119 85.423H81.5791C85.9973 85.423 89.5791 81.8413 89.5791 77.423V54.9199C89.5791 50.5016 85.9973 46.9199 81.5791 46.9199Z" fill="#D9EAFF"/>
<path d="M50.3325 67.9962C51.9716 67.9962 53.3375 66.6211 53.3375 64.971C53.3375 63.3209 51.9716 61.9457 50.3325 61.9457C48.6935 61.9457 47.3276 63.3209 47.3276 64.971C47.3276 66.6211 48.6935 67.9962 50.3325 67.9962Z" fill="white"/>
<path fill-rule="evenodd" clip-rule="evenodd" d="M47.5059 67.8071C48.2933 68.5999 49.2355 68.9962 50.3325 68.9962C51.4295 68.9962 52.3717 68.5999 53.1591 67.8071C53.9447 67.0163 54.3375 66.0709 54.3375 64.971C54.3375 63.8711 53.9447 62.9257 53.1591 62.1348C52.3717 61.3421 51.4295 60.9457 50.3325 60.9457C49.2355 60.9457 48.2933 61.3421 47.5059 62.1348C46.7204 62.9257 46.3276 63.8711 46.3276 64.971C46.3276 66.0709 46.7204 67.0163 47.5059 67.8071ZM53.3375 64.971C53.3375 66.6211 51.9716 67.9962 50.3325 67.9962C48.6935 67.9962 47.3276 66.6211 47.3276 64.971C47.3276 63.3209 48.6935 61.9457 50.3325 61.9457C51.9716 61.9457 53.3375 63.3209 53.3375 64.971Z" fill="#1E293B"/>
<path d="M73.7349 67.904C75.374 67.904 76.7399 66.5289 76.7399 64.8788C76.7399 63.2286 75.374 61.8535 73.7349 61.8535C72.0959 61.8535 70.73 63.2286 70.73 64.8788C70.73 66.6206 72.0959 67.904 73.7349 67.904Z" fill="white"/>
<path fill-rule="evenodd" clip-rule="evenodd" d="M70.9158 67.7567C71.6917 68.5216 72.6314 68.904 73.7349 68.904C74.8319 68.904 75.7741 68.5076 76.5615 67.7149C77.3471 66.924 77.7399 65.9787 77.7399 64.8788C77.7399 63.7789 77.3471 62.8335 76.5615 62.0426C75.7741 61.2499 74.8319 60.8535 73.7349 60.8535C72.6379 60.8535 71.6957 61.2499 70.9083 62.0426C70.1228 62.8335 69.73 63.7789 69.73 64.8788C69.73 66.0181 70.1252 66.9774 70.9158 67.7567ZM76.7399 64.8788C76.7399 66.5289 75.374 67.904 73.7349 67.904C72.0959 67.904 70.73 66.6206 70.73 64.8788C70.73 63.2286 72.0959 61.8535 73.7349 61.8535C75.374 61.8535 76.7399 63.2286 76.7399 64.8788Z" fill="#1E293B"/>
<path fill-rule="evenodd" clip-rule="evenodd" d="M97.387 10.7309C98.0517 10.7386 98.7159 10.7567 99.3795 10.785L99.4222 9.78594C98.7483 9.75712 98.0737 9.73879 97.3986 9.73095L97.387 10.7309ZM93.4001 10.8085C94.0639 10.7749 94.7282 10.7517 95.393 10.7387L95.3736 9.73892C94.6984 9.75206 94.0237 9.7757 93.3495 9.80983L93.4001 10.8085ZM101.368 10.9012C102.032 10.9503 102.694 11.0098 103.354 11.0796L103.459 10.0852C102.788 10.0142 102.116 9.95381 101.442 9.90388L101.368 10.9012ZM89.4269 11.1341C90.0865 11.0592 90.7477 10.9946 91.4106 10.9403L91.3289 9.94369C90.6557 9.99884 89.9841 10.0644 89.3141 10.1405L89.4269 11.1341ZM105.335 11.3208C105.994 11.4116 106.651 11.5128 107.305 11.6243L107.473 10.6385C106.808 10.5253 106.141 10.4225 105.471 10.3301L105.335 11.3208ZM85.4832 11.7082C86.1367 11.5918 86.7927 11.4857 87.4514 11.3899L87.3075 10.4003C86.6383 10.4976 85.9718 10.6054 85.3079 10.7237L85.4832 11.7082ZM109.257 11.9894L110.237 12.1975L110.444 11.2193L109.464 11.0112L109.257 11.9894ZM81.5826 12.5327C82.2264 12.3747 82.8739 12.2269 83.5251 12.0893L83.3183 11.1109C82.6566 11.2508 81.9985 11.401 81.3442 11.5616L81.5826 12.5327ZM78.7904 13.2889L79.6617 13.0375L79.3845 12.0767L78.5132 12.328C78.1262 12.4466 77.7753 12.5585 77.4606 12.6638L77.778 13.6121C78.0846 13.5095 78.4221 13.4018 78.7904 13.2889ZM74.1902 15.2118C74.6996 14.894 75.2788 14.5942 75.9279 14.3124L75.5295 13.3951C74.8351 13.6967 74.2123 14.0194 73.661 14.3633L74.1902 15.2118ZM71.466 17.814C71.8197 17.2719 72.2246 16.791 72.6809 16.3714L72.0039 15.6354C71.4862 16.1116 71.0278 16.6556 70.6285 17.2676L71.466 17.814ZM70.1446 21.3571C70.2368 20.7225 70.3938 20.1066 70.6156 19.5092L69.6781 19.1612C69.4318 19.8248 69.2574 20.5088 69.155 21.2133L70.1446 21.3571ZM73.6065 21.6078C74.2591 21.4266 74.8904 21.3035 75.5005 21.2385L75.3945 20.2441C74.7298 20.3149 74.0446 20.4483 73.339 20.6443L73.6065 21.6078ZM77.39 21.2377C78.0347 21.3119 78.6441 21.4598 79.2183 21.6815L79.5785 20.7486C78.9249 20.4962 78.2335 20.3281 77.5044 20.2443L77.39 21.2377ZM70.0524 23.0599C70.6316 22.7544 71.1987 22.486 71.7536 22.2547L71.3688 21.3317C70.7861 21.5746 70.1918 21.8558 69.5859 22.1753L69.5162 22.2136L69.9978 23.09L70.0524 23.0599ZM81.7373 23.4986C81.8619 23.6397 81.9779 23.791 82.0852 23.9526L82.9181 23.3993C82.788 23.2033 82.6471 23.0191 82.4955 22.8465C82.1893 22.4627 81.8409 22.1164 81.4504 21.8075L80.83 22.5917C81.1635 22.8555 81.4604 23.1512 81.7206 23.4787L81.7287 23.4889L81.7373 23.4986ZM70.3036 24.694C70.1851 24.2302 70.1083 23.7523 70.073 23.2603L69.0756 23.3317C69.1151 23.8833 69.2014 24.4199 69.3347 24.9415C69.3755 25.1012 69.4209 25.2601 69.4708 25.4181L70.4243 25.1167C70.38 24.9765 70.3397 24.8356 70.3036 24.694ZM66.6996 25.2413C67.2261 24.8404 67.7642 24.4606 68.314 24.1019L67.7675 23.2644C67.1975 23.6363 66.6396 24.03 66.0938 24.4456L66.6996 25.2413ZM82.7821 25.6339C82.9141 26.2493 82.9356 26.8591 82.8465 27.4631L83.8358 27.609C83.9425 26.8857 83.9171 26.1574 83.7598 25.4242L82.7821 25.6339ZM63.7367 27.8491C64.1993 27.3801 64.6771 26.9286 65.1701 26.4945L64.5092 25.744C63.9987 26.1936 63.5039 26.6612 63.0248 27.1468L63.7367 27.8491ZM72.3501 28.3547C71.9097 27.8908 71.5271 27.3869 71.2024 26.843L70.3438 27.3556C70.7065 27.9631 71.1335 28.5256 71.6249 29.0432L72.3501 28.3547ZM61.166 30.8487C61.5579 30.3204 61.9684 29.8059 62.3975 29.3052L61.6382 28.6545C61.1939 29.1729 60.7688 29.7057 60.3629 30.2529L61.166 30.8487ZM82.248 29.1156C81.9023 29.585 81.4523 29.9779 80.8982 30.2944L81.3941 31.1627C82.0707 30.7763 82.6237 30.2917 83.0532 29.7087L82.248 29.1156ZM75.4801 30.4514C74.8914 30.2271 74.3315 29.9366 73.8002 29.58L73.2428 30.4103C73.8373 30.8093 74.4643 31.1345 75.124 31.3859L75.4801 30.4514ZM79.168 30.9159C78.5425 31.0289 77.9292 31.037 77.3281 30.9403L77.1692 31.9275C77.8827 32.0423 78.6083 32.0331 79.3458 31.8999L79.168 30.9159ZM59.0451 34.1786C59.3573 33.6004 59.6911 33.0325 60.0465 32.4748L59.2032 31.9374C58.8348 32.5154 58.4888 33.1041 58.1652 33.7035L59.0451 34.1786ZM57.4355 37.7715C57.6573 37.1562 57.9032 36.5475 58.1731 35.9455L57.2606 35.5364C56.9804 36.1614 56.7251 36.7934 56.4947 37.4324L57.4355 37.7715ZM56.3542 41.5657C56.4896 40.9209 56.6483 40.2838 56.8301 39.6544L55.8694 39.3768C55.6807 40.03 55.5161 40.6911 55.3756 41.3602L56.3542 41.5657ZM55.8279 45.4708C55.8685 44.813 55.9326 44.159 56.0201 43.5088L55.0291 43.3754C54.9383 44.0494 54.8719 44.7274 54.8298 45.4092L55.8279 45.4708ZM55.8651 49.4121C55.8123 48.7557 55.7828 48.0989 55.7766 47.4419L54.7766 47.4514C54.7831 48.132 54.8137 48.8122 54.8683 49.4922L55.8651 49.4121ZM56.4563 53.3102C56.3122 52.6686 56.1908 52.0224 56.0921 51.3716L55.1034 51.5216C55.2057 52.1955 55.3314 52.8647 55.4806 53.5293L56.4563 53.3102ZM57.5911 57.0881C57.3576 56.4736 57.146 55.8504 56.9562 55.2184L55.9985 55.5059C56.1951 56.1607 56.4143 56.8065 56.6563 57.4433L57.5911 57.0881ZM58.791 59.7931C58.6415 59.5005 58.4973 59.2049 58.3583 58.9063L57.4517 59.3283C57.5959 59.638 57.7454 59.9446 57.9004 60.248L58.791 59.7931Z" fill="#475F7D"/>
<path d="M66.8019 74.4219H57.7206C56.708 74.4219 55.8871 75.2428 55.8871 76.2554C55.8871 77.268 56.708 78.0888 57.7206 78.0888H66.8019C67.8145 78.0888 68.6354 77.268 68.6354 76.2554C68.6354 75.2428 67.8145 74.4219 66.8019 74.4219Z" fill="white"/>
<path fill-rule="evenodd" clip-rule="evenodd" d="M54.8871 76.2554C54.8871 77.0378 55.1638 77.7057 55.7171 78.2589C56.2703 78.8122 56.9382 79.0888 57.7206 79.0888H66.8019C67.5843 79.0888 68.2522 78.8122 68.8055 78.2589C69.3588 77.7057 69.6354 77.0378 69.6354 76.2554C69.6354 75.4729 69.3588 74.8051 68.8055 74.2518C68.2522 73.6985 67.5843 73.4219 66.8019 73.4219H57.7206C56.9382 73.4219 56.2703 73.6985 55.7171 74.2518C55.1638 74.8051 54.8871 75.4729 54.8871 76.2554ZM57.7206 74.4219H66.8019C67.8145 74.4219 68.6354 75.2428 68.6354 76.2554C68.6354 77.268 67.8145 78.0888 66.8019 78.0888H57.7206C56.708 78.0888 55.8871 77.268 55.8871 76.2554C55.8871 75.2428 56.708 74.4219 57.7206 74.4219Z" fill="#1E293B"/>
<path d="M115.804 9.32473C115.713 10.6998 115.622 11.9833 114.62 12.2583C113.619 12.5333 113.163 11.6166 112.526 10.3331C111.889 9.14138 112.253 7.85795 113.346 7.58293C114.347 7.3079 115.986 7.6746 115.804 9.32473Z" fill="url(#paint0_radial_329797_2476)"/>
<path fill-rule="evenodd" clip-rule="evenodd" d="M114.62 12.2583C115.622 11.9833 115.713 10.6998 115.804 9.32473C115.986 7.6746 114.347 7.3079 113.346 7.58293C112.253 7.85795 111.889 9.14138 112.526 10.3331C113.163 11.6166 113.619 12.5333 114.62 12.2583ZM114.806 9.25866L114.808 9.2368L114.81 9.21503C114.843 8.92116 114.76 8.72317 114.561 8.62108C114.278 8.47548 113.954 8.45268 113.59 8.55268C113.415 8.59659 113.301 8.71098 113.247 8.89585C113.163 9.18172 113.216 9.50361 113.408 9.86152L113.415 9.87482L113.422 9.88834C113.776 10.6017 114.029 11.043 114.181 11.2123C114.229 11.2653 114.263 11.2969 114.283 11.3072C114.301 11.3069 114.325 11.3025 114.356 11.294C114.57 11.2351 114.72 10.5566 114.806 9.25866Z" fill="#475F7D"/>
<path d="M114.711 15.9253C114.985 14.2751 115.258 13.3584 114.347 12.9C113.346 12.4416 112.708 13.2667 111.615 14.3668C110.705 15.3752 111.251 16.842 112.162 17.3004C113.254 17.8504 114.438 17.3004 114.711 15.9253Z" fill="url(#paint1_radial_329797_2476)"/>
<path fill-rule="evenodd" clip-rule="evenodd" d="M114.711 15.9253C114.74 15.7547 114.768 15.592 114.795 15.4369C115.028 14.0906 115.164 13.311 114.347 12.9C113.449 12.4892 112.844 13.1094 111.942 14.0346C111.837 14.1417 111.729 14.2527 111.615 14.3668C110.705 15.3752 111.251 16.842 112.162 17.3004C113.254 17.8504 114.438 17.3004 114.711 15.9253ZM113.969 13.9115C113.964 13.8602 113.945 13.8233 113.911 13.8008C113.826 13.7687 113.739 13.7785 113.65 13.8303C113.477 13.9309 113.146 14.2318 112.657 14.733C112.525 14.8684 112.421 14.9746 112.345 15.0515C112.161 15.263 112.105 15.5121 112.176 15.7989C112.25 16.0954 112.395 16.2982 112.611 16.4072C112.864 16.5344 113.089 16.5473 113.286 16.446C113.508 16.3315 113.655 16.0976 113.728 15.7444C113.747 15.6293 113.774 15.4698 113.81 15.2659C113.934 14.5506 113.987 14.0991 113.969 13.9115Z" fill="#475F7D"/>
<path d="M115.986 12.9C115.895 13.5417 115.44 14.0001 114.802 14.0918C114.529 14.0918 114.256 14.0918 113.892 14.0918C112.617 13.9084 111.615 13.0834 111.706 12.2583C111.797 11.4332 112.981 10.9749 114.438 11.1582C114.711 11.1582 114.985 11.2499 115.167 11.3416C115.713 11.5249 116.077 12.1666 115.986 12.9Z" fill="#F1F3F9"/>
<path fill-rule="evenodd" clip-rule="evenodd" d="M115.986 12.9C115.895 13.5417 115.44 14.0001 114.802 14.0918C114.529 14.0918 114.256 14.0918 113.892 14.0918C112.617 13.9084 111.615 13.0834 111.706 12.2583C111.797 11.4332 112.981 10.9749 114.438 11.1582C114.711 11.1582 114.985 11.2499 115.167 11.3416C115.713 11.5249 116.077 12.1666 115.986 12.9Z" fill="url(#paint2_radial_329797_2476)"/>
<path fill-rule="evenodd" clip-rule="evenodd" d="M114.438 11.1582C112.981 10.9749 111.797 11.4332 111.706 12.2583C111.615 13.0834 112.617 13.9084 113.892 14.0918H114.802C115.44 14.0001 115.895 13.5417 115.986 12.9C116.077 12.1666 115.713 11.5249 115.167 11.3416C114.985 11.2499 114.711 11.1582 114.438 11.1582ZM114.995 12.7676C114.968 12.9442 114.874 13.0523 114.713 13.0918H113.968C113.545 13.0218 113.198 12.8738 112.927 12.6478C112.828 12.5645 112.758 12.485 112.719 12.4094C112.715 12.4005 112.711 12.3923 112.708 12.3849C112.754 12.3417 112.828 12.2998 112.93 12.2592C113.29 12.1159 113.751 12.0796 114.313 12.1504L114.376 12.1582H114.438C114.523 12.1582 114.616 12.1837 114.717 12.2348L114.781 12.2669L114.849 12.2896C114.876 12.2987 114.904 12.3316 114.935 12.3883C114.992 12.4941 115.012 12.6205 114.995 12.7676Z" fill="#475F7D"/>
<path d="M14.3643 38.6604C14.3643 37.1019 14.3643 35.5435 15.457 35.0851C16.6407 34.6267 17.2781 35.7268 18.1887 37.2853C19.0083 38.6604 18.644 40.1272 17.4603 40.5855C16.4586 41.0439 14.3643 40.7689 14.3643 38.6604Z" fill="url(#paint3_radial_329797_2476)"/>
<path fill-rule="evenodd" clip-rule="evenodd" d="M14.3643 38.6604C14.3643 37.1019 14.3643 35.5435 15.457 35.0851C16.6364 34.6284 17.2735 35.7188 18.1787 37.2682L18.1887 37.2853C19.0083 38.6604 18.644 40.1272 17.4603 40.5855C16.4586 41.0439 14.3643 40.7689 14.3643 38.6604ZM15.4789 36.6684C15.5564 36.3043 15.6746 36.0854 15.8335 36.0118C15.9097 35.9837 15.9656 35.9743 16.0013 35.9836C16.0562 35.9978 16.13 36.0501 16.2227 36.1405C16.4379 36.3502 16.8021 36.8943 17.3153 37.7726L17.3253 37.7898C17.5978 38.247 17.6897 38.669 17.601 39.0558C17.5334 39.3506 17.3662 39.5496 17.0992 39.653L17.0713 39.6638L17.0441 39.6762C16.9081 39.7385 16.739 39.7713 16.5369 39.7748C16.3121 39.7786 16.1088 39.742 15.9269 39.6649C15.5518 39.5058 15.3643 39.171 15.3643 38.6604C15.3643 37.6916 15.4025 37.0276 15.4789 36.6684Z" fill="#475F7D"/>
<path d="M15.0016 30.96C14.8195 32.8851 14.5463 33.9852 15.7301 34.4436C16.9139 34.9019 17.5513 33.8935 18.735 32.4267C19.6456 31.1433 19.0082 29.4932 17.8245 29.0348C16.6407 28.5764 15.1837 29.4015 15.0016 30.96Z" fill="url(#paint4_radial_329797_2476)"/>
<path fill-rule="evenodd" clip-rule="evenodd" d="M15.0016 30.96C14.981 31.1783 14.9592 31.386 14.9384 31.5834C14.7763 33.1264 14.6806 34.0372 15.7301 34.4436C16.8002 34.8579 17.4239 34.0736 18.4082 32.8356C18.5128 32.7041 18.6214 32.5676 18.735 32.4267C19.6456 31.1433 19.0082 29.4932 17.8245 29.0348C16.6407 28.5764 15.1837 29.4015 15.0016 30.96ZM18.1092 30.7149C18.2303 31.1093 18.1722 31.4796 17.935 31.8259C17.8592 31.9199 17.7561 32.049 17.6255 32.2132C17.0862 32.8915 16.7159 33.3036 16.5146 33.4494C16.3794 33.5474 16.2382 33.568 16.0912 33.511C15.9611 33.4606 15.8851 33.3764 15.8633 33.2582C15.8228 33.0387 15.846 32.5153 15.9329 31.6879C15.9609 31.4218 15.9819 31.2146 15.996 31.0663C16.0498 30.6251 16.2438 30.2971 16.578 30.0823C16.8744 29.8919 17.1695 29.8535 17.4634 29.9673C17.7783 30.0893 17.9936 30.3385 18.1092 30.7149Z" fill="#475F7D"/>
<path d="M14 34.6267C14 33.8934 14.5464 33.3433 15.1838 33.2516C15.4569 33.16 15.8212 33.16 16.1854 33.2516C17.6424 33.3433 18.9172 34.1684 18.8261 35.0851C18.7351 36.0018 17.5513 36.6436 16.0033 36.4602C15.7301 36.4602 15.4569 36.3685 15.1838 36.2769C14.4553 36.1852 14 35.4518 14 34.6267Z" fill="url(#paint5_radial_329797_2476)"/>
<path fill-rule="evenodd" clip-rule="evenodd" d="M14 34.6267C14 33.8934 14.5464 33.3433 15.1838 33.2516C15.4569 33.16 15.8212 33.16 16.1854 33.2516C17.6424 33.3433 18.9172 34.1684 18.8261 35.0851C18.7351 36.0018 17.5513 36.6436 16.0033 36.4602C15.7301 36.4602 15.4569 36.3685 15.1838 36.2769C14.4553 36.1852 14 35.4518 14 34.6267ZM15 34.6267C15 34.8441 15.0476 35.0219 15.1427 35.1602C15.1947 35.2358 15.25 35.2773 15.3086 35.2847L15.4075 35.2971L15.5019 35.3288C15.7629 35.4164 15.9301 35.4602 16.0033 35.4602H16.0623L16.1209 35.4672C16.6835 35.5338 17.1471 35.4754 17.5114 35.292C17.7081 35.193 17.8142 35.0942 17.8298 34.9957C17.8261 34.985 17.8189 34.971 17.8082 34.9538C17.7542 34.8672 17.6597 34.7781 17.5245 34.6863C17.1475 34.4303 16.6802 34.2847 16.1226 34.2497L16.0307 34.2439L15.9413 34.2214C15.7493 34.1731 15.6028 34.1658 15.5019 34.1997L15.4159 34.2285L15.3261 34.2414C15.2368 34.2543 15.1603 34.2961 15.0966 34.367C15.0322 34.4387 15 34.5252 15 34.6267Z" fill="#475F7D"/>
<path fill-rule="evenodd" clip-rule="evenodd" d="M20.1919 35.4018C20.4822 35.4018 20.7771 35.407 21.0766 35.4175L21.1116 34.4181C20.8005 34.4072 20.4939 34.4018 20.1919 34.4018V35.4018ZM22.9673 35.5486C23.5984 35.6132 24.2333 35.6982 24.8719 35.8038L25.035 34.8172C24.376 34.7082 23.7207 34.6205 23.069 34.5538L22.9673 35.5486ZM26.7221 36.1656C27.3548 36.3086 27.9813 36.47 28.6017 36.65L28.8803 35.6896C28.2407 35.5041 27.5947 35.3376 26.9425 35.1902L26.7221 36.1656ZM30.383 37.2242C30.9895 37.4399 31.5843 37.6726 32.1673 37.9223L32.561 37.003C31.9587 36.7451 31.3443 36.5047 30.718 36.282L30.383 37.2242ZM33.8838 38.7242C34.451 39.0123 35.0027 39.3167 35.5388 39.6373L36.052 38.779C35.4962 38.4467 34.9244 38.1312 34.3367 37.8326L33.8838 38.7242ZM37.1462 40.68C37.6646 41.0444 38.1644 41.4248 38.6456 41.8212L39.2814 41.0494C38.7806 40.6368 38.2605 40.241 37.7212 39.8619L37.1462 40.68ZM40.0514 43.0764C40.5061 43.5165 40.9398 43.9724 41.3525 44.4442L42.1051 43.7857C41.6742 43.2931 41.2214 42.8172 40.7469 42.3579L40.0514 43.0764ZM42.5341 45.9158C42.9046 46.4195 43.2533 46.9383 43.5803 47.4722L44.4331 46.9499C44.0914 46.3919 43.7269 45.8497 43.3397 45.3233L42.5341 45.9158ZM44.4969 49.1209C44.7786 49.6815 45.0383 50.2563 45.2761 50.8454L46.2034 50.471C45.9554 49.8566 45.6844 49.257 45.3905 48.672L44.4969 49.1209ZM45.9086 52.6072C46.0981 53.2064 46.2668 53.8187 46.4145 54.444L47.3877 54.214C47.2343 53.5646 47.0591 52.9285 46.8621 52.3056L45.9086 52.6072ZM46.7827 56.2834C46.8846 56.8996 46.9676 57.5271 47.0317 58.1659L48.0267 58.066C47.9604 57.4061 47.8746 56.7575 47.7693 56.1203L46.7827 56.2834ZM47.1649 60.0551C47.1784 60.3793 47.1874 60.7061 47.1918 61.0355L48.1917 61.0222C48.1872 60.6834 48.178 60.3471 48.1641 60.0135L47.1649 60.0551Z" fill="#475F7D"/>
</g>
</g>
<defs>
<filter id="filter0_d_329797_2476" x="82.6001" y="24.9004" width="56.2" height="56.2" filterUnits="userSpaceOnUse" color-interpolation-filters="sRGB">
<feFlood flood-opacity="0" result="BackgroundImageFix"/>
<feColorMatrix in="SourceAlpha" type="matrix" values="0 0 0 0 0 0 0 0 0 0 0 0 0 0 0 0 0 0 127 0" result="hardAlpha"/>
<feOffset/>
<feGaussianBlur stdDeviation="12"/>
<feColorMatrix type="matrix" values="0 0 0 0 0.850089 0 0 0 0 0.910047 0 0 0 0 0.9702 0 0 0 0.704805 0"/>
<feBlend mode="normal" in2="BackgroundImageFix" result="effect1_dropShadow_329797_2476"/>
<feBlend mode="normal" in="SourceGraphic" in2="effect1_dropShadow_329797_2476" result="shape"/>
</filter>
<filter id="filter1_d_329797_2476" x="89.8999" y="11.5" width="53.6" height="53.6" filterUnits="userSpaceOnUse" color-interpolation-filters="sRGB">
<feFlood flood-opacity="0" result="BackgroundImageFix"/>
<feColorMatrix in="SourceAlpha" type="matrix" values="0 0 0 0 0 0 0 0 0 0 0 0 0 0 0 0 0 0 127 0" result="hardAlpha"/>
<feOffset/>
<feGaussianBlur stdDeviation="12"/>
<feColorMatrix type="matrix" values="0 0 0 0 0.850089 0 0 0 0 0.910047 0 0 0 0 0.9702 0 0 0 0.704805 0"/>
<feBlend mode="normal" in2="BackgroundImageFix" result="effect1_dropShadow_329797_2476"/>
<feBlend mode="normal" in="SourceGraphic" in2="effect1_dropShadow_329797_2476" result="shape"/>
</filter>
<filter id="filter2_d_329797_2476" x="-20" y="61.5" width="58.4" height="58.4" filterUnits="userSpaceOnUse" color-interpolation-filters="sRGB">
<feFlood flood-opacity="0" result="BackgroundImageFix"/>
<feColorMatrix in="SourceAlpha" type="matrix" values="0 0 0 0 0 0 0 0 0 0 0 0 0 0 0 0 0 0 127 0" result="hardAlpha"/>
<feOffset/>
<feGaussianBlur stdDeviation="12"/>
<feColorMatrix type="matrix" values="0 0 0 0 0.850089 0 0 0 0 0.910047 0 0 0 0 0.9702 0 0 0 0.704805 0"/>
<feBlend mode="normal" in2="BackgroundImageFix" result="effect1_dropShadow_329797_2476"/>
<feBlend mode="normal" in="SourceGraphic" in2="effect1_dropShadow_329797_2476" result="shape"/>
</filter>
<radialGradient id="paint0_radial_329797_2476" cx="0" cy="0" r="1" gradientUnits="userSpaceOnUse" gradientTransform="translate(114.627 10.053) rotate(105.179) scale(2.33578 1.75199)">
<stop offset="0.136135" stop-color="white"/>
<stop offset="1" stop-color="#59BFFF" stop-opacity="0.33"/>
</radialGradient>
<radialGradient id="paint1_radial_329797_2476" cx="0" cy="0" r="1" gradientUnits="userSpaceOnUse" gradientTransform="translate(113.71 15.2882) rotate(106.276) scale(2.31573 1.86927)">
<stop offset="0.136135" stop-color="white"/>
<stop offset="1" stop-color="#59BFFF" stop-opacity="0.33"/>
</radialGradient>
<radialGradient id="paint2_radial_329797_2476" cx="0" cy="0" r="1" gradientUnits="userSpaceOnUse" gradientTransform="translate(114.58 12.6973) rotate(117.607) scale(1.57364 2.27522)">
<stop offset="0.136135" stop-color="white"/>
<stop offset="1" stop-color="#59BFFF" stop-opacity="0.33"/>
</radialGradient>
<radialGradient id="paint3_radial_329797_2476" cx="0" cy="0" r="1" gradientUnits="userSpaceOnUse" gradientTransform="translate(17.2211 38.0576) rotate(104.912) scale(2.8121 2.07043)">
<stop offset="0.136135" stop-color="white"/>
<stop offset="1" stop-color="#59BFFF" stop-opacity="0.33"/>
</radialGradient>
<radialGradient id="paint4_radial_329797_2476" cx="0" cy="0" r="1" gradientUnits="userSpaceOnUse" gradientTransform="translate(17.7367 31.9073) rotate(105.497) scale(2.74774 2.10633)">
<stop offset="0.136135" stop-color="white"/>
<stop offset="1" stop-color="#59BFFF" stop-opacity="0.33"/>
</radialGradient>
<radialGradient id="paint5_radial_329797_2476" cx="0" cy="0" r="1" gradientUnits="userSpaceOnUse" gradientTransform="translate(17.2347 34.94) rotate(117.837) scale(1.75462 2.56176)">
<stop offset="0.136135" stop-color="white"/>
<stop offset="1" stop-color="#59BFFF" stop-opacity="0.33"/>
</radialGradient>
<clipPath id="clip0_329797_2476">
<rect width="124" height="124" fill="white"/>
</clipPath>
</defs>
</svg>
