<svg width="124" height="124" viewBox="0 0 124 124" fill="none" xmlns="http://www.w3.org/2000/svg">
<g clip-path="url(#clip0_329797_2474)">
<mask id="mask0_329797_2474" style="mask-type:luminance" maskUnits="userSpaceOnUse" x="0" y="0" width="124" height="124">
<path d="M124 0H0V124H124V0Z" fill="white"/>
</mask>
<g mask="url(#mask0_329797_2474)">
<path d="M60.7681 107C85.6209 107 105.768 86.8528 105.768 62C105.768 37.1472 85.6209 17 60.7681 17C35.9153 17 15.7681 37.1472 15.7681 62C15.7681 86.8528 35.9153 107 60.7681 107Z" fill="url(#paint0_linear_329797_2474)"/>
<path d="M60.329 100.604C78.312 100.604 92.89 98.8711 92.89 96.7333C92.89 94.5956 78.312 92.8625 60.329 92.8625C42.3461 92.8625 27.7681 94.5956 27.7681 96.7333C27.7681 98.8711 42.3461 100.604 60.329 100.604Z" fill="#D3DFFA"/>
<path d="M24.2681 82C26.1973 82 27.7681 80.4327 27.7681 78.5C27.7681 76.5665 26.1973 75 24.2681 75C22.3303 75 20.7681 76.5665 20.7681 78.5C20.7681 80.4327 22.3303 82 24.2681 82Z" fill="#6290FF"/>
<path d="M37.9542 45.4364C39.1565 45.4364 40.1402 44.443 40.1402 43.2182C40.1402 41.9926 39.1565 41 37.9542 41C36.744 41 35.7681 41.9926 35.7681 43.2182C35.7681 44.443 36.744 45.4364 37.9542 45.4364Z" fill="#A4D7F7"/>
<path d="M70.9542 21.4364C72.1565 21.4364 73.1402 20.443 73.1402 19.2182C73.1402 17.9927 72.1565 17 70.9542 17C69.744 17 68.7681 17.9927 68.7681 19.2182C68.7681 20.443 69.744 21.4364 70.9542 21.4364Z" fill="#A4D7F7"/>
<path d="M101.14 58.2182C101.14 58.2909 101.137 58.3633 101.13 58.4356C101.123 58.5079 101.112 58.5797 101.098 58.651C101.084 58.7222 101.067 58.7926 101.046 58.8621C101.025 58.9316 101.001 59 100.974 59.0671C100.946 59.1342 100.916 59.1998 100.882 59.2639C100.848 59.3279 100.812 59.3902 100.772 59.4506C100.732 59.511 100.689 59.5693 100.644 59.6254C100.599 59.6816 100.551 59.7354 100.5 59.7867C100.449 59.8381 100.396 59.8868 100.341 59.9329C100.286 59.979 100.228 60.0222 100.169 60.0626C100.109 60.103 100.048 60.1403 99.9847 60.1745C99.9215 60.2087 99.8569 60.2398 99.7907 60.2676C99.7246 60.2954 99.6573 60.3198 99.5887 60.3409C99.5202 60.362 99.4509 60.3796 99.3806 60.3938C99.3104 60.408 99.2397 60.4186 99.1684 60.4257C99.0972 60.4329 99.0257 60.4364 98.9542 60.4364C98.8826 60.4364 98.8111 60.4329 98.7399 60.4257C98.6686 60.4186 98.5979 60.408 98.5277 60.3938C98.4574 60.3796 98.3881 60.362 98.3196 60.3409C98.2511 60.3198 98.1837 60.2954 98.1176 60.2676C98.0514 60.2398 97.9868 60.2087 97.9236 60.1745C97.8605 60.1403 97.7992 60.103 97.7396 60.0626C97.6801 60.0222 97.6227 59.979 97.5673 59.9329C97.512 59.8868 97.459 59.8381 97.4084 59.7867C97.3577 59.7354 97.3097 59.6816 97.2643 59.6254C97.2189 59.5693 97.1763 59.511 97.1365 59.4506C97.0967 59.3902 97.0599 59.3279 97.0262 59.2639C96.9924 59.1998 96.9619 59.1342 96.9345 59.0671C96.9071 59 96.883 58.9316 96.8622 58.8621C96.8414 58.7926 96.824 58.7222 96.8101 58.651C96.7961 58.5797 96.7856 58.5079 96.7786 58.4356C96.7716 58.3633 96.7681 58.2909 96.7681 58.2182C96.7681 58.1456 96.7716 58.0731 96.7786 58.0008C96.7856 57.9285 96.7961 57.8567 96.8101 57.7855C96.824 57.7142 96.8414 57.6438 96.8622 57.5743C96.883 57.5048 96.9071 57.4365 96.9345 57.3693C96.9619 57.3022 96.9924 57.2366 97.0262 57.1726C97.0599 57.1085 97.0967 57.0462 97.1365 56.9858C97.1763 56.9254 97.2189 56.8672 97.2643 56.811C97.3097 56.7548 97.3577 56.7011 97.4084 56.6497C97.459 56.5983 97.512 56.5496 97.5673 56.5035C97.6227 56.4574 97.6801 56.4142 97.7396 56.3738C97.7992 56.3335 97.8605 56.2962 97.9236 56.2619C97.9868 56.2277 98.0514 56.1967 98.1176 56.1688C98.1837 56.141 98.2511 56.1166 98.3196 56.0955C98.3881 56.0744 98.4574 56.0568 98.5277 56.0426C98.5979 56.0284 98.6686 56.0178 98.7399 56.0107C98.8111 56.0036 98.8826 56 98.9542 56C99.0257 56 99.0972 56.0036 99.1684 56.0107C99.2397 56.0178 99.3104 56.0284 99.3806 56.0426C99.4509 56.0568 99.5202 56.0744 99.5887 56.0955C99.6573 56.1166 99.7246 56.141 99.7907 56.1688C99.8569 56.1967 99.9215 56.2277 99.9847 56.2619C100.048 56.2962 100.109 56.3335 100.169 56.3738C100.228 56.4142 100.286 56.4574 100.341 56.5035C100.396 56.5496 100.449 56.5983 100.5 56.6497C100.551 56.7011 100.599 56.7548 100.644 56.811C100.689 56.8672 100.732 56.9254 100.772 56.9858C100.812 57.0462 100.848 57.1085 100.882 57.1726C100.916 57.2366 100.946 57.3022 100.974 57.3693C101.001 57.4365 101.025 57.5048 101.046 57.5743C101.067 57.6438 101.084 57.7142 101.098 57.7855C101.112 57.8567 101.123 57.9285 101.13 58.0008C101.137 58.0731 101.14 58.1456 101.14 58.2182Z" fill="#59BFFF"/>
<g opacity="0.8">
<path fill-rule="evenodd" clip-rule="evenodd" d="M31.0316 28.9475L31.0299 27.9475H26.7267C26.6645 27.9475 26.6029 27.9414 26.5419 27.9293C26.4808 27.9171 26.4216 27.8992 26.364 27.8754C26.3065 27.8516 26.2519 27.8224 26.2001 27.7878C26.1483 27.7532 26.1004 27.714 26.0563 27.67C26.0123 27.626 25.9729 27.5782 25.9383 27.5264C25.9036 27.4747 25.8744 27.4201 25.8505 27.3626C25.8266 27.3052 25.8085 27.2459 25.7962 27.1849C25.784 27.1239 25.7778 27.0623 25.7777 27.0001C25.7776 26.9379 25.7836 26.8763 25.7956 26.8153C25.8076 26.7543 25.8255 26.695 25.8492 26.6376C25.8729 26.5801 25.902 26.5255 25.9365 26.4738C25.971 26.422 26.0102 26.3742 26.0541 26.3302C26.098 26.2862 26.1458 26.247 26.1974 26.2124C26.2491 26.1778 26.3036 26.1487 26.3611 26.1248C26.4185 26.101 26.4777 26.0831 26.5387 26.0709C26.5997 26.0588 26.6613 26.0527 26.7235 26.0527H31.0267L31.0198 22.0377C31.0198 22.0037 31.0214 21.9698 31.0247 21.936C31.0279 21.9022 31.0328 21.8686 31.0394 21.8352C31.046 21.8019 31.0542 21.769 31.064 21.7365C31.0738 21.7039 31.0852 21.672 31.0981 21.6406C31.1111 21.6092 31.1256 21.5785 31.1415 21.5485C31.1575 21.5186 31.1749 21.4894 31.1937 21.4612C31.2126 21.4329 31.2327 21.4057 31.2543 21.3794C31.2758 21.3531 31.2985 21.328 31.3225 21.3039C31.3465 21.2799 31.3716 21.2571 31.3979 21.2355C31.4241 21.214 31.4513 21.1938 31.4795 21.1749C31.5078 21.156 31.5369 21.1385 31.5668 21.1225C31.5967 21.1065 31.6274 21.092 31.6588 21.079C31.6902 21.066 31.7221 21.0545 31.7546 21.0447C31.7871 21.0348 31.82 21.0266 31.8533 21.0199C31.8867 21.0133 31.9202 21.0083 31.954 21.005C31.9879 21.0017 32.0218 21 32.0557 21C32.0897 21 32.1236 21.0017 32.1575 21.005C32.1913 21.0083 32.2249 21.0133 32.2582 21.0199C32.2916 21.0266 32.3245 21.0348 32.3571 21.0447C32.3896 21.0545 32.4216 21.066 32.453 21.079C32.4844 21.092 32.5151 21.1065 32.5451 21.1225C32.5751 21.1385 32.6043 21.156 32.6326 21.1749C32.6609 21.1938 32.6882 21.214 32.7145 21.2355C32.7408 21.2571 32.766 21.2799 32.79 21.3039C32.8141 21.328 32.8369 21.3531 32.8585 21.3794C32.8802 21.4057 32.9004 21.4329 32.9193 21.4612C32.9383 21.4894 32.9558 21.5186 32.9718 21.5485C32.9879 21.5785 33.0025 21.6092 33.0155 21.6406C33.0286 21.672 33.0401 21.7039 33.05 21.7365C33.0599 21.769 33.0682 21.8019 33.0749 21.8352C33.0816 21.8686 33.0867 21.9022 33.09 21.936C33.0934 21.9698 33.0952 22.0037 33.0952 22.0377L33.102 26.0527H37.3013C37.3635 26.0527 37.4251 26.0588 37.4861 26.0709C37.5471 26.0831 37.6064 26.101 37.6639 26.1248C37.7214 26.1487 37.776 26.1778 37.8278 26.2124C37.8796 26.247 37.9275 26.2862 37.9715 26.3302C38.0156 26.3742 38.055 26.422 38.0897 26.4738C38.1243 26.5255 38.1536 26.5801 38.1775 26.6376C38.2014 26.695 38.2194 26.7543 38.2317 26.8153C38.2439 26.8763 38.2501 26.9379 38.2502 27.0001C38.2503 27.0623 38.2443 27.1239 38.2323 27.1849C38.2203 27.2459 38.2024 27.3052 38.1787 27.3626C38.155 27.4201 38.1259 27.4747 38.0915 27.5264C38.057 27.5782 38.0177 27.626 37.9738 27.67C37.93 27.714 37.8822 27.7532 37.8305 27.7878C37.7788 27.8224 37.7243 27.8516 37.6669 27.8754C37.6094 27.8992 37.5502 27.9171 37.4893 27.9293C37.4283 27.9414 37.3667 27.9475 37.3045 27.9475H33.1053L33.1121 31.9623C33.1122 31.9963 33.1106 32.0302 33.1073 32.064C33.104 32.0979 33.0991 32.1315 33.0925 32.1648C33.0859 32.1981 33.0778 32.231 33.0679 32.2635C33.0581 32.296 33.0467 32.328 33.0338 32.3594C33.0209 32.3908 33.0064 32.4215 32.9904 32.4515C32.9744 32.4814 32.957 32.5105 32.9382 32.5388C32.9194 32.5671 32.8992 32.5943 32.8777 32.6206C32.8562 32.6469 32.8334 32.672 32.8094 32.6961C32.7854 32.7201 32.7603 32.7429 32.7341 32.7645C32.7079 32.786 32.6806 32.8062 32.6524 32.8251C32.6242 32.844 32.5951 32.8614 32.5651 32.8775C32.5352 32.8935 32.5045 32.908 32.4732 32.921C32.4418 32.934 32.4098 32.9454 32.3773 32.9553C32.3448 32.9652 32.3119 32.9734 32.2786 32.9801C32.2453 32.9867 32.2117 32.9917 32.1779 32.995C32.1441 32.9983 32.1102 33 32.0762 33C32.0422 33 32.0083 32.9983 31.9745 32.995C31.9406 32.9917 31.9071 32.9867 31.8737 32.9801C31.8404 32.9734 31.8074 32.9652 31.7749 32.9553C31.7423 32.9454 31.7104 32.934 31.6789 32.921C31.6475 32.908 31.6168 32.8935 31.5868 32.8775C31.5568 32.8614 31.5277 32.844 31.4994 32.8251C31.4711 32.8062 31.4438 32.786 31.4175 32.7645C31.3912 32.7429 31.366 32.7201 31.3419 32.6961C31.3178 32.672 31.295 32.6469 31.2734 32.6206C31.2518 32.5943 31.2315 32.5671 31.2126 32.5388C31.1937 32.5105 31.1762 32.4814 31.1601 32.4515C31.144 32.4215 31.1295 32.3908 31.1164 32.3594C31.1033 32.328 31.0918 32.296 31.0819 32.2635C31.072 32.231 31.0637 32.1981 31.057 32.1648C31.0503 32.1315 31.0453 32.0979 31.0419 32.064C31.0385 32.0302 31.0368 31.9963 31.0367 31.9623L31.0316 28.9475ZM30.0316 28.9475H26.7284C26.1907 28.9475 25.7313 28.7573 25.3504 28.3771C24.9696 27.9969 24.7786 27.5379 24.7777 27.0001C24.7768 26.4624 24.9662 26.0034 25.3458 25.6231C25.7254 25.2429 26.184 25.0527 26.7218 25.0527H30.025L30.0198 22.0377C30.0189 21.475 30.217 20.9947 30.6142 20.5968C31.0114 20.1989 31.4914 20 32.054 20C32.6167 20 33.0974 20.1989 33.4959 20.5968C33.8945 20.9947 34.0942 21.475 34.0952 22.0377L34.1003 25.0527H37.2996C37.8373 25.0527 38.2966 25.2429 38.6775 25.6231C39.0584 26.0034 39.2493 26.4624 39.2502 27.0001C39.2511 27.5379 39.0618 27.9969 38.6822 28.3771C38.3026 28.7573 37.8439 28.9475 37.3062 28.9475H34.107L34.1121 31.9623C34.1131 32.525 33.9149 33.0053 33.5177 33.4032C33.1205 33.8011 32.6406 34 32.0779 34C31.5152 34 31.0346 33.8011 30.636 33.4032C30.2374 33.0053 30.0377 32.525 30.0367 31.9623L30.0316 28.9475Z" fill="#475F7D"/>
</g>
<path fill-rule="evenodd" clip-rule="evenodd" d="M42 54V45C42 34.5066 50.5066 26 61 26C71.4934 26 80 34.5066 80 45V54H42ZM49 53V45C49 38.3726 54.3726 33 61 33C67.6274 33 73 38.3726 73 45V53H49Z" fill="url(#paint1_linear_329797_2474)"/>
<path fill-rule="evenodd" clip-rule="evenodd" d="M42 53V54H80V45C80 34.5066 71.4934 26 61 26C50.5066 26 42 34.5066 42 45V53ZM43 53H48V45C48 41.4101 49.2692 38.346 51.8076 35.8076C54.346 33.2692 57.4101 32 61 32C64.5899 32 67.654 33.2692 70.1924 35.8076C72.7308 38.346 74 41.4101 74 45V53H79V45C79 40.0295 77.2426 35.7868 73.7279 32.2721C70.2132 28.7574 65.9705 27 61 27C56.0295 27 51.7868 28.7574 48.2721 32.2721C44.7574 35.7868 43 40.0295 43 45V53ZM73 53V45C73 38.3726 67.6274 33 61 33C54.3726 33 49 38.3726 49 45V53H73Z" fill="#1E293B"/>
<path d="M84.0364 52.7083H37.7681C35.5589 52.7083 33.7681 54.4991 33.7681 56.7083V93.0377C33.7681 95.2468 35.5589 97.0377 37.7681 97.0377H84.0364C86.2455 97.0377 88.0364 95.2468 88.0364 93.0377V56.7083C88.0364 54.4991 86.2455 52.7083 84.0364 52.7083Z" fill="#D8D8D8"/>
<path d="M84.0364 52.7083H37.7681C35.5589 52.7083 33.7681 54.4991 33.7681 56.7083V93.0377C33.7681 95.2468 35.5589 97.0377 37.7681 97.0377H84.0364C86.2455 97.0377 88.0364 95.2468 88.0364 93.0377V56.7083C88.0364 54.4991 86.2455 52.7083 84.0364 52.7083Z" fill="white"/>
<path d="M84.0364 53.2083H37.7681C35.8351 53.2083 34.2681 54.7753 34.2681 56.7083V93.0377C34.2681 94.9707 35.8351 96.5377 37.7681 96.5377H84.0364C85.9693 96.5377 87.5364 94.9707 87.5364 93.0377V56.7083C87.5364 54.7753 85.9693 53.2083 84.0364 53.2083Z" stroke="#1E293B"/>
<path d="M84.4873 57H37.4873V94H84.4873V57Z" fill="url(#paint2_linear_329797_2474)"/>
<path fill-rule="evenodd" clip-rule="evenodd" d="M62.9269 75.3967C63.0518 75.3362 63.1744 75.2713 63.2948 75.202C63.4151 75.1327 63.533 75.0592 63.6483 74.9815C63.7635 74.9038 63.876 74.822 63.9856 74.7363C64.0952 74.6505 64.2017 74.5609 64.3051 74.4676C64.4086 74.3743 64.5086 74.2773 64.6053 74.1768C64.702 74.0763 64.7951 73.9724 64.8846 73.8653C64.9741 73.7581 65.0597 73.6479 65.1416 73.5346C65.2235 73.4213 65.3013 73.3053 65.3752 73.1864C65.449 73.0676 65.5186 72.9462 65.584 72.8224C65.6494 72.6986 65.7104 72.5726 65.7671 72.4444C65.8238 72.3162 65.876 72.1861 65.9237 72.0542C65.9714 71.9223 66.0144 71.7888 66.0528 71.6538C66.0912 71.5189 66.1249 71.3827 66.1539 71.2452C66.1829 71.1078 66.2071 70.9696 66.2265 70.8305C66.2459 70.6913 66.2605 70.5517 66.2702 70.4115C66.2799 70.2713 66.2848 70.131 66.2848 69.9905C66.2848 69.8924 66.2824 69.7945 66.2776 69.6965C66.2729 69.5986 66.2658 69.5009 66.2563 69.4033C66.2469 69.3057 66.2351 69.2085 66.2209 69.1115C66.2068 69.0145 66.1903 68.9179 66.1714 68.8218C66.1526 68.7256 66.1315 68.63 66.108 68.5349C66.0845 68.4398 66.0588 68.3453 66.0308 68.2515C66.0027 68.1577 65.9724 68.0647 65.9399 67.9723C65.9074 67.88 65.8727 67.7886 65.8357 67.698C65.7988 67.6074 65.7597 67.5178 65.7184 67.4292C65.6771 67.3406 65.6337 67.253 65.5882 67.1666C65.5427 67.0801 65.4952 66.9948 65.4455 66.9108C65.3959 66.8267 65.3443 66.7439 65.2906 66.6623C65.237 66.5808 65.1814 66.5007 65.1239 66.422C65.0664 66.3432 65.0071 66.2659 64.9458 66.1901C64.8845 66.1144 64.8215 66.0402 64.7567 65.9675C64.6918 65.8949 64.6253 65.8239 64.5571 65.7546C64.4888 65.6852 64.4189 65.6177 64.3474 65.5518C64.2758 65.486 64.2028 65.422 64.1281 65.3598C64.0535 65.2976 63.9774 65.2373 63.8999 65.1789C63.8224 65.1205 63.7435 65.064 63.6632 65.0096C63.5829 64.9551 63.5014 64.9027 63.4186 64.8523C63.3358 64.8019 63.2518 64.7536 63.1667 64.7073C63.0815 64.6611 62.9953 64.6171 62.9081 64.5751C62.8208 64.5332 62.7326 64.4935 62.6434 64.456C62.5542 64.4185 62.4641 64.3832 62.3733 64.3502C62.2824 64.3172 62.1907 64.2864 62.0983 64.2579C62.006 64.2295 61.913 64.2033 61.8193 64.1795C61.7257 64.1557 61.6315 64.1342 61.5368 64.1151C61.4421 64.096 61.347 64.0792 61.2516 64.0648C61.1561 64.0504 61.0603 64.0385 60.9642 64.0288C60.8681 64.0192 60.7719 64.012 60.6755 64.0072C60.579 64.0024 60.4826 64 60.386 64C60.2895 64 60.193 64.0024 60.0966 64.0072C60.0002 64.012 59.9039 64.0192 59.8079 64.0288C59.7118 64.0385 59.616 64.0504 59.5205 64.0648C59.425 64.0792 59.3299 64.096 59.2352 64.1151C59.1406 64.1342 59.0464 64.1557 58.9528 64.1795C58.8591 64.2033 58.7661 64.2295 58.6737 64.2579C58.5813 64.2864 58.4897 64.3172 58.3988 64.3502C58.3079 64.3832 58.2179 64.4185 58.1287 64.456C58.0395 64.4935 57.9513 64.5332 57.864 64.5751C57.7767 64.6171 57.6905 64.6611 57.6054 64.7073C57.5203 64.7536 57.4363 64.8019 57.3535 64.8523C57.2707 64.9027 57.1891 64.9551 57.1089 65.0096C57.0286 65.064 56.9497 65.1205 56.8722 65.1789C56.7946 65.2373 56.7185 65.2976 56.6439 65.3598C56.5693 65.422 56.4962 65.486 56.4247 65.5518C56.3532 65.6177 56.2833 65.6852 56.215 65.7546C56.1467 65.8239 56.0802 65.8949 56.0154 65.9675C55.9505 66.0402 55.8875 66.1144 55.8263 66.1901C55.765 66.2659 55.7056 66.3432 55.6481 66.422C55.5906 66.5007 55.535 66.5808 55.4814 66.6623C55.4278 66.7439 55.3762 66.8267 55.3265 66.9108C55.2769 66.9948 55.2293 67.0801 55.1838 67.1666C55.1383 67.253 55.0949 67.3406 55.0536 67.4292C55.0124 67.5178 54.9733 67.6074 54.9363 67.698C54.8994 67.7886 54.8646 67.88 54.8321 67.9723C54.7996 68.0647 54.7693 68.1577 54.7413 68.2515C54.7133 68.3453 54.6875 68.4398 54.6641 68.5349C54.6406 68.63 54.6195 68.7256 54.6006 68.8218C54.5818 68.9179 54.5653 69.0145 54.5512 69.1115C54.537 69.2085 54.5252 69.3057 54.5157 69.4033C54.5062 69.5009 54.4991 69.5986 54.4944 69.6965C54.4897 69.7945 54.4873 69.8924 54.4873 69.9905C54.4873 70.131 54.4922 70.2713 54.5019 70.4115C54.5116 70.5517 54.5262 70.6913 54.5456 70.8305C54.565 70.9696 54.5892 71.1078 54.6182 71.2452C54.6471 71.3826 54.6808 71.5188 54.7193 71.6538C54.7577 71.7888 54.8007 71.9223 54.8484 72.0542C54.8961 72.1861 54.9482 72.3162 55.0049 72.4444C55.0616 72.5726 55.1226 72.6986 55.1881 72.8224C55.2535 72.9462 55.3231 73.0675 55.3969 73.1864C55.4707 73.3053 55.5486 73.4213 55.6304 73.5346C55.7123 73.6479 55.798 73.7581 55.8875 73.8653C55.977 73.9724 56.0701 74.0763 56.1668 74.1768C56.2635 74.2773 56.3635 74.3743 56.4669 74.4676C56.5703 74.5609 56.6768 74.6505 56.7865 74.7363C56.8961 74.822 57.0085 74.9038 57.1238 74.9815C57.2391 75.0592 57.3569 75.1327 57.4773 75.202C57.5977 75.2713 57.7203 75.3362 57.8452 75.3967L55.2455 84.1971C54.8669 85.4785 55.8273 86.7637 57.1635 86.7637H60.4714H63.6085C64.9447 86.7637 65.9051 85.4785 65.5266 84.1971L62.9269 75.3967Z" fill="white"/>
<path fill-rule="evenodd" clip-rule="evenodd" d="M62.9269 75.3967C63.0518 75.3362 63.1744 75.2713 63.2948 75.202C63.4151 75.1327 63.533 75.0592 63.6483 74.9815C63.7635 74.9038 63.876 74.822 63.9856 74.7363C64.0952 74.6505 64.2017 74.5609 64.3051 74.4676C64.4086 74.3743 64.5086 74.2773 64.6053 74.1768C64.702 74.0763 64.7951 73.9724 64.8846 73.8653C64.9741 73.7581 65.0597 73.6479 65.1416 73.5346C65.2235 73.4213 65.3013 73.3053 65.3752 73.1864C65.449 73.0676 65.5186 72.9462 65.584 72.8224C65.6494 72.6986 65.7104 72.5726 65.7671 72.4444C65.8238 72.3162 65.876 72.1861 65.9237 72.0542C65.9714 71.9223 66.0144 71.7888 66.0528 71.6538C66.0912 71.5189 66.1249 71.3827 66.1539 71.2452C66.1829 71.1078 66.2071 70.9696 66.2265 70.8305C66.2459 70.6913 66.2605 70.5517 66.2702 70.4115C66.2799 70.2713 66.2848 70.131 66.2848 69.9905C66.2848 69.8924 66.2824 69.7945 66.2776 69.6965C66.2729 69.5986 66.2658 69.5009 66.2563 69.4033C66.2469 69.3057 66.2351 69.2085 66.2209 69.1115C66.2068 69.0145 66.1903 68.9179 66.1714 68.8218C66.1526 68.7256 66.1315 68.63 66.108 68.5349C66.0845 68.4398 66.0588 68.3453 66.0308 68.2515C66.0027 68.1577 65.9724 68.0647 65.9399 67.9723C65.9074 67.88 65.8727 67.7886 65.8357 67.698C65.7988 67.6074 65.7597 67.5178 65.7184 67.4292C65.6771 67.3406 65.6337 67.253 65.5882 67.1666C65.5427 67.0801 65.4952 66.9948 65.4455 66.9108C65.3959 66.8267 65.3443 66.7439 65.2906 66.6623C65.237 66.5808 65.1814 66.5007 65.1239 66.422C65.0664 66.3432 65.0071 66.2659 64.9458 66.1901C64.8845 66.1144 64.8215 66.0402 64.7567 65.9675C64.6918 65.8949 64.6253 65.8239 64.5571 65.7546C64.4888 65.6852 64.4189 65.6177 64.3474 65.5518C64.2758 65.486 64.2028 65.422 64.1281 65.3598C64.0535 65.2976 63.9774 65.2373 63.8999 65.1789C63.8224 65.1205 63.7435 65.064 63.6632 65.0096C63.5829 64.9551 63.5014 64.9027 63.4186 64.8523C63.3358 64.8019 63.2518 64.7536 63.1667 64.7073C63.0815 64.6611 62.9953 64.6171 62.9081 64.5751C62.8208 64.5332 62.7326 64.4935 62.6434 64.456C62.5542 64.4185 62.4641 64.3832 62.3733 64.3502C62.2824 64.3172 62.1907 64.2864 62.0983 64.2579C62.006 64.2295 61.913 64.2033 61.8193 64.1795C61.7257 64.1557 61.6315 64.1342 61.5368 64.1151C61.4421 64.096 61.347 64.0792 61.2516 64.0648C61.1561 64.0504 61.0603 64.0385 60.9642 64.0288C60.8681 64.0192 60.7719 64.012 60.6755 64.0072C60.579 64.0024 60.4826 64 60.386 64C60.2895 64 60.193 64.0024 60.0966 64.0072C60.0002 64.012 59.9039 64.0192 59.8079 64.0288C59.7118 64.0385 59.616 64.0504 59.5205 64.0648C59.425 64.0792 59.3299 64.096 59.2352 64.1151C59.1406 64.1342 59.0464 64.1557 58.9528 64.1795C58.8591 64.2033 58.7661 64.2295 58.6737 64.2579C58.5813 64.2864 58.4897 64.3172 58.3988 64.3502C58.3079 64.3832 58.2179 64.4185 58.1287 64.456C58.0395 64.4935 57.9513 64.5332 57.864 64.5751C57.7767 64.6171 57.6905 64.6611 57.6054 64.7073C57.5203 64.7536 57.4363 64.8019 57.3535 64.8523C57.2707 64.9027 57.1891 64.9551 57.1089 65.0096C57.0286 65.064 56.9497 65.1205 56.8722 65.1789C56.7946 65.2373 56.7185 65.2976 56.6439 65.3598C56.5693 65.422 56.4962 65.486 56.4247 65.5518C56.3532 65.6177 56.2833 65.6852 56.215 65.7546C56.1467 65.8239 56.0802 65.8949 56.0154 65.9675C55.9505 66.0402 55.8875 66.1144 55.8263 66.1901C55.765 66.2659 55.7056 66.3432 55.6481 66.422C55.5906 66.5007 55.535 66.5808 55.4814 66.6623C55.4278 66.7439 55.3762 66.8267 55.3265 66.9108C55.2769 66.9948 55.2293 67.0801 55.1838 67.1666C55.1383 67.253 55.0949 67.3406 55.0536 67.4292C55.0124 67.5178 54.9733 67.6074 54.9363 67.698C54.8994 67.7886 54.8646 67.88 54.8321 67.9723C54.7996 68.0647 54.7693 68.1577 54.7413 68.2515C54.7133 68.3453 54.6875 68.4398 54.6641 68.5349C54.6406 68.63 54.6195 68.7256 54.6006 68.8218C54.5818 68.9179 54.5653 69.0145 54.5512 69.1115C54.537 69.2085 54.5252 69.3057 54.5157 69.4033C54.5062 69.5009 54.4991 69.5986 54.4944 69.6965C54.4897 69.7945 54.4873 69.8924 54.4873 69.9905C54.4873 70.131 54.4922 70.2713 54.5019 70.4115C54.5116 70.5517 54.5262 70.6913 54.5456 70.8305C54.565 70.9696 54.5892 71.1078 54.6182 71.2452C54.6471 71.3827 54.6808 71.5189 54.7193 71.6538C54.7577 71.7888 54.8007 71.9223 54.8484 72.0542C54.8961 72.1861 54.9482 72.3162 55.0049 72.4444C55.0616 72.5726 55.1226 72.6986 55.1881 72.8224C55.2535 72.9462 55.3231 73.0676 55.3969 73.1864C55.4707 73.3053 55.5486 73.4213 55.6304 73.5346C55.7123 73.6479 55.798 73.7581 55.8875 73.8653C55.977 73.9724 56.0701 74.0763 56.1668 74.1768C56.2635 74.2773 56.3635 74.3743 56.4669 74.4676C56.5703 74.5609 56.6768 74.6505 56.7865 74.7363C56.8961 74.822 57.0085 74.9038 57.1238 74.9815C57.2391 75.0592 57.3569 75.1327 57.4773 75.202C57.5977 75.2713 57.7203 75.3362 57.8452 75.3967L55.2455 84.1971C54.8669 85.4785 55.8273 86.7637 57.1635 86.7637H60.4714H63.6085C64.9447 86.7637 65.9051 85.4785 65.5266 84.1971L62.9269 75.3967ZM64.5257 72.6588C64.0211 73.4711 63.3428 74.0838 62.4907 74.4968L61.7276 74.8667L64.5675 84.4804C64.6622 84.8007 64.6095 85.0947 64.4095 85.3623C64.2096 85.6299 63.9426 85.7637 63.6085 85.7637H60.4714H57.1635C56.8295 85.7637 56.5625 85.6299 56.3625 85.3623C56.1626 85.0947 56.1099 84.8007 56.2045 84.4804L59.0444 74.8667L58.2813 74.4968C57.4293 74.0838 56.7509 73.4711 56.2464 72.6588C55.7403 71.844 55.4873 70.9546 55.4873 69.9905C55.4873 68.6094 55.9674 67.4313 56.9275 66.4562C57.8835 65.4854 59.0363 65 60.386 65C61.7358 65 62.8886 65.4854 63.8445 66.4562C64.8047 67.4313 65.2848 68.6094 65.2848 69.9905C65.2848 70.9546 65.0318 71.844 64.5257 72.6588Z" fill="#1E293B"/>
<path fill-rule="evenodd" clip-rule="evenodd" d="M61.1303 73.948C61.2463 73.9291 61.3612 73.9051 61.4751 73.8761C61.589 73.8471 61.7014 73.8131 61.8123 73.7742C61.9232 73.7353 62.0321 73.6915 62.1392 73.643C62.2462 73.5945 62.3509 73.5413 62.4532 73.4836C62.5556 73.4258 62.6552 73.3637 62.752 73.2971C62.8489 73.2306 62.9427 73.1599 63.0333 73.0851C63.124 73.0103 63.2111 72.9316 63.2948 72.8492C63.3786 72.7667 63.4585 72.6807 63.5346 72.5911C63.6107 72.5016 63.6828 72.4089 63.7507 72.313C63.8187 72.2171 63.8823 72.1185 63.9416 72.017C64.0008 71.9155 64.0555 71.8116 64.1056 71.7053C64.1557 71.599 64.201 71.4907 64.2416 71.3804C64.2821 71.2701 64.3178 71.1582 64.3485 71.0447C64.3792 70.9313 64.4048 70.8167 64.4254 70.701C64.446 70.5853 64.4615 70.4689 64.4718 70.3519C64.4821 70.2348 64.4873 70.1175 64.4873 70C64.4873 69.869 64.4809 69.7383 64.468 69.6079C64.4552 69.4776 64.436 69.3481 64.4104 69.2196C64.3849 69.0912 64.3531 68.9642 64.3151 68.8389C64.277 68.7135 64.233 68.5903 64.1828 68.4693C64.1327 68.3482 64.0767 68.23 64.015 68.1144C63.9532 67.9989 63.886 67.8866 63.8132 67.7777C63.7404 67.6688 63.6625 67.5637 63.5793 67.4624C63.4962 67.3612 63.4084 67.2642 63.3157 67.1716C63.2231 67.0789 63.1261 66.9911 63.0249 66.908C62.9236 66.8249 62.8185 66.7469 62.7096 66.6741C62.6007 66.6013 62.4884 66.5341 62.3729 66.4723C62.2574 66.4106 62.1391 66.3546 62.018 66.3045C61.897 66.2543 61.7738 66.2103 61.6484 66.1722C61.5231 66.1342 61.3962 66.1024 61.2677 66.0769C61.1392 66.0513 61.0097 66.0321 60.8794 66.0193C60.749 66.0064 60.6183 66 60.4873 66C60.3563 66 60.2256 66.0064 60.0952 66.0193C59.9649 66.0321 59.8354 66.0513 59.7069 66.0769C59.5785 66.1024 59.4515 66.1342 59.3262 66.1722C59.2008 66.2103 59.0776 66.2543 58.9566 66.3045C58.8355 66.3546 58.7173 66.4106 58.6017 66.4723C58.4862 66.5341 58.374 66.6013 58.265 66.6741C58.1561 66.7469 58.051 66.8249 57.9497 66.908C57.8485 66.9911 57.7515 67.0789 57.6589 67.1716C57.5662 67.2642 57.4784 67.3612 57.3953 67.4624C57.3122 67.5637 57.2342 67.6688 57.1614 67.7777C57.0886 67.8866 57.0214 67.9989 56.9596 68.1144C56.8979 68.23 56.8419 68.3482 56.7918 68.4693C56.7417 68.5903 56.6976 68.7135 56.6595 68.8389C56.6215 68.9642 56.5897 69.0912 56.5642 69.2196C56.5386 69.3481 56.5194 69.4776 56.5066 69.6079C56.4937 69.7383 56.4873 69.869 56.4873 70C56.4873 70.112 56.492 70.2239 56.5014 70.3355C56.5108 70.4472 56.5249 70.5583 56.5436 70.6687C56.5623 70.7792 56.5857 70.8887 56.6136 70.9972C56.6415 71.1057 56.674 71.2129 56.7109 71.3186C56.7478 71.4244 56.7891 71.5285 56.8348 71.6308C56.8805 71.7331 56.9304 71.8333 56.9845 71.9314C57.0386 72.0295 57.0967 72.1252 57.1589 72.2185C57.221 72.3117 57.287 72.4022 57.3567 72.4899C57.4265 72.5775 57.4997 72.6622 57.5766 72.7437C57.6535 72.8252 57.7336 72.9034 57.817 72.9782C57.9005 73.053 57.9869 73.1242 58.0763 73.1917C58.1657 73.2592 58.2578 73.3229 58.3525 73.3827C58.4473 73.4425 58.5444 73.4982 58.6438 73.5499C58.7432 73.6015 58.8447 73.6489 58.9481 73.692C59.0515 73.7351 59.1566 73.7738 59.2632 73.8081C59.3699 73.8424 59.4778 73.8721 59.587 73.8974L59.587 74.5851C59.587 74.6735 59.5753 74.7615 59.5522 74.8467L57.3238 83.0692C57.1515 83.705 57.6303 84.3308 58.289 84.3308H62.4283C63.087 84.3308 63.5658 83.705 63.3935 83.0692L61.1651 74.8467C61.142 74.7615 61.1303 74.6735 61.1303 74.5851L61.1303 73.948Z" fill="url(#paint3_linear_329797_2474)"/>
<path fill-rule="evenodd" clip-rule="evenodd" d="M79.309 46.7464L80.3218 46.5783L80.2399 46.0851L79.2271 46.2532L79.309 46.7464ZM83.3205 46.1366L85.2981 45.8913L85.2365 45.3952L83.2589 45.6404L83.3205 46.1366ZM32.7717 59.8869L33.7177 59.4967L33.527 59.0345L32.5811 59.4246L32.7717 59.8869ZM28.1614 61.8757L30.019 61.0557L29.817 60.5983L27.9594 61.4183L28.1614 61.8757ZM88.2674 45.5926C88.9326 45.5352 89.5948 45.4844 90.254 45.4403L90.2206 44.9415C89.5581 44.9858 88.8926 45.0368 88.2243 45.0945L88.2674 45.5926ZM23.6446 63.9968L25.4329 63.1332L25.2155 62.683L23.4272 63.5466L23.6446 63.9968ZM93.263 45.2848C93.9386 45.2604 94.6084 45.2434 95.2726 45.2337L95.2654 44.7338C94.5978 44.7435 93.9242 44.7606 93.2449 44.7852L93.263 45.2848ZM19.1839 66.3233C19.7589 66.0044 20.3511 65.6844 20.9605 65.3634L20.7274 64.921C20.1149 65.2437 19.5196 65.5654 18.9414 65.886L19.1839 66.3233ZM98.2762 45.2416C98.9485 45.2552 99.6117 45.2769 100.266 45.3067L100.288 44.8073C99.63 44.7773 98.9627 44.7554 98.2864 44.7417L98.2762 45.2416ZM14.894 68.8872C15.4356 68.5356 15.9991 68.1825 16.5847 67.8278L16.3257 67.4001C15.7357 67.7575 15.1677 68.1134 14.6217 68.4679L14.894 68.8872ZM103.262 45.506C103.946 45.5666 104.615 45.6368 105.268 45.7164L105.329 45.2201C104.67 45.1397 103.996 45.069 103.306 45.008L103.262 45.506ZM10.8508 71.8138C11.3437 71.4092 11.8677 71.0023 12.4228 70.593L12.1259 70.1906C11.564 70.605 11.0332 71.0173 10.5336 71.4273L10.8508 71.8138ZM108.23 46.1636C108.91 46.2879 109.564 46.4237 110.191 46.5708L110.305 46.0841C109.669 45.9351 109.008 45.7976 108.32 45.6718L108.23 46.1636ZM7.32441 75.3007C7.71342 74.812 8.15192 74.319 8.6399 73.8217L8.28302 73.4715C7.78293 73.9811 7.333 74.4871 6.93322 74.9893L7.32441 75.3007ZM113.05 47.3844C113.715 47.6129 114.33 47.8566 114.893 48.1156L115.102 47.6614C114.523 47.3954 113.893 47.1455 113.212 46.9116L113.05 47.3844ZM5.15617 79.6304C5.26898 79.0263 5.46808 78.4136 5.75346 77.7924L5.2991 77.5836C4.99653 78.2423 4.78505 78.894 4.66466 79.5386L5.15617 79.6304ZM117.413 49.649C117.958 50.1058 118.371 50.5849 118.654 51.0863L119.089 50.8408C118.777 50.2867 118.325 49.7617 117.735 49.2659L117.413 49.649ZM6.13884 84.207C5.74654 83.6695 5.46239 83.0997 5.2864 82.4977L4.80648 82.638C4.99883 83.2959 5.30833 83.9172 5.73497 84.5018L6.13884 84.207ZM119.146 53.8563C119.088 54.4632 118.938 55.0908 118.694 55.7388L119.162 55.9146C119.421 55.2252 119.582 54.5549 119.644 53.9036L119.146 53.8563ZM10.0041 87.1309C9.36932 86.8342 8.79419 86.516 8.27874 86.1763L8.00354 86.5937C8.5393 86.9469 9.1356 87.2769 9.79244 87.5839L10.0041 87.1309ZM117.298 58.3301C116.944 58.8408 116.542 59.3589 116.092 59.8843L116.472 60.2096C116.933 59.6712 117.345 59.1396 117.708 58.6147L117.298 58.3301ZM14.6944 88.6844C14.0128 88.5265 13.3648 88.3541 12.7504 88.1671L12.6049 88.6455C13.2301 88.8358 13.889 89.0111 14.5815 89.1715L14.6944 88.6844ZM114.022 62.034C113.556 62.4706 113.061 62.91 112.536 63.3521L112.858 63.7345C113.39 63.2867 113.892 62.8415 114.364 62.3987L114.022 62.034ZM19.6022 89.5036C18.9309 89.4278 18.2799 89.3417 17.6492 89.2454L17.5737 89.7397C18.2109 89.837 18.8683 89.9239 19.5461 90.0004L19.6022 89.5036ZM110.189 65.2017C109.662 65.5926 109.113 65.9842 108.543 66.3766L108.827 66.7882C109.401 66.3927 109.954 65.9978 110.487 65.6034L110.189 65.2017ZM24.6185 89.8646C23.9282 89.84 23.2528 89.8067 22.5922 89.7646L22.5604 90.2636C23.2257 90.306 23.9058 90.3395 24.6007 90.3643L24.6185 89.8646ZM106.03 68.0263C105.481 68.3711 104.917 68.7153 104.338 69.0589L104.594 69.4888C105.176 69.1431 105.743 68.7968 106.296 68.4499L106.03 68.0263ZM29.6308 89.8952C28.9426 89.9096 28.265 89.9168 27.5981 89.9167L27.5979 90.4167C28.2684 90.4168 28.9495 90.4096 29.6413 90.3951L29.6308 89.8952ZM101.703 70.5651C101.135 70.8779 100.556 71.1895 99.9657 71.4999L100.199 71.9424C100.791 71.6305 101.373 71.3173 101.944 71.003L101.703 70.5651ZM34.6309 89.6728L32.6107 89.7897L32.6396 90.2889L34.6599 90.1719L34.6309 89.6728ZM97.2676 72.8734L95.477 73.7379L95.6945 74.1882L97.4849 73.3236L97.2676 72.8734ZM39.6247 89.2422L37.6142 89.4386L37.6627 89.9362L39.6733 89.7399L39.6247 89.2422ZM92.7286 75.0003L90.9049 75.7984L91.1054 76.2564L92.929 75.4583L92.7286 75.0003ZM44.6055 88.6325L42.5986 88.8986L42.6642 89.3942L44.6713 89.1281L44.6055 88.6325ZM88.1109 76.9652L86.2638 77.702L86.449 78.1664L88.2961 77.4296L88.1109 76.9652ZM49.5685 87.8631L47.5619 88.1927L47.6429 88.6862L49.6496 88.3565L49.5685 87.8631ZM83.429 78.7827L81.5639 79.4625L81.7351 79.9322L83.6002 79.2525L83.429 78.7827ZM54.491 86.9519L52.5033 87.3371L52.5985 87.8279L54.5861 87.4427L54.491 86.9519ZM78.713 80.4561L76.8127 81.0893L76.9708 81.5637L78.8711 80.9305L78.713 80.4561ZM59.388 85.9059L57.4218 86.3422L57.5301 86.8303L59.4964 86.394L59.388 85.9059ZM73.9491 82.001L72.0165 82.5885L72.162 83.0669L74.0946 82.4794L73.9491 82.001ZM64.2611 84.7311L62.3156 85.216L62.4365 85.7011L64.382 85.2162L64.2611 84.7311ZM69.1417 83.4223L67.1932 83.9607L67.3264 84.4426L69.2749 83.9043L69.1417 83.4223Z" fill="#475F7D"/>
</g>
</g>
<defs>
<linearGradient id="paint0_linear_329797_2474" x1="91.4681" y1="26.0011" x2="38.9681" y2="101.001" gradientUnits="userSpaceOnUse">
<stop offset="0.0571429" stop-color="#D8ECFF"/>
<stop offset="1" stop-color="#E2F7FF" stop-opacity="0.31"/>
</linearGradient>
<linearGradient id="paint1_linear_329797_2474" x1="61" y1="26" x2="61" y2="54" gradientUnits="userSpaceOnUse">
<stop stop-color="#3284FF"/>
<stop offset="1" stop-color="#34A4FF"/>
</linearGradient>
<linearGradient id="paint2_linear_329797_2474" x1="73.5051" y1="57" x2="46.0197" y2="94" gradientUnits="userSpaceOnUse">
<stop stop-color="#C8DCFF"/>
<stop offset="0.992857" stop-color="#EBF6FF"/>
</linearGradient>
<linearGradient id="paint3_linear_329797_2474" x1="60.4873" y1="60.6142" x2="60.4873" y2="84.3308" gradientUnits="userSpaceOnUse">
<stop stop-color="white"/>
<stop offset="1" stop-color="#59BFFF" stop-opacity="0.33"/>
</linearGradient>
<clipPath id="clip0_329797_2474">
<rect width="124" height="124" fill="white"/>
</clipPath>
</defs>
</svg>
