<svg width="48" height="48" viewBox="0 0 48 48" fill="none" xmlns="http://www.w3.org/2000/svg">
<path d="M24 4C35.0457 4 44 12.9543 44 24C44 35.0457 35.0457 44 24 44C12.9543 44 4 35.0457 4 24C4 12.9543 12.9543 4 24 4ZM14 13V17H15.5V17.9766C15.5 20.4046 16.4698 22.6905 18.1299 24.3682C16.4696 26.0459 15.5 28.3326 15.5 30.7607V31H14V35H34V31H32.5V30.7607C32.5 28.3326 31.5304 26.0459 29.8701 24.3682C31.5302 22.6905 32.5 20.4046 32.5 17.9766V17H34V13H14ZM28.5 17V17.9766C28.4999 19.8284 27.4938 21.5339 25.873 22.4297C24.3483 23.2723 24.3483 25.464 25.873 26.3066C27.494 27.2024 28.5 28.9088 28.5 30.7607V31H19.5V30.7607C19.5 28.9088 20.506 27.2024 22.127 26.3066C23.6517 25.464 23.6517 23.2723 22.127 22.4297C20.5062 21.5339 19.5001 19.8284 19.5 17.9766V17H28.5Z" fill="#334155"/>
</svg>
