<svg width="48" height="48" viewBox="0 0 48 48" fill="none" xmlns="http://www.w3.org/2000/svg">
<path d="M27.9821 18.0688C29.2113 16.6373 31.0083 15.8108 32.9029 15.8108H33.0821C34.1867 15.8108 35.0822 16.7 35.0822 17.7969C35.0822 18.8938 34.1867 19.783 33.0821 19.783H32.9029C32.1837 19.783 31.4977 20.0966 31.0259 20.646L26.3457 26.0966L27.8275 31.274C27.8593 31.3851 27.9567 31.4514 28.0559 31.4514H30.8441C31.9487 31.4514 32.8441 32.3406 32.8441 33.4375C32.8441 34.5344 31.9487 35.4236 30.8441 35.4236H28.0559C26.1565 35.4236 24.4972 34.1672 23.9798 32.36L23.2268 29.729L20.2762 33.1656C19.047 34.5972 17.2499 35.4236 15.3554 35.4236H15.176C14.0715 35.4236 13.176 34.5344 13.176 33.4375C13.176 32.3406 14.0715 31.4514 15.176 31.4514H15.3554C16.0745 31.4514 16.7606 31.1378 17.2324 30.5884L21.9128 25.1373L20.431 19.9604C20.3992 19.8493 20.302 19.783 20.2026 19.783H17.4145C16.3099 19.783 15.4144 18.8938 15.4144 17.7969C15.4144 16.7 16.3099 15.8108 17.4145 15.8108H20.2026C22.102 15.8108 23.7614 17.0671 24.2786 18.8744L25.0317 21.5051L27.9821 18.0688ZM10.8427 6.625C7.21211 6.625 4.27064 9.54599 4.27064 13.1514V21.4072L2.57041 23.0956C2.19534 23.468 1.98462 23.9733 1.98462 24.5C1.98462 25.0267 2.19534 25.532 2.57041 25.9044L4.27064 27.5928V35.8486C4.27064 39.454 7.21211 42.375 10.8427 42.375C11.9473 42.375 12.8427 41.4858 12.8427 40.3889C12.8427 39.292 11.9473 38.4028 10.8427 38.4028C9.42126 38.4028 8.27068 37.2602 8.27068 35.8486V26.7701C8.27068 26.2434 8.05996 25.7381 7.6849 25.3657L6.81309 24.5L7.6849 23.6343C8.05996 23.2619 8.27068 22.7566 8.27068 22.2299V13.1514C8.27068 11.7398 9.42126 10.5972 10.8427 10.5972C11.9473 10.5972 12.8427 9.708 12.8427 8.61111C12.8427 7.51422 11.9473 6.625 10.8427 6.625ZM37.1266 6.625C36.022 6.625 35.1266 7.51422 35.1266 8.61111C35.1266 9.708 36.022 10.5972 37.1266 10.5972C38.548 10.5972 39.6986 11.7398 39.6986 13.1514V22.2299C39.6986 22.7566 39.9094 23.2619 40.2844 23.6343L41.1562 24.5L40.2844 25.3657C39.9094 25.7381 39.6986 26.2434 39.6986 26.7701V35.8486C39.6986 37.2596 38.5466 38.4028 37.1266 38.4028C36.022 38.4028 35.1266 39.292 35.1266 40.3889C35.1266 41.4858 36.022 42.375 37.1266 42.375C40.7546 42.375 43.6986 39.4546 43.6986 35.8486V27.5928L45.3989 25.9044C46.1799 25.1288 46.1799 23.8712 45.3989 23.0956L43.6986 21.4072V13.1514C43.6986 9.54599 40.7572 6.625 37.1266 6.625Z" fill="#334155"/>
</svg>
